<svg width="48" height="48" viewBox="0 0 48 48" fill="none" xmlns="http://www.w3.org/2000/svg">
<path d="M43.5 48H4.5C3.25111 48 2.18889 47.5622 1.31333 46.6867C0.437778 45.8111 0 44.7489 0 43.5V4.5C0 3.25111 0.437778 2.18889 1.31333 1.31333C2.18889 0.437778 3.25111 0 4.5 0H43.5C44.7489 0 45.8111 0.437778 46.6867 1.31333C47.5622 2.18889 48 3.25111 48 4.5V43.5C48 44.7489 47.5622 45.8111 46.6867 46.6867C45.8111 47.5622 44.7489 48 43.5 48ZM43.5 3H4.5C4.09556 3 3.74444 3.14889 3.44667 3.44667C3.14889 3.74444 3 4.09556 3 4.5V43.5C3 43.9044 3.14889 44.2556 3.44667 44.5533C3.74444 44.8511 4.09556 45 4.5 45H43.5C43.9044 45 44.2556 44.8511 44.5533 44.5533C44.8511 44.2556 45 43.9044 45 43.5V4.5C45 4.09556 44.8511 3.74444 44.5533 3.44667C44.2556 3.14889 43.9044 3 43.5 3ZM46.5 25.5H1.5C1.09556 25.5 0.744444 25.3511 0.446667 25.0533C0.148889 24.7556 0 24.4044 0 24C0 23.5956 0.148889 23.2444 0.446667 22.9467C0.744444 22.6489 1.09556 22.5 1.5 22.5H46.5C46.9044 22.5 47.2556 22.6489 47.5533 22.9467C47.8511 23.2444 48 23.5956 48 24C48 24.4044 47.8511 24.7556 47.5533 25.0533C47.2556 25.3511 46.9044 25.5 46.5 25.5ZM24 48C23.5956 48 23.2444 47.8511 22.9467 47.5533C22.6489 47.2556 22.5 46.9044 22.5 46.5V1.5C22.5 1.09556 22.6489 0.744444 22.9467 0.446667C23.2444 0.148889 23.5956 0 24 0C24.4044 0 24.7556 0.148889 25.0533 0.446667C25.3511 0.744444 25.5 1.09556 25.5 1.5V46.5C25.5 46.9044 25.3511 47.2556 25.0533 47.5533C24.7556 47.8511 24.4044 48 24 48Z" fill="#6610F2"/>
</svg>
