<svg width="48" height="48" viewBox="0 0 48 48" fill="none" xmlns="http://www.w3.org/2000/svg">
<path d="M14.7671 14.7671V34.2264H34.2329V14.7671H14.7671ZM17.5218 31.4717V17.5218H31.4782V31.4717H17.5218ZM48 34.135V14.8585H45.291V3.75472H34.1415V1H14.8585V3.75472H3.75472V14.8585H1V34.135H3.75472V45.291H14.8585V48H34.1415V45.291H45.291V34.135H48ZM45.2453 31.3803H39.7358V28.6256H45.2453V31.3803ZM45.2453 25.8774H39.7358V23.1226H45.2453V25.8774ZM45.2453 20.3679H39.7358V17.6132H45.2453V20.3679ZM34.1415 6.50292H42.5363V14.8585H39.7358V9.25764H34.1415V6.50292ZM36.9876 36.9811H12.0189V12.0124H36.9876V36.9811ZM23.1226 39.7358H25.8774V45.2453H23.1226V39.7358ZM25.8774 9.25764H23.1226V3.75472H25.8774V9.25764ZM31.3868 3.75472V9.25764H28.6321V3.75472H31.3868ZM17.6132 3.75472H20.3679V9.25764H17.6132V3.75472ZM6.50944 14.8585V6.50292H14.8585V9.25764H9.26417V14.8585H6.50944ZM9.26417 23.1226V25.8774H3.75472V23.1226H9.26417ZM3.75472 17.6132H9.26417V20.3679H3.75472V17.6132ZM3.75472 31.3803V28.6256H9.26417V31.3803H3.75472ZM14.8585 42.5363H6.50944V34.1807H9.26417V39.7815H14.8585V42.5363ZM17.6132 45.2453V39.7358H20.3679V45.2453H17.6132ZM31.3868 45.2453H28.6321V39.7358H31.3868V45.2453ZM42.5363 34.135V42.5363H34.1872V39.7358H39.7815V34.135H42.5363Z" fill="#6A6377"/>
</svg>
