<svg width="48" height="48" viewBox="0 0 48 48" fill="none" xmlns="http://www.w3.org/2000/svg">
<path d="M48 45.1867H43.78V31.5933L33.8933 26.6733L24 31.5933V45.1867H16.92V35.3H14.1067V15.5133H32.4867V20.2533L20.6267 25.5467L21.7533 28.1267L33.8933 22.7333L46.0333 28.1267L47.1533 25.5467L35.3 20.2533V15.5133H43.78L37.4067 7.08H14.1067V0H5.62667V7.08H0V15.5133H5.62667V35.3H2.81333V45.1867H0V48H48V45.1867ZM8.48667 7.08V2.81333H11.3V7.08H8.48667ZM2.81333 12.7V9.89333H36L38.1067 12.7H2.81333ZM8.48667 35.3V15.5133H11.3V35.3H8.48667ZM14.1067 45.1867H5.62667V38.1067H14.1067V45.1867ZM35.3 45.1867H32.4867V40.92H35.3V45.1867ZM40.92 45.1867H38.1067V38.1067H29.6267V45.1867H26.8133V33.3267L33.8933 29.8133L40.92 33.3267V45.1867Z" fill="#6610F2"/>
</svg>
