<svg width="16" height="16" viewBox="0 0 16 16" fill="none" xmlns="http://www.w3.org/2000/svg">
<g clip-path="url(#clip0)">
<path d="M8.93758 8.00459L15.7961 1.14605C16.0608 0.890394 16.0682 0.468575 15.8125 0.203864C15.5569 -0.0608467 15.1351 -0.0681867 14.8703 0.187466C14.8648 0.192815 14.8593 0.198281 14.8539 0.203864L7.99535 7.06241L1.1368 0.203825C0.872091 -0.0518277 0.450272 -0.0444877 0.194619 0.220223C-0.0547872 0.478453 -0.0547872 0.887817 0.194619 1.14605L7.05317 8.00459L0.194619 14.8631C-0.065524 15.1233 -0.065524 15.5451 0.194619 15.8053C0.454801 16.0654 0.87662 16.0654 1.1368 15.8053L7.99535 8.94677L14.8539 15.8053C15.1186 16.061 15.5404 16.0536 15.7961 15.7889C16.0455 15.5307 16.0455 15.1213 15.7961 14.8631L8.93758 8.00459Z" fill="#191919"/>
</g>
<defs>
<clipPath id="clip0">
<rect width="16" height="16" fill="white"/>
</clipPath>
</defs>
</svg>
