<svg width="48" height="48" viewBox="0 0 48 48" fill="none" xmlns="http://www.w3.org/2000/svg">
<path d="M42.28 0.466675H5.72C4.15556 0.466675 2.81111 1.0289 1.68667 2.15334C0.562222 3.28223 0 4.62667 0 6.18667V35.06C0 36.6245 0.562222 37.9689 1.68667 39.0933C2.81111 40.2178 4.15556 40.78 5.72 40.78H14.9533V44.72H10.5C10.1267 44.72 9.79778 44.86 9.51333 45.14C9.23333 45.42 9.09333 45.7489 9.09333 46.1267C9.09333 46.5 9.23333 46.8267 9.51333 47.1067C9.79778 47.3911 10.1267 47.5333 10.5 47.5333H37.5C37.8733 47.5333 38.2022 47.3911 38.4867 47.1067C38.7667 46.8267 38.9067 46.5 38.9067 46.1267C38.9067 45.7489 38.7667 45.42 38.4867 45.14C38.2022 44.86 37.8733 44.72 37.5 44.72H33.0467V40.78H42.28C43.8444 40.78 45.1889 40.2178 46.3133 39.0933C47.4378 37.9689 48 36.6245 48 35.06V6.18667C48 4.62667 47.4378 3.28223 46.3133 2.15334C45.1889 1.0289 43.8444 0.466675 42.28 0.466675ZM5.72 3.28001H42.28C43.0933 3.28001 43.7822 3.56223 44.3467 4.12667C44.9067 4.68667 45.1867 5.37334 45.1867 6.18667V31.9667H2.81333V6.18667C2.81333 5.37334 3.09333 4.68667 3.65333 4.12667C4.21778 3.56223 4.90667 3.28001 5.72 3.28001ZM30.2333 40.78V44.72H17.7667V40.78H30.2333ZM42.28 37.9667C41.7511 37.9667 39.6422 37.9667 35.9533 37.9667C32.2644 37.9667 28.2644 37.9667 23.9533 37.9667C19.6422 37.9667 15.6578 37.9667 12 37.9667C8.31111 37.9667 6.21778 37.9667 5.72 37.9667C4.90667 37.9667 4.21778 37.6867 3.65333 37.1267C3.09333 36.5622 2.81333 35.8733 2.81333 35.06V34.78H45.1867V35.06C45.1867 35.8733 44.9067 36.5622 44.3467 37.1267C43.7822 37.6867 43.0933 37.9667 42.28 37.9667ZM12.0467 9.28001H15.0933V21.0467C15.0933 21.6422 15.2956 22.1422 15.7 22.5467C16.1089 22.9511 16.6089 23.1533 17.2 23.1533H29.3467C29.8133 23.1533 30.2422 23.0067 30.6333 22.7133C31.0244 22.4156 31.2667 22.0467 31.36 21.6067L33.3733 13.9667C33.56 13.3133 33.4444 12.7133 33.0267 12.1667C32.6044 11.62 32.0489 11.3467 31.36 11.3467H17.9067V7.87334C17.9067 7.50001 17.7667 7.17334 17.4867 6.89334C17.2022 6.6089 16.8733 6.46667 16.5 6.46667H12.0467C11.6733 6.46667 11.3444 6.6089 11.06 6.89334C10.78 7.17334 10.64 7.50001 10.64 7.87334C10.64 8.25112 10.78 8.58001 11.06 8.86001C11.3444 9.14001 11.6733 9.28001 12.0467 9.28001ZM17.9067 14.1533H30.42L28.78 20.3467H17.9067C17.9067 19.3156 17.9067 18.1889 17.9067 16.9667C17.9067 15.7489 17.9067 14.8111 17.9067 14.1533ZM19.5 25.9667H17.2533C16.8756 25.9667 16.5467 26.1089 16.2667 26.3933C15.9867 26.6733 15.8467 27 15.8467 27.3733C15.8467 27.7511 15.9867 28.08 16.2667 28.36C16.5467 28.64 16.8756 28.78 17.2533 28.78H19.5C19.8733 28.78 20.2022 28.64 20.4867 28.36C20.7667 28.08 20.9067 27.7511 20.9067 27.3733C20.9067 27 20.7667 26.6733 20.4867 26.3933C20.2022 26.1089 19.8733 25.9667 19.5 25.9667ZM29.2533 25.9667H27C26.6267 25.9667 26.2978 26.1089 26.0133 26.3933C25.7333 26.6733 25.5933 27 25.5933 27.3733C25.5933 27.7511 25.7333 28.08 26.0133 28.36C26.2978 28.64 26.6267 28.78 27 28.78H29.2533C29.6267 28.78 29.9533 28.64 30.2333 28.36C30.5133 28.08 30.6533 27.7511 30.6533 27.3733C30.6533 27 30.5133 26.6733 30.2333 26.3933C29.9533 26.1089 29.6267 25.9667 29.2533 25.9667Z" fill="#6610F2"/>
</svg>
