<svg width="16" height="13" viewBox="0 0 16 13" fill="none" xmlns="http://www.w3.org/2000/svg">
<path d="M5.84617 12.5732C5.7094 12.5728 5.57418 12.5443 5.44892 12.4894C5.32366 12.4346 5.21102 12.3546 5.11802 12.2544L0.270373 7.10323C0.0891619 6.91033 -0.00791256 6.65342 0.000505128 6.38902C0.00892282 6.12463 0.122143 5.8744 0.315259 5.69339C0.508375 5.51237 0.765568 5.41541 1.03026 5.42381C1.29495 5.43222 1.54545 5.54532 1.72666 5.73822L5.83619 10.1122L14.2248 0.945737C14.3099 0.839846 14.4158 0.752458 14.536 0.688938C14.6562 0.625419 14.7881 0.587111 14.9236 0.576366C15.0592 0.565621 15.1955 0.582666 15.3242 0.626455C15.4528 0.670243 15.5712 0.739851 15.672 0.831002C15.7728 0.922153 15.8539 1.03292 15.9102 1.15651C15.9666 1.28009 15.9971 1.41389 15.9998 1.54967C16.0025 1.68545 15.9774 1.82035 15.926 1.94609C15.8747 2.07183 15.7981 2.18575 15.7011 2.28086L6.58429 12.2444C6.49216 12.3464 6.37992 12.4283 6.25462 12.4849C6.12931 12.5414 5.99364 12.5715 5.85614 12.5732H5.84617Z" fill="white"/>
</svg>
