<svg width="20" height="20" viewBox="0 0 20 20" fill="none" xmlns="http://www.w3.org/2000/svg">
<path d="M19.8668 19.0732C19.8483 19.0516 19.8281 19.0314 19.8064 19.0128L10.7837 9.98464L19.8119 0.96199C20.0291 0.744797 20.0291 0.392661 19.8119 0.175468C19.5947 -0.0417251 19.2426 -0.0417251 19.0254 0.175468L10.0027 9.20365L0.980107 0.175468C0.762914 -0.0417251 0.410778 -0.0417251 0.193585 0.175468C-0.0236083 0.392661 -0.0236083 0.744797 0.193585 0.96199L9.22177 9.98464L0.193624 19.0073C-0.0387188 19.2063 -0.0657851 19.5559 0.133182 19.7882C0.332149 20.0206 0.681793 20.0477 0.914135 19.8487C0.935788 19.8301 0.956 19.8099 0.974577 19.7882L10.0028 10.7656L19.0254 19.7938C19.2244 20.0261 19.574 20.0532 19.8064 19.8542C20.0387 19.6552 20.0658 19.3056 19.8668 19.0732Z" fill="black"/>
</svg>
