<svg width="56" height="57" viewBox="0 0 56 57" fill="none" xmlns="http://www.w3.org/2000/svg">
<path d="M51.8467 45.0652V37.0774H29.6411V32.5853H44.5122C47.0322 32.5853 49.1841 31.7003 50.9678 29.9305C52.7567 28.1606 53.6511 26.017 53.6511 23.4997C53.6511 21.2368 52.9304 19.2567 51.4889 17.5595C50.0474 15.8623 48.2507 14.832 46.0989 14.4687H46.0444C45.5726 12.0241 44.38 9.9895 42.4667 8.36495C40.5533 6.7404 38.3367 5.92813 35.8167 5.92813C35.1996 5.92813 34.5981 5.98262 34.0122 6.09162C33.4315 6.20061 32.8663 6.34594 32.3167 6.5276H32.4333C31.2667 4.66949 29.7059 3.1747 27.7511 2.04322C25.8015 0.911746 23.66 0.346008 21.3267 0.346008C19.543 0.346008 17.8474 0.69116 16.24 1.38146C14.6741 2.07696 13.2974 3.00861 12.11 4.17642C10.9278 5.34422 9.98926 6.73002 9.29444 8.33381C8.64111 9.90646 8.31444 11.6037 8.31444 13.4254C8.31444 13.6798 8.31444 13.9367 8.31444 14.1962C8.31444 14.4505 8.33259 14.7048 8.36889 14.9592V14.9047C6.6163 15.5638 5.18518 16.6668 4.07556 18.2135C2.96074 19.7653 2.40333 21.5093 2.40333 23.4452C2.40333 25.9625 3.28741 28.1165 5.05556 29.9071C6.8237 31.6925 8.96778 32.5853 11.4878 32.5853H26.3589V37.0774H4.15333V45.0107C2.95037 45.3741 1.95741 46.067 1.17444 47.0894C0.391481 48.1119 0 49.2797 0 50.5929C0 52.2018 0.565185 53.5721 1.69556 54.7035C2.82593 55.835 4.19222 56.4007 5.79444 56.4007C7.40185 56.4007 8.77074 55.835 9.90111 54.7035C11.0315 53.5721 11.5967 52.2018 11.5967 50.5929C11.5967 49.2797 11.2026 48.1119 10.4144 47.0894C9.63148 46.067 8.65667 45.3922 7.49 45.0652L7.43556 45.0107V40.3551H26.3589V45.0652C25.1559 45.4286 24.163 46.1137 23.38 47.1206C22.597 48.1223 22.2056 49.2797 22.2056 50.5929C22.2056 52.2018 22.7707 53.5721 23.9011 54.7035C25.0315 55.835 26.3978 56.4007 28 56.4007C29.6022 56.4007 30.9685 55.835 32.0989 54.7035C33.2293 53.5721 33.7944 52.2018 33.7944 50.5929C33.7944 49.2797 33.403 48.1223 32.62 47.1206C31.837 46.1137 30.8622 45.4286 29.6956 45.0652H29.6411V40.3551H48.5644V45.0652C47.3615 45.4286 46.3685 46.1137 45.5856 47.1206C44.7974 48.1223 44.4033 49.2797 44.4033 50.5929C44.4033 52.2018 44.9685 53.5721 46.0989 54.7035C47.2293 55.835 48.5982 56.4007 50.2056 56.4007C51.8078 56.4007 53.1741 55.835 54.3044 54.7035C55.4348 53.5721 56 52.2018 56 50.5929C56 49.2797 55.6085 48.1223 54.8256 47.1206C54.0426 46.1137 53.0678 45.4286 51.9011 45.0652H51.8467ZM5.63111 23.4997C5.63111 23.4634 5.63111 23.4452 5.63111 23.4452C5.63111 22.0231 6.09778 20.7723 7.03111 19.6927C7.95926 18.6183 9.11556 17.9539 10.5 17.6996L12.25 17.4193L11.8689 15.7221C11.76 15.3588 11.677 14.9851 11.62 14.601C11.5681 14.217 11.5422 13.8069 11.5422 13.3709C11.5422 10.7083 12.4989 8.41945 14.4122 6.50424C16.3256 4.58904 18.6304 3.63144 21.3267 3.63144C23.297 3.63144 25.0652 4.15046 26.6311 5.18852C28.2022 6.22657 29.387 7.58641 30.1856 9.26805V9.32255L30.9556 10.9108L32.4878 10.0855C32.9596 9.8312 33.4781 9.63137 34.0433 9.48604C34.6085 9.34072 35.1815 9.26805 35.7622 9.26805C35.7622 9.26805 35.7726 9.26805 35.7933 9.26805C35.8089 9.26805 35.8167 9.26805 35.8167 9.26805C37.7144 9.26805 39.3478 9.92462 40.7167 11.2378C42.0804 12.5509 42.8193 14.1573 42.9333 16.0569L42.9878 17.6451H44.5122C46.1559 17.6451 47.543 18.2083 48.6733 19.3346C49.8037 20.466 50.3689 21.8544 50.3689 23.4997C50.3689 25.1035 49.7933 26.4711 48.6422 27.6026C47.4963 28.7341 46.1196 29.2998 44.5122 29.2998H11.4878C9.88037 29.2998 8.5037 28.7341 7.35778 27.6026C6.20667 26.4711 5.63111 25.1035 5.63111 23.4997ZM8.31444 50.5929C8.31444 51.2883 8.06815 51.8826 7.57556 52.3757C7.08296 52.8688 6.48926 53.1153 5.79444 53.1153C5.10481 53.1153 4.5137 52.8688 4.02111 52.3757C3.52852 51.8826 3.28222 51.2883 3.28222 50.5929C3.28222 49.9025 3.52852 49.3109 4.02111 48.8178C4.5137 48.3247 5.10481 48.0782 5.79444 48.0782C6.48926 48.0782 7.08296 48.3247 7.57556 48.8178C8.06815 49.3109 8.31444 49.9025 8.31444 50.5929ZM30.5122 50.5929C30.5122 51.2883 30.2685 51.8826 29.7811 52.3757C29.2885 52.8688 28.6948 53.1153 28 53.1153C27.3052 53.1153 26.7115 52.8688 26.2189 52.3757C25.7315 51.8826 25.4878 51.2883 25.4878 50.5929C25.4878 49.9025 25.7315 49.3109 26.2189 48.8178C26.7115 48.3247 27.3052 48.0782 28 48.0782C28.6948 48.0782 29.2885 48.3247 29.7811 48.8178C30.2685 49.3109 30.5122 49.9025 30.5122 50.5929ZM50.2056 53.1153C49.5107 53.1153 48.917 52.8688 48.4244 52.3757C47.9319 51.8826 47.6856 51.2883 47.6856 50.5929C47.6856 49.9025 47.9319 49.3109 48.4244 48.8178C48.917 48.3247 49.5107 48.0782 50.2056 48.0782C50.8952 48.0782 51.4863 48.3247 51.9789 48.8178C52.4715 49.3109 52.7178 49.9025 52.7178 50.5929C52.7178 51.2883 52.4715 51.8826 51.9789 52.3757C51.4863 52.8688 50.8952 53.1153 50.2056 53.1153Z" fill="#6A6377"/>
</svg>
