<svg width="48" height="48" viewBox="0 0 48 48" fill="none" xmlns="http://www.w3.org/2000/svg">
<path d="M19.7804 7.03333C19.7804 7.40667 19.6404 7.73333 19.3604 8.01333C19.0804 8.29778 18.7515 8.44 18.3738 8.44C18.0004 8.44 17.6738 8.29778 17.3938 8.01333C17.1093 7.73333 16.9671 7.40667 16.9671 7.03333C16.9671 6.65556 17.1093 6.32667 17.3938 6.04667C17.6738 5.76667 18.0004 5.62667 18.3738 5.62667C18.7515 5.62667 19.0804 5.76667 19.3604 6.04667C19.6404 6.32667 19.7804 6.65556 19.7804 7.03333ZM31.0338 7.03333C31.0338 7.40667 30.8915 7.73333 30.6071 8.01333C30.3271 8.29778 30.0004 8.44 29.6271 8.44C29.2493 8.44 28.9204 8.29778 28.6404 8.01333C28.3604 7.73333 28.2204 7.40667 28.2204 7.03333C28.2204 6.65556 28.3604 6.32667 28.6404 6.04667C28.9204 5.76667 29.2493 5.62667 29.6271 5.62667C30.0004 5.62667 30.3271 5.76667 30.6071 6.04667C30.8915 6.32667 31.0338 6.65556 31.0338 7.03333ZM25.4071 7.03333C25.4071 7.40667 25.2671 7.73333 24.9871 8.01333C24.7026 8.29778 24.3738 8.44 24.0004 8.44C23.6271 8.44 23.2982 8.29778 23.0138 8.01333C22.7338 7.73333 22.5938 7.40667 22.5938 7.03333C22.5938 6.65556 22.7338 6.32667 23.0138 6.04667C23.2982 5.76667 23.6271 5.62667 24.0004 5.62667C24.3738 5.62667 24.7026 5.76667 24.9871 6.04667C25.2671 6.32667 25.4071 6.65556 25.4071 7.03333ZM19.7804 12.6533C19.7804 13.0311 19.6404 13.36 19.3604 13.64C19.0804 13.92 18.7515 14.06 18.3738 14.06C18.0004 14.06 17.6738 13.92 17.3938 13.64C17.1093 13.36 16.9671 13.0311 16.9671 12.6533C16.9671 12.28 17.1093 11.9533 17.3938 11.6733C17.6738 11.3933 18.0004 11.2533 18.3738 11.2533C18.7515 11.2533 19.0804 11.3933 19.3604 11.6733C19.6404 11.9533 19.7804 12.28 19.7804 12.6533ZM31.0338 12.6533C31.0338 13.0311 30.8915 13.36 30.6071 13.64C30.3271 13.92 30.0004 14.06 29.6271 14.06C29.2493 14.06 28.9204 13.92 28.6404 13.64C28.3604 13.36 28.2204 13.0311 28.2204 12.6533C28.2204 12.28 28.3604 11.9533 28.6404 11.6733C28.9204 11.3933 29.2493 11.2533 29.6271 11.2533C30.0004 11.2533 30.3271 11.3933 30.6071 11.6733C30.8915 11.9533 31.0338 12.28 31.0338 12.6533ZM25.4071 12.6533C25.4071 13.0311 25.2671 13.36 24.9871 13.64C24.7026 13.92 24.3738 14.06 24.0004 14.06C23.6271 14.06 23.2982 13.92 23.0138 13.64C22.7338 13.36 22.5938 13.0311 22.5938 12.6533C22.5938 12.28 22.7338 11.9533 23.0138 11.6733C23.2982 11.3933 23.6271 11.2533 24.0004 11.2533C24.3738 11.2533 24.7026 11.3933 24.9871 11.6733C25.2671 11.9533 25.4071 12.28 25.4071 12.6533ZM19.7804 18.28C19.7804 18.6578 19.6404 18.9867 19.3604 19.2667C19.0804 19.5467 18.7515 19.6867 18.3738 19.6867C18.0004 19.6867 17.6738 19.5467 17.3938 19.2667C17.1093 18.9867 16.9671 18.6578 16.9671 18.28C16.9671 17.9067 17.1093 17.58 17.3938 17.3C17.6738 17.0156 18.0004 16.8733 18.3738 16.8733C18.7515 16.8733 19.0804 17.0156 19.3604 17.3C19.6404 17.58 19.7804 17.9067 19.7804 18.28ZM31.0338 18.28C31.0338 18.6578 30.8915 18.9867 30.6071 19.2667C30.3271 19.5467 30.0004 19.6867 29.6271 19.6867C29.2493 19.6867 28.9204 19.5467 28.6404 19.2667C28.3604 18.9867 28.2204 18.6578 28.2204 18.28C28.2204 17.9067 28.3604 17.58 28.6404 17.3C28.9204 17.0156 29.2493 16.8733 29.6271 16.8733C30.0004 16.8733 30.3271 17.0156 30.6071 17.3C30.8915 17.58 31.0338 17.9067 31.0338 18.28ZM25.4071 18.28C25.4071 18.6578 25.2671 18.9867 24.9871 19.2667C24.7026 19.5467 24.3738 19.6867 24.0004 19.6867C23.6271 19.6867 23.2982 19.5467 23.0138 19.2667C22.7338 18.9867 22.5938 18.6578 22.5938 18.28C22.5938 17.9067 22.7338 17.58 23.0138 17.3C23.2982 17.0156 23.6271 16.8733 24.0004 16.8733C24.3738 16.8733 24.7026 17.0156 24.9871 17.3C25.2671 17.58 25.4071 17.9067 25.4071 18.28ZM19.7804 29.5333C19.7804 29.9067 19.6404 30.2333 19.3604 30.5133C19.0804 30.7978 18.7515 30.94 18.3738 30.94C18.0004 30.94 17.6738 30.7978 17.3938 30.5133C17.1093 30.2333 16.9671 29.9067 16.9671 29.5333C16.9671 29.1556 17.1093 28.8267 17.3938 28.5467C17.6738 28.2667 18.0004 28.1267 18.3738 28.1267C18.7515 28.1267 19.0804 28.2667 19.3604 28.5467C19.6404 28.8267 19.7804 29.1556 19.7804 29.5333ZM31.0338 29.5333C31.0338 29.9067 30.8915 30.2333 30.6071 30.5133C30.3271 30.7978 30.0004 30.94 29.6271 30.94C29.2493 30.94 28.9204 30.7978 28.6404 30.5133C28.3604 30.2333 28.2204 29.9067 28.2204 29.5333C28.2204 29.1556 28.3604 28.8267 28.6404 28.5467C28.9204 28.2667 29.2493 28.1267 29.6271 28.1267C30.0004 28.1267 30.3271 28.2667 30.6071 28.5467C30.8915 28.8267 31.0338 29.1556 31.0338 29.5333ZM25.4071 29.5333C25.4071 29.9067 25.2671 30.2333 24.9871 30.5133C24.7026 30.7978 24.3738 30.94 24.0004 30.94C23.6271 30.94 23.2982 30.7978 23.0138 30.5133C22.7338 30.2333 22.5938 29.9067 22.5938 29.5333C22.5938 29.1556 22.7338 28.8267 23.0138 28.5467C23.2982 28.2667 23.6271 28.1267 24.0004 28.1267C24.3738 28.1267 24.7026 28.2667 24.9871 28.5467C25.2671 28.8267 25.4071 29.1556 25.4071 29.5333ZM19.7804 35.1533C19.7804 35.5311 19.6404 35.86 19.3604 36.14C19.0804 36.42 18.7515 36.56 18.3738 36.56C18.0004 36.56 17.6738 36.42 17.3938 36.14C17.1093 35.86 16.9671 35.5311 16.9671 35.1533C16.9671 34.78 17.1093 34.4533 17.3938 34.1733C17.6738 33.8933 18.0004 33.7533 18.3738 33.7533C18.7515 33.7533 19.0804 33.8933 19.3604 34.1733C19.6404 34.4533 19.7804 34.78 19.7804 35.1533ZM31.0338 35.1533C31.0338 35.5311 30.8915 35.86 30.6071 36.14C30.3271 36.42 30.0004 36.56 29.6271 36.56C29.2493 36.56 28.9204 36.42 28.6404 36.14C28.3604 35.86 28.2204 35.5311 28.2204 35.1533C28.2204 34.78 28.3604 34.4533 28.6404 34.1733C28.9204 33.8933 29.2493 33.7533 29.6271 33.7533C30.0004 33.7533 30.3271 33.8933 30.6071 34.1733C30.8915 34.4533 31.0338 34.78 31.0338 35.1533ZM25.4071 35.1533C25.4071 35.5311 25.2671 35.86 24.9871 36.14C24.7026 36.42 24.3738 36.56 24.0004 36.56C23.6271 36.56 23.2982 36.42 23.0138 36.14C22.7338 35.86 22.5938 35.5311 22.5938 35.1533C22.5938 34.78 22.7338 34.4533 23.0138 34.1733C23.2982 33.8933 23.6271 33.7533 24.0004 33.7533C24.3738 33.7533 24.7026 33.8933 24.9871 34.1733C25.2671 34.4533 25.4071 34.78 25.4071 35.1533ZM19.7804 23.9067C19.7804 24.28 19.6404 24.6089 19.3604 24.8933C19.0804 25.1733 18.7515 25.3133 18.3738 25.3133C18.0004 25.3133 17.6738 25.1733 17.3938 24.8933C17.1093 24.6089 16.9671 24.28 16.9671 23.9067C16.9671 23.5333 17.1093 23.2044 17.3938 22.92C17.6738 22.64 18.0004 22.5 18.3738 22.5C18.7515 22.5 19.0804 22.64 19.3604 22.92C19.6404 23.2044 19.7804 23.5333 19.7804 23.9067ZM31.0338 23.9067C31.0338 24.28 30.8915 24.6089 30.6071 24.8933C30.3271 25.1733 30.0004 25.3133 29.6271 25.3133C29.2493 25.3133 28.9204 25.1733 28.6404 24.8933C28.3604 24.6089 28.2204 24.28 28.2204 23.9067C28.2204 23.5333 28.3604 23.2044 28.6404 22.92C28.9204 22.64 29.2493 22.5 29.6271 22.5C30.0004 22.5 30.3271 22.64 30.6071 22.92C30.8915 23.2044 31.0338 23.5333 31.0338 23.9067ZM25.4071 23.9067C25.4071 24.28 25.2671 24.6089 24.9871 24.8933C24.7026 25.1733 24.3738 25.3133 24.0004 25.3133C23.6271 25.3133 23.2982 25.1733 23.0138 24.8933C22.7338 24.6089 22.5938 24.28 22.5938 23.9067C22.5938 23.5333 22.7338 23.2044 23.0138 22.92C23.2982 22.64 23.6271 22.5 24.0004 22.5C24.3738 22.5 24.7026 22.64 24.9871 22.92C25.2671 23.2044 25.4071 23.5333 25.4071 23.9067ZM42.2804 18.28C42.2804 18.6578 42.1404 18.9867 41.8604 19.2667C41.5804 19.5467 41.2515 19.6867 40.8738 19.6867C40.5004 19.6867 40.1738 19.5467 39.8938 19.2667C39.6093 18.9867 39.4671 18.6578 39.4671 18.28C39.4671 17.9067 39.6093 17.58 39.8938 17.3C40.1738 17.0156 40.5004 16.8733 40.8738 16.8733C41.2515 16.8733 41.5804 17.0156 41.8604 17.3C42.1404 17.58 42.2804 17.9067 42.2804 18.28ZM42.2804 23.9067C42.2804 24.28 42.1404 24.6089 41.8604 24.8933C41.5804 25.1733 41.2515 25.3133 40.8738 25.3133C40.5004 25.3133 40.1738 25.1733 39.8938 24.8933C39.6093 24.6089 39.4671 24.28 39.4671 23.9067C39.4671 23.5333 39.6093 23.2044 39.8938 22.92C40.1738 22.64 40.5004 22.5 40.8738 22.5C41.2515 22.5 41.5804 22.64 41.8604 22.92C42.1404 23.2044 42.2804 23.5333 42.2804 23.9067ZM42.2804 29.5333C42.2804 29.9067 42.1404 30.2333 41.8604 30.5133C41.5804 30.7978 41.2515 30.94 40.8738 30.94C40.5004 30.94 40.1738 30.7978 39.8938 30.5133C39.6093 30.2333 39.4671 29.9067 39.4671 29.5333C39.4671 29.1556 39.6093 28.8267 39.8938 28.5467C40.1738 28.2667 40.5004 28.1267 40.8738 28.1267C41.2515 28.1267 41.5804 28.2667 41.8604 28.5467C42.1404 28.8267 42.2804 29.1556 42.2804 29.5333ZM42.2804 35.1533C42.2804 35.5311 42.1404 35.86 41.8604 36.14C41.5804 36.42 41.2515 36.56 40.8738 36.56C40.5004 36.56 40.1738 36.42 39.8938 36.14C39.6093 35.86 39.4671 35.5311 39.4671 35.1533C39.4671 34.78 39.6093 34.4533 39.8938 34.1733C40.1738 33.8933 40.5004 33.7533 40.8738 33.7533C41.2515 33.7533 41.5804 33.8933 41.8604 34.1733C42.1404 34.4533 42.2804 34.78 42.2804 35.1533ZM46.5004 11.2533H36.6538V1.40667C36.6538 1.03333 36.5138 0.704444 36.2337 0.42C35.9538 0.14 35.6271 0 35.2538 0H12.7537C12.376 0 12.0471 0.14 11.7671 0.42C11.4871 0.704444 11.3471 1.03333 11.3471 1.40667V11.2533H1.50042C1.12708 11.2533 0.798194 11.3933 0.51375 11.6733C0.23375 11.9533 0.09375 12.28 0.09375 12.6533V46.5933C0.09375 46.9667 0.23375 47.2956 0.51375 47.58C0.798194 47.86 1.12708 48 1.50042 48H46.5004C46.8738 48 47.2026 47.86 47.4871 47.58C47.7671 47.2956 47.9071 46.9667 47.9071 46.5933V12.6533C47.9071 12.28 47.7671 11.9533 47.4871 11.6733C47.2026 11.3933 46.8738 11.2533 46.5004 11.2533ZM11.3471 14.06V45.1867H8.53375V40.78C8.53375 40.4067 8.39153 40.08 8.10708 39.8C7.82708 39.5156 7.50042 39.3733 7.12708 39.3733C6.74931 39.3733 6.42042 39.5156 6.14042 39.8C5.86042 40.08 5.72042 40.4067 5.72042 40.78V45.1867H2.90708V14.06H11.3471ZM22.5938 42.1867V45.1867H19.7804V42.1867H22.5938ZM28.2204 42.1867V45.1867H25.4071V42.1867H28.2204ZM33.8471 2.81333V45.1867H31.0338V40.78C31.0338 40.4067 30.8915 40.08 30.6071 39.8C30.3271 39.5156 30.0004 39.3733 29.6271 39.3733H18.3738C18.0004 39.3733 17.6738 39.5156 17.3938 39.8C17.1093 40.08 16.9671 40.4067 16.9671 40.78V45.1867H14.1538V2.81333H33.8471ZM45.0938 14.06V45.1867H42.2804V40.78C42.2804 40.4067 42.1404 40.08 41.8604 39.8C41.5804 39.5156 41.2515 39.3733 40.8738 39.3733C40.5004 39.3733 40.1738 39.5156 39.8938 39.8C39.6093 40.08 39.4671 40.4067 39.4671 40.78V45.1867H36.6538V14.06H45.0938ZM8.53375 18.28C8.53375 18.6578 8.39153 18.9867 8.10708 19.2667C7.82708 19.5467 7.50042 19.6867 7.12708 19.6867C6.74931 19.6867 6.42042 19.5467 6.14042 19.2667C5.86042 18.9867 5.72042 18.6578 5.72042 18.28C5.72042 17.9067 5.86042 17.58 6.14042 17.3C6.42042 17.0156 6.74931 16.8733 7.12708 16.8733C7.50042 16.8733 7.82708 17.0156 8.10708 17.3C8.39153 17.58 8.53375 17.9067 8.53375 18.28ZM8.53375 23.9067C8.53375 24.28 8.39153 24.6089 8.10708 24.8933C7.82708 25.1733 7.50042 25.3133 7.12708 25.3133C6.74931 25.3133 6.42042 25.1733 6.14042 24.8933C5.86042 24.6089 5.72042 24.28 5.72042 23.9067C5.72042 23.5333 5.86042 23.2044 6.14042 22.92C6.42042 22.64 6.74931 22.5 7.12708 22.5C7.50042 22.5 7.82708 22.64 8.10708 22.92C8.39153 23.2044 8.53375 23.5333 8.53375 23.9067ZM8.53375 29.5333C8.53375 29.9067 8.39153 30.2333 8.10708 30.5133C7.82708 30.7978 7.50042 30.94 7.12708 30.94C6.74931 30.94 6.42042 30.7978 6.14042 30.5133C5.86042 30.2333 5.72042 29.9067 5.72042 29.5333C5.72042 29.1556 5.86042 28.8267 6.14042 28.5467C6.42042 28.2667 6.74931 28.1267 7.12708 28.1267C7.50042 28.1267 7.82708 28.2667 8.10708 28.5467C8.39153 28.8267 8.53375 29.1556 8.53375 29.5333ZM8.53375 35.1533C8.53375 35.5311 8.39153 35.86 8.10708 36.14C7.82708 36.42 7.50042 36.56 7.12708 36.56C6.74931 36.56 6.42042 36.42 6.14042 36.14C5.86042 35.86 5.72042 35.5311 5.72042 35.1533C5.72042 34.78 5.86042 34.4533 6.14042 34.1733C6.42042 33.8933 6.74931 33.7533 7.12708 33.7533C7.50042 33.7533 7.82708 33.8933 8.10708 34.1733C8.39153 34.4533 8.53375 34.78 8.53375 35.1533Z" fill="#6610F2"/>
</svg>
