<svg width="63" height="64" viewBox="0 0 63 64" fill="none" xmlns="http://www.w3.org/2000/svg">
<g clip-path="url(#clip0_2003_3652)">
<path d="M61.3321 24.7302C60.8286 24.7302 60.4211 24.3221 60.4211 23.8192C60.4211 23.3156 60.8286 22.9082 61.3321 22.9082C61.835 22.9082 62.2432 23.3156 62.2432 23.8192C62.2432 24.3221 61.835 24.7302 61.3321 24.7302ZM52.2842 40.2961C51.7806 40.2961 51.3731 39.8879 51.3731 39.385C51.3731 38.8815 51.7806 38.474 52.2842 38.474C52.787 38.474 53.1945 38.8815 53.1945 39.385C53.1945 39.8879 52.787 40.2961 52.2842 40.2961ZM61.3321 22.1514C60.4111 22.1514 59.6643 22.8981 59.6643 23.8192C59.6643 24.0158 59.7138 24.1987 59.7762 24.3737L51.952 37.7839C51.1959 37.9424 50.6163 38.5816 50.6163 39.385C50.6163 40.3061 51.3631 41.0529 52.2842 41.0529C53.2045 41.0529 53.9513 40.3061 53.9513 39.385C53.9513 39.2 53.9018 39.0307 53.8466 38.8642L61.7102 25.4103C62.4433 25.2345 63 24.6061 63 23.8192C63 22.8981 62.2532 22.1514 61.3321 22.1514Z" fill="white"/>
<path d="M54.508 24.7302C54.0044 24.7302 53.5969 24.3221 53.5969 23.8192C53.5969 23.3156 54.0044 22.9082 54.508 22.9082C55.0108 22.9082 55.4183 23.3156 55.4183 23.8192C55.4183 24.3221 55.0108 24.7302 54.508 24.7302ZM45.4593 40.2961C44.9564 40.2961 44.5482 39.8879 44.5482 39.385C44.5482 38.8815 44.9564 38.474 45.4593 38.474C45.9629 38.474 46.3703 38.8815 46.3703 39.385C46.3703 39.8879 45.9629 40.2961 45.4593 40.2961ZM54.508 22.1514C53.5862 22.1514 52.8401 22.8981 52.8401 23.8192C52.8401 24.0158 52.8896 24.1987 52.952 24.3737L45.1279 37.7839C44.3711 37.9424 43.7914 38.5816 43.7914 39.385C43.7914 40.3061 44.5382 41.0529 45.4593 41.0529C46.3804 41.0529 47.1271 40.3061 47.1271 39.385C47.1271 39.2 47.0776 39.0307 47.0224 38.8642L54.886 25.4103C55.6191 25.2345 56.1758 24.6061 56.1758 23.8192C56.1758 22.8981 55.4283 22.1514 54.508 22.1514Z" fill="white"/>
<path d="M42.0461 27.5186C42.549 27.5186 42.9572 27.9268 42.9572 28.4297C42.9572 28.9325 42.549 29.3407 42.0461 29.3407C41.5426 29.3407 41.1351 28.9325 41.1351 28.4297C41.1351 27.9268 41.5426 27.5186 42.0461 27.5186ZM42.0461 30.0975C42.9672 30.0975 43.714 29.3508 43.714 28.4297C43.714 28.2453 43.6638 28.0753 43.6085 27.9089C43.3876 27.2468 42.7821 26.7618 42.0461 26.7618C41.9285 26.7618 41.8252 26.8056 41.714 26.8293C40.9579 26.9871 40.3783 27.6262 40.3783 28.4297C40.3783 29.3508 41.1251 30.0975 42.0461 30.0975Z" fill="white"/>
<path d="M41.1351 34.2574C41.1351 33.7539 41.5433 33.3464 42.0461 33.3464C42.549 33.3464 42.9572 33.7539 42.9572 34.2574C42.9572 34.7603 42.549 35.1678 42.0461 35.1678C41.5433 35.1678 41.1351 34.7603 41.1351 34.2574ZM43.714 34.2574C43.714 34.0724 43.6638 33.9031 43.6085 33.7366C43.3876 33.0745 42.7829 32.5896 42.0461 32.5896C41.9285 32.5896 41.8252 32.6334 41.714 32.6563C40.9579 32.8148 40.3783 33.454 40.3783 34.2574C40.3783 35.1778 41.1251 35.9253 42.0461 35.9253C42.9672 35.9253 43.714 35.1778 43.714 34.2574Z" fill="white"/>
</g>
<defs>
<clipPath id="clip0_2003_3652">
<rect width="63" height="63" fill="white" transform="translate(0 0.102173)"/>
</clipPath>
</defs>
</svg>
