<svg width="56" height="57" viewBox="0 0 56 57" fill="none" xmlns="http://www.w3.org/2000/svg">
<path d="M35.7622 49.8299V46.5445H39.0444V49.8299H35.7622ZM23.5122 49.8299V46.5445H32.4878V49.8299H23.5122ZM23.5122 36.6882V33.4105H32.4878V36.6882H23.5122ZM35.7622 36.6882V33.4105H39.0444V36.6882H35.7622ZM16.9556 49.8299V46.5445H20.2378V49.8299H16.9556ZM16.9556 36.6882V33.4105H20.2378V36.6882H16.9556ZM47.6856 15.8311C47.2137 13.1685 45.9381 10.9523 43.8589 9.18242C41.7796 7.41254 39.3556 6.5276 36.5867 6.5276C35.8919 6.5276 35.2256 6.5821 34.5878 6.69109C33.95 6.80009 33.3226 6.96618 32.7056 7.18936H32.76C31.5207 5.10807 29.833 3.44718 27.6967 2.20671C25.5656 0.966244 23.2244 0.346008 20.6733 0.346008C18.703 0.346008 16.8622 0.709326 15.1511 1.43596C13.4348 2.20412 11.9389 3.2266 10.6633 4.5034C9.38778 5.7802 8.3663 7.27759 7.59889 8.99557C6.87296 10.7447 6.51 12.5872 6.51 14.5232C6.51 14.8502 6.51778 15.159 6.53333 15.4496C6.55407 15.7455 6.58259 16.0387 6.61889 16.3294V16.2749C4.68481 16.9652 3.09815 18.159 1.85889 19.8562C0.61963 21.5534 0 23.4608 0 25.5784C0 28.3137 0.967037 30.6493 2.90111 32.5853C4.83 34.5212 7.14518 35.4892 9.84667 35.4892H10.3911V56.4007H45.6089V35.4892H46.1533C48.8911 35.4892 51.2167 34.5212 53.13 32.5853C55.0433 30.6493 56 28.3137 56 25.5784C56 23.1338 55.2067 20.998 53.62 19.1711C52.0333 17.3493 50.0733 16.236 47.74 15.8311H47.6856ZM42.3267 30.1251V39.9736H13.6733V30.1251H42.3267ZM42.3267 53.1153H13.6733V43.259H42.3267V53.1153ZM46.1533 32.1493V32.2038H45.6089V26.8397H10.3911V32.2038H9.84667C8.02148 32.2038 6.47111 31.555 5.19556 30.2574C3.92 28.9651 3.28222 27.4054 3.28222 25.5784C3.28222 23.9746 3.80074 22.5603 4.83778 21.3354C5.88 20.1157 7.18407 19.3761 8.75 19.1166L10.5 18.7896L10.1189 17.0924C10.01 16.729 9.92704 16.3372 9.87 15.9168C9.81815 15.4964 9.79222 15.05 9.79222 14.5777C9.79222 13.0777 10.0826 11.6711 10.6633 10.358C11.2493 9.00854 12.0322 7.84073 13.0122 6.85459C13.9974 5.87363 15.1459 5.10807 16.4578 4.5579C17.7748 3.97659 19.1981 3.68594 20.7278 3.68594C22.8796 3.68594 24.8293 4.25946 26.5767 5.40651C28.3293 6.55874 29.6411 8.06392 30.5122 9.92203L30.5667 9.97652L31.2822 11.5102L32.8144 10.6928C33.3589 10.3969 33.95 10.1686 34.5878 10.0077C35.2256 9.84158 35.8919 9.75853 36.5867 9.75853C38.7385 9.75853 40.5793 10.5059 42.1089 12.0007C43.6385 13.5007 44.4578 15.3069 44.5667 17.4193L44.6289 19.0076H46.2078C47.9967 19.0076 49.5393 19.646 50.8356 20.9228C52.1267 22.1996 52.7722 23.7515 52.7722 25.5784C52.7722 27.4054 52.1267 28.9573 50.8356 30.2341C49.5393 31.5109 47.9785 32.1493 46.1533 32.1493Z" fill="#6A6377"/>
</svg>
