<svg width="16" height="17" viewBox="0 0 16 17" fill="none" xmlns="http://www.w3.org/2000/svg">
<g clip-path="url(#clip0_120_577)">
<path d="M2.41787 16.8198H13.5823C14.7527 16.8198 15.7038 15.8687 15.7038 14.6983V4.12648C15.7038 2.95611 14.7527 2.00499 13.5823 2.00499H12.7408V1.41241C12.7408 1.08648 12.4741 0.819824 12.1482 0.819824C11.8223 0.819824 11.5556 1.08648 11.5556 1.41241V2.00499H4.44456V1.41241C4.44456 1.08648 4.17786 0.819824 3.85193 0.819824C3.526 0.819824 3.25934 1.08648 3.25934 1.41241V2.00499H2.41787C1.24751 2.00499 0.296387 2.95611 0.296387 4.12648V14.6983C0.296387 15.8687 1.24751 16.8198 2.41787 16.8198ZM1.4816 4.12648C1.4816 3.61094 1.90233 3.1902 2.41787 3.1902H3.25934V3.78278C3.25934 4.10871 3.526 4.37536 3.85193 4.37536C4.17786 4.37536 4.44451 4.10871 4.44451 3.78278V3.1902H11.5556V3.78278C11.5556 4.10871 11.8223 4.37536 12.1482 4.37536C12.4741 4.37536 12.7408 4.10871 12.7408 3.78278V3.1902H13.5823C14.0978 3.1902 14.5185 3.61094 14.5185 4.12648V5.85687H1.4816V4.12648ZM1.4816 7.04203H14.5186V14.6983C14.5186 15.2139 14.0979 15.6346 13.5824 15.6346H2.41787C1.90233 15.6346 1.4816 15.2139 1.4816 14.6983V7.04203Z" fill="#6A6377"/>
</g>
<defs>
<clipPath id="clip0_120_577">
<rect width="16" height="16" fill="white" transform="translate(0 0.819824)"/>
</clipPath>
</defs>
</svg>
