<svg width="43" height="39" viewBox="0 0 43 39" fill="none" xmlns="http://www.w3.org/2000/svg">
<path d="M29.4773 32.9249H42.9975V0.561035H0V32.9249H13.5203V35.5688H10.9787V38.1813H32.0189V35.5688H29.4773V32.9249ZM2.50491 3.16833H40.4926V23.337H2.50491V3.16833ZM2.50491 30.3176V25.9443H40.4926V30.3176H2.50491ZM26.9724 32.9249V35.5688H16.0304V32.9249H26.9724ZM15.8784 20.3587L17.9432 18.7442L13.5989 13.2683L17.9432 7.76114L15.8784 6.14138L10.2817 13.2683L15.8784 20.3587ZM25.0911 18.7442L27.1191 20.3587L32.7578 13.2683L27.1191 6.14138L25.0911 7.76114L29.4039 13.2318L25.0911 18.7442ZM20.1913 20.3221V6.17795H22.8063V20.3221H20.1913Z" fill="#6A6377"/>
</svg>
