<svg width="48" height="48" viewBox="0 0 48 48" fill="none" xmlns="http://www.w3.org/2000/svg">
<path d="M25.3989 0C23.8343 0 22.4897 0.562268 21.3652 1.6868C20.2406 2.81134 19.6783 4.15589 19.6783 5.72046C19.6783 7.28059 20.2406 8.62514 21.3652 9.75412C22.4897 10.8787 23.8343 11.4409 25.3989 11.4409C26.9635 11.4409 28.2926 10.8787 29.386 9.75412C30.4795 8.62514 31.0262 7.28059 31.0262 5.72046C31.0262 4.15589 30.4795 2.81134 29.386 1.6868C28.2926 0.562268 26.9635 0 25.3989 0ZM31.6329 11.4409C30.8817 12.281 29.9683 12.9588 28.8926 13.4744C27.8125 13.9945 26.648 14.2545 25.3989 14.2545C24.1499 14.2545 22.9787 13.9945 21.8852 13.4744C20.7918 12.9588 19.8539 12.281 19.0716 11.4409C18.3826 12.1877 17.8426 13.0388 17.4514 13.9945C17.0603 14.9457 16.8647 15.968 16.8647 17.0614V18.4682C16.8647 18.846 17.007 19.1749 17.2914 19.4549C17.5715 19.7349 17.8982 19.8749 18.2715 19.8749H32.433C32.8064 19.8749 33.1331 19.7349 33.4131 19.4549C33.6976 19.1749 33.8398 18.846 33.8398 18.4682V17.0614C33.8398 15.968 33.6442 14.9457 33.2531 13.9945C32.8619 13.0388 32.3219 12.1877 31.6329 11.4409ZM13.5844 43.1768L6.4103 28.7823C6.06804 28.0978 5.5302 27.6289 4.79679 27.3756C4.05894 27.1266 3.34775 27.1733 2.66324 27.5156L0.789712 28.4556C0.443009 28.6423 0.207429 28.9157 0.0829716 29.2757C-0.0414858 29.6357 -0.0259286 29.9869 0.129643 30.3291L8.57052 47.2038C8.75721 47.5816 9.03057 47.8239 9.3906 47.9305C9.75064 48.0417 10.1018 48.0194 10.444 47.8639L12.3176 46.9238C13.0065 46.5816 13.4755 46.0437 13.7244 45.3103C13.9733 44.5725 13.9266 43.8613 13.5844 43.1768ZM46.8212 23.2019C46.2611 22.7974 45.6277 22.6352 44.921 22.7152C44.2187 22.7907 43.6186 23.0796 43.1208 23.5819L35.4333 33.0493C35.1799 33.3294 34.8355 33.5472 34.3999 33.7027C33.9643 33.8627 33.6198 33.9427 33.3664 33.9427H26.8057C26.3968 33.9427 26.0612 33.8094 25.799 33.5427C25.5323 33.276 25.3989 32.9404 25.3989 32.536C25.3989 32.127 25.5323 31.7915 25.799 31.5292C26.0612 31.2625 26.3968 31.1292 26.8057 31.1292C27.7436 31.1292 28.7126 31.1292 29.7127 31.1292C30.7128 31.1292 31.6196 31.1292 32.433 31.1292C33.2109 31.1292 33.8731 30.8558 34.4199 30.3091C34.971 29.7624 35.2466 29.0979 35.2466 28.3156C35.2466 27.5333 34.971 26.8688 34.4199 26.3221C33.8731 25.7754 33.2109 25.5021 32.433 25.5021C29.1171 25.5021 27.9436 25.5021 28.9126 25.5021C29.8816 25.5021 28.6015 25.5021 25.0722 25.5021C24.7255 25.5021 24.4433 25.4087 24.2255 25.222C24.0077 25.0354 23.7588 24.8153 23.4787 24.562C22.3853 23.593 21.0651 22.8974 19.5183 22.4752C17.9671 22.0573 16.3647 22.0507 14.7112 22.4552C13.8044 22.6418 13.0154 22.9241 12.3442 23.3019C11.6731 23.6753 11.0241 24.1108 10.3974 24.6087L10.3507 24.562L8.33716 26.3488L16.3513 42.3768H32.433C33.7442 42.3768 35.0022 42.0812 36.2067 41.49C37.4068 40.8944 38.3981 40.0655 39.1804 39.0032L47.4346 27.1889C47.9013 26.5666 48.0791 25.8643 47.9679 25.082C47.8613 24.2997 47.479 23.673 46.8212 23.2019Z" fill="#6610F2"/>
</svg>
