<svg width="25" height="24" viewBox="0 0 25 24" fill="none" xmlns="http://www.w3.org/2000/svg">
<g clip-path="url(#clip0_114_1799)">
<path d="M20.6608 12.8119H18.8047C18.9939 13.3299 19.0972 13.8888 19.0972 14.4715V21.4863C19.0972 21.7292 19.055 21.9624 18.978 22.1792H22.0465C23.1928 22.1792 24.1252 21.2467 24.1252 20.1005V16.2764C24.1253 14.3661 22.5711 12.8119 20.6608 12.8119Z" fill="#6610F2"/>
<path d="M5.15306 14.4715C5.15306 13.8889 5.25642 13.3299 5.4456 12.812H3.58954C1.67919 12.812 0.125 14.3661 0.125 16.2765V20.1006C0.125 21.2468 1.05749 22.1793 2.20372 22.1793H5.27226C5.19534 21.9624 5.15306 21.7293 5.15306 21.4864V14.4715Z" fill="#6610F2"/>
<path d="M14.2468 11.007H10.0036C8.09325 11.007 6.53906 12.5611 6.53906 14.4715V21.4864C6.53906 21.869 6.84928 22.1793 7.23197 22.1793H17.0185C17.4011 22.1793 17.7114 21.869 17.7114 21.4864V14.4715C17.7114 12.5611 16.1572 11.007 14.2468 11.007Z" fill="#6610F2"/>
<path d="M12.1255 1.82062C9.82808 1.82062 7.95898 3.68971 7.95898 5.9872C7.95898 7.54557 8.8191 8.90658 10.0893 9.62115C10.6918 9.96006 11.3864 10.1537 12.1255 10.1537C12.8647 10.1537 13.5592 9.96006 14.1617 9.62115C15.432 8.90658 16.2921 7.54552 16.2921 5.9872C16.2921 3.68976 14.423 1.82062 12.1255 1.82062Z" fill="#6610F2"/>
<path d="M4.80938 5.70416C3.09117 5.70416 1.69336 7.10198 1.69336 8.82018C1.69336 10.5384 3.09117 11.9362 4.80938 11.9362C5.24523 11.9362 5.66026 11.8459 6.03727 11.6836C6.68912 11.403 7.22659 10.9062 7.55917 10.284C7.79261 9.84722 7.9254 9.34898 7.9254 8.82018C7.9254 7.10202 6.52759 5.70416 4.80938 5.70416Z" fill="#6610F2"/>
<path d="M19.4422 5.70416C17.724 5.70416 16.3262 7.10198 16.3262 8.82018C16.3262 9.34903 16.459 9.84726 16.6924 10.284C17.025 10.9063 17.5625 11.403 18.2143 11.6836C18.5913 11.8459 19.0063 11.9362 19.4422 11.9362C21.1604 11.9362 22.5582 10.5384 22.5582 8.82018C22.5582 7.10198 21.1604 5.70416 19.4422 5.70416Z" fill="#6610F2"/>
</g>
<defs>
<clipPath id="clip0_114_1799">
<rect width="24" height="24" fill="white" transform="translate(0.125)"/>
</clipPath>
</defs>
</svg>
