<svg width="15" height="15" viewBox="0 0 15 15" fill="none" xmlns="http://www.w3.org/2000/svg">
<path d="M7.87207 14.5371C11.6865 14.5371 14.8447 11.3721 14.8447 7.56445C14.8447 3.75 11.6797 0.591797 7.86523 0.591797C4.05762 0.591797 0.899414 3.75 0.899414 7.56445C0.899414 11.3721 4.06445 14.5371 7.87207 14.5371ZM7.81055 5.06934C7.29785 5.06934 6.8877 4.65918 6.8877 4.13965C6.8877 3.62012 7.29785 3.20996 7.81055 3.20996C8.32324 3.20996 8.72656 3.62012 8.72656 4.13965C8.72656 4.65918 8.32324 5.06934 7.81055 5.06934ZM6.6416 11.4541C6.34766 11.4541 6.12207 11.2422 6.12207 10.9482C6.12207 10.6748 6.34766 10.4492 6.6416 10.4492H7.50977V7.23633H6.75781C6.4707 7.23633 6.24512 7.02441 6.24512 6.73047C6.24512 6.45703 6.4707 6.23145 6.75781 6.23145H8.08398C8.44629 6.23145 8.6377 6.49121 8.6377 6.87402V10.4492H9.50586C9.7998 10.4492 10.0254 10.6748 10.0254 10.9482C10.0254 11.2422 9.7998 11.4541 9.50586 11.4541H6.6416Z" fill="#698096"/>
</svg>
