<svg width="14" height="14" viewBox="0 0 14 14" fill="none" xmlns="http://www.w3.org/2000/svg">
<path d="M7 0C3.12924 0 0 3.12924 0 7C0 10.8708 3.12924 14 7 14C10.8708 14 14 10.8708 14 7C14 3.12924 10.8708 0 7 0ZM4.88712 0.953374C4.51779 1.47157 4.20286 2.0184 3.93947 2.591H2.35051C3.04335 1.85808 3.91084 1.29121 4.88712 0.953374ZM1.84949 3.1865H3.68753C3.25521 4.3002 3.01759 5.48834 2.98323 6.70225H0.60409C0.664213 5.38814 1.11656 4.1771 1.84949 3.1865ZM1.84949 10.8135C1.11656 9.8229 0.664213 8.61186 0.60409 7.29775H2.98323C3.01759 8.51166 3.2638 9.6998 3.69898 10.8135H1.84949ZM2.35051 11.409H3.95378C4.22004 11.9816 4.53497 12.5342 4.89857 13.0524C3.91943 12.7145 3.04622 12.1448 2.35051 11.409ZM6.70225 13.3988C6.4045 13.3845 6.10961 13.3501 5.82331 13.2986C5.34806 12.7117 4.94151 12.0789 4.61227 11.4119H6.70225V13.3988ZM6.70225 10.8135H4.34029C3.87935 9.70266 3.61595 8.51452 3.57873 7.29775H6.70225V10.8135ZM6.70225 6.70225H3.57873C3.61595 5.48834 3.87648 4.29734 4.33456 3.1865H6.70225V6.70225ZM6.70511 2.591H6.70225H4.60654C4.93865 1.9182 5.34519 1.28548 5.82331 0.704295C6.10961 0.649898 6.4045 0.618405 6.70511 0.60409V2.591ZM12.1505 3.1865C12.8834 4.1771 13.3386 5.38528 13.3959 6.70225H11.0168C10.9824 5.48834 10.7362 4.3002 10.301 3.1865H12.1505ZM11.6495 2.591H10.0462C9.77996 2.0184 9.46503 1.46585 9.09857 0.947648C10.0806 1.28548 10.9538 1.85521 11.6495 2.591ZM7.29775 0.60409C7.5955 0.618405 7.89039 0.652761 8.17669 0.704295C8.65194 1.29121 9.05849 1.92393 9.38773 2.591H7.29775V0.60409ZM7.29775 3.1865H9.65971C10.1207 4.29448 10.384 5.48548 10.4213 6.70225H7.29775V3.1865ZM7.29775 7.29775H10.4213C10.384 8.51166 10.1235 9.70266 9.66544 10.8135H7.29775V7.29775ZM7.29489 13.3959V11.409H7.29775H9.39346C9.06135 12.0818 8.65481 12.7145 8.17669 13.2957C7.89039 13.3501 7.5955 13.3816 7.29489 13.3959ZM9.09857 13.0524C9.46217 12.5342 9.7771 11.9816 10.0405 11.409H11.6524C10.9538 12.1448 10.0806 12.7145 9.09857 13.0524ZM10.2924 10.8135C10.7219 9.6998 10.9652 8.51166 11.0139 7.29775H13.3988C13.3386 8.61186 12.8863 9.8229 12.1534 10.8135H10.2924Z" fill="#FAFAFC"/>
</svg>
