<svg width="53" height="53" viewBox="0 0 53 53" fill="none" xmlns="http://www.w3.org/2000/svg">
<path d="M30.6518 36.8745C30.5511 36.7748 30.4151 36.7188 30.2734 36.7188C30.1318 36.7188 29.9958 36.7748 29.8951 36.8745L22.1139 44.6557C18.5112 48.2584 12.4308 48.6401 8.45314 44.6557C4.46876 40.6713 4.85046 34.5977 8.45314 30.995L16.2344 23.2138C16.442 23.0062 16.442 22.6647 16.2344 22.4571L13.5692 19.7919C13.4685 19.6922 13.3326 19.6363 13.1909 19.6363C13.0492 19.6363 12.9132 19.6922 12.8125 19.7919L5.03126 27.5731C-0.633916 33.2383 -0.633916 42.4057 5.03126 48.0642C10.6964 53.7227 19.8639 53.7294 25.5223 48.0642L33.3036 40.283C33.5112 40.0754 33.5112 39.7338 33.3036 39.5263L30.6518 36.8745ZM47.9688 5.13341C42.3036 -0.531773 33.1362 -0.531773 27.4777 5.13341L19.6897 12.9147C19.59 13.0153 19.5341 13.1513 19.5341 13.293C19.5341 13.4347 19.59 13.5707 19.6897 13.6714L22.3482 16.3298C22.5558 16.5374 22.8973 16.5374 23.1049 16.3298L30.8862 8.54858C34.4889 4.94591 40.5692 4.56421 44.5469 8.54858C48.5313 12.533 48.1496 18.6066 44.5469 22.2093L36.7656 29.9905C36.6659 30.0912 36.61 30.2272 36.61 30.3689C36.61 30.5106 36.6659 30.6466 36.7656 30.7472L39.4308 33.4124C39.6384 33.62 39.9799 33.62 40.1875 33.4124L47.9688 25.6312C53.6272 19.966 53.6272 10.7986 47.9688 5.13341ZM33.0692 17.2472C32.9685 17.1475 32.8326 17.0916 32.6909 17.0916C32.5492 17.0916 32.4132 17.1475 32.3125 17.2472L17.1451 32.408C17.0454 32.5086 16.9895 32.6446 16.9895 32.7863C16.9895 32.928 17.0454 33.064 17.1451 33.1647L19.7969 35.8164C20.0045 36.024 20.346 36.024 20.5536 35.8164L35.7143 20.6557C35.9219 20.4481 35.9219 20.1066 35.7143 19.899L33.0692 17.2472Z" fill="#5886BD"/>
</svg>
