<svg width="61" height="61" viewBox="0 0 61 61" fill="none" xmlns="http://www.w3.org/2000/svg">
<g opacity="0.8">
<path d="M30.5 5.22717C29.825 5.22717 29.125 5.40217 28.55 5.72717L9.95 16.4772C8.75 17.1772 8 18.4772 8 19.8772V41.3272C8 42.7272 8.75 44.0272 9.95 44.7272L14.825 47.5272C17.2 48.6772 18 48.7022 19.1 48.7022C22.6 48.7022 24.625 46.5772 24.625 42.8772V21.7022C24.625 21.4022 24.375 21.1522 24.075 21.1522H21.75C21.425 21.1522 21.175 21.4022 21.175 21.7022V42.8772C21.175 44.5272 19.475 46.1522 16.75 44.7772L11.625 41.8522C11.5408 41.7927 11.472 41.7141 11.4242 41.6228C11.3764 41.5316 11.3509 41.4302 11.35 41.3272V19.8772C11.35 19.6522 11.45 19.4522 11.625 19.3522L30.225 8.62717C30.375 8.52717 30.625 8.52717 30.775 8.62717L49.375 19.3522C49.55 19.4522 49.65 19.6522 49.65 19.8772V41.3272C49.65 41.5272 49.55 41.7272 49.375 41.8522L30.775 52.5772C30.625 52.6772 30.375 52.6772 30.2 52.5772L25.5 49.7272C25.3 49.6522 25.1 49.6272 24.975 49.7022C23.65 50.4522 23.4 50.6022 22.175 50.9772C21.875 51.0772 21.4 51.2522 22.35 51.7772L28.55 55.4522C29.15 55.8022 29.8 55.9772 30.5 55.9772C31.2 55.9772 31.85 55.8022 32.45 55.4522L51.05 44.7272C52.25 44.0272 53 42.7272 53 41.3272V19.8772C53 18.4772 52.25 17.1772 51.05 16.4772L32.45 5.72717C31.875 5.40217 31.2 5.22717 30.5 5.22717ZM35.5 20.6022C30.2 20.6022 27.025 22.8272 27.025 26.5772C27.025 30.6022 30.175 31.7772 35.275 32.2772C41.35 32.8772 41.825 33.7772 41.825 34.9772C41.825 37.0522 40.15 37.9272 36.25 37.9272C31.3 37.9272 30.25 36.7022 29.875 34.2522C29.8487 34.1255 29.7797 34.0118 29.6796 33.9299C29.5795 33.848 29.4543 33.8029 29.325 33.8022H26.925C26.625 33.8022 26.4 34.0272 26.4 34.3522C26.4 37.4522 28.1 41.2022 36.25 41.2022C42.125 41.2022 45.5 38.8772 45.5 34.8272C45.5 30.8022 42.8 29.7522 37.075 28.9772C31.3 28.2272 30.725 27.8272 30.725 26.4772C30.725 25.3522 31.225 23.8522 35.5 23.8522C39.25 23.8522 40.725 24.6772 41.3 27.2522C41.35 27.5022 41.575 27.6772 41.825 27.6772H44.25C44.375 27.6772 44.525 27.6272 44.625 27.5022C44.725 27.4022 44.8 27.2522 44.75 27.1022C44.4 22.6522 41.45 20.6022 35.5 20.6022Z" fill="#5886BD"/>
</g>
</svg>
