<svg width="24" height="23" viewBox="0 0 24 23" fill="none" xmlns="http://www.w3.org/2000/svg">
<path fill-rule="evenodd" clip-rule="evenodd" d="M12.2513 0.575012C12.8453 0.575012 13.415 0.811072 13.8352 1.23077C14.2549 1.65093 14.491 2.22069 14.491 2.81463V3.7275C14.491 4.32145 14.2549 4.89076 13.8352 5.31091C13.415 5.73106 12.8453 5.96712 12.2513 5.96712C11.6574 5.96712 11.0876 5.73106 10.6675 5.31091C10.2478 4.89076 10.0117 4.32145 10.0117 3.7275V2.81463C10.0117 2.22069 10.2478 1.65093 10.6675 1.23077C11.0876 0.811072 11.6574 0.575012 12.2513 0.575012Z" fill="#332F3B"/>
<path fill-rule="evenodd" clip-rule="evenodd" d="M14.9364 14.9035C14.9364 14.9035 14.6173 19.3808 14.4712 21.4264C14.4314 21.9883 13.9636 22.4239 13.4001 22.4239C12.7093 22.4245 11.7934 22.4245 11.1026 22.425C10.5385 22.425 10.0707 21.9894 10.0304 21.4269C9.88427 19.3814 9.56465 14.9035 9.56465 14.9035H9.02747C8.74277 14.9035 8.46935 14.7902 8.26791 14.5887C8.06647 14.3873 7.95312 14.1139 7.95312 13.8291C7.95312 12.4894 7.95312 10.1678 7.95312 8.45741C7.95312 7.27079 8.9152 6.30872 10.1018 6.30872H14.3992C14.9692 6.30872 15.5155 6.53487 15.9183 6.93828C16.3218 7.34116 16.5479 7.88747 16.5479 8.45741V13.8291C16.5479 14.1139 16.4346 14.3873 16.2331 14.5887C16.0317 14.7902 15.7583 14.9035 15.4736 14.9035C15.1776 14.9035 14.9364 14.9035 14.9364 14.9035Z" fill="#332F3B"/>
</svg>
