<svg width="61" height="31" viewBox="0 0 61 31" fill="none" xmlns="http://www.w3.org/2000/svg">
<path d="M30.5 30.8022C13.925 30.8022 0.5 24.0022 0.5 15.6022C0.5 7.20222 13.925 0.402222 30.5 0.402222C47.075 0.402222 60.5 7.20222 60.5 15.6022C60.5 24.0022 47.075 30.8022 30.5 30.8022ZM17.525 10.9272C18.875 10.9272 19.8 11.1772 20.25 11.7022C20.7 12.2022 20.8 13.1022 20.575 14.2772C20.325 15.6022 19.85 16.4522 19.125 17.0022C18.425 17.5522 17.35 17.8272 15.9 17.8272H13.725L15.05 10.9272H17.525ZM8.775 24.8022H12.375L13.225 20.4272H16.3C17.65 20.4272 18.75 20.2772 19.625 20.0022C20.5 19.7022 21.3 19.2272 22.025 18.5522C22.625 18.0022 23.1 17.4022 23.475 16.7272C23.85 16.0772 24.125 15.3272 24.25 14.5272C24.65 12.5772 24.375 11.0522 23.425 9.97722C22.45 8.87722 20.95 8.35222 18.875 8.35222H11.975L8.775 24.8022ZM26.9 3.97722L23.7 20.4272H27.25L29.1 11.0022H31.95C32.85 11.0022 33.45 11.1522 33.725 11.4522C34 11.7522 34.05 12.3022 33.9 13.1022L32.475 20.4272H36.1L37.575 12.7522C37.9 11.2022 37.65 10.0772 36.9 9.35222C36.15 8.67722 34.775 8.35222 32.775 8.35222H29.6L30.5 3.97722H26.9ZM45.5 10.9272C46.875 10.9272 47.775 11.1772 48.225 11.7022C48.675 12.2022 48.775 13.1022 48.55 14.2772C48.3 15.6022 47.825 16.4522 47.125 17.0022C46.4 17.5522 45.325 17.8272 43.875 17.8272H41.75L43 10.9272H45.5ZM36.75 24.8022H40.35L41.2 20.4272H44.25C45.625 20.4272 46.75 20.2772 47.625 20.0022C48.5 19.7022 49.25 19.2272 50 18.5522C50.6 18.0022 51.1 17.4022 51.45 16.7272C51.825 16.0772 52.1 15.3272 52.25 14.5272C52.625 12.5772 52.35 11.0522 51.4 9.97722C50.5 8.87722 48.925 8.35222 46.85 8.35222H39.975L36.75 24.8022Z" fill="#5886BD"/>
</svg>
