<svg width="51" height="51" viewBox="0 0 51 51" fill="none" xmlns="http://www.w3.org/2000/svg">
<path d="M43.35 13.3522C45.2463 13.3522 47.0649 14.1055 48.4058 15.4464C49.7467 16.7872 50.5 18.6059 50.5 20.5022V29.9522C50.5 31.8485 49.7467 33.6671 48.4058 35.008C47.0649 36.3489 45.2463 37.1022 43.35 37.1022H25.5C25.5 38.0772 26.3 39.5022 27.275 39.5022H38V43.7022C38 45.5985 37.2467 47.4171 35.9058 48.758C34.5649 50.0989 32.7463 50.8522 30.85 50.8522H20.15C18.2537 50.8522 16.4351 50.0989 15.0942 48.758C13.7533 47.4171 13 45.5985 13 43.7022V34.3272C13 33.3894 13.1851 32.4608 13.5447 31.5948C13.9044 30.7287 14.4314 29.9421 15.0957 29.2802C15.76 28.6182 16.5484 28.0939 17.4157 27.7373C18.283 27.3807 19.2122 27.1989 20.15 27.2022H33.275C34.2128 27.2022 35.1413 27.0171 36.0074 26.6574C36.8735 26.2978 37.6601 25.7707 38.322 25.1065C38.9839 24.4422 39.5082 23.6538 39.8648 22.7865C40.2214 21.9191 40.4033 20.9899 40.4 20.0522V13.3522H43.35ZM32.65 42.8272C31.65 42.8272 30.85 43.5772 30.85 45.0522C30.85 46.5272 31.65 46.8272 32.65 46.8272C32.8831 46.8272 33.1139 46.7813 33.3293 46.6921C33.5446 46.6029 33.7403 46.4721 33.9051 46.3073C34.0699 46.1425 34.2007 45.9468 34.2899 45.7314C34.3791 45.5161 34.425 45.2853 34.425 45.0522C34.425 43.5772 33.625 42.8272 32.65 42.8272ZM7.65 38.3522C6.71105 38.3522 5.78129 38.1672 4.91381 37.8079C4.04634 37.4486 3.25813 36.9219 2.59419 36.258C1.93025 35.594 1.40358 34.8058 1.04426 33.9384C0.68494 33.0709 0.5 32.1411 0.5 31.2022V21.7522C0.5 19.8559 1.2533 18.0372 2.59419 16.6964C3.93507 15.3555 5.7537 14.6022 7.65 14.6022H25.5C25.5 13.6272 24.7 12.2022 23.725 12.2022H13V8.00217C13 6.10588 13.7533 4.28725 15.0942 2.94636C16.4351 1.60547 18.2537 0.852173 20.15 0.852173H30.85C32.7463 0.852173 34.5649 1.60547 35.9058 2.94636C37.2467 4.28725 38 6.10588 38 8.00217V17.3772C38 18.3149 37.8149 19.2435 37.4553 20.1096C37.0956 20.9757 36.5686 21.7622 35.9043 22.4242C35.24 23.0861 34.4516 23.6104 33.5843 23.967C32.717 24.3236 31.7878 24.5055 30.85 24.5022H17.725C16.7872 24.5022 15.8587 24.6873 14.9926 25.0469C14.1265 25.4065 13.34 25.9336 12.678 26.5979C12.0161 27.2621 11.4918 28.0505 11.1352 28.9179C10.7786 29.7852 10.5967 30.7144 10.6 31.6522V38.3522H7.65ZM18.35 8.87717C19.35 8.87717 20.15 8.12717 20.15 6.65217C20.15 5.17717 19.35 4.87717 18.35 4.87717C17.375 4.87717 16.575 5.17717 16.575 6.65217C16.575 8.12717 17.375 8.87717 18.35 8.87717Z" fill="#5886BD"/>
</svg>
