<svg width="21" height="20" viewBox="0 0 21 20" fill="none" xmlns="http://www.w3.org/2000/svg">
<path d="M8.92503 0C4.06865 0 0.117432 3.95122 0.117432 8.8076C0.117432 13.6643 4.06865 17.6152 8.92503 17.6152C13.7817 17.6152 17.7326 13.6643 17.7326 8.8076C17.7326 3.95122 13.7817 0 8.92503 0ZM8.92503 15.9892C4.96514 15.9892 1.74345 12.7675 1.74345 8.80764C1.74345 4.84775 4.96514 1.62602 8.92503 1.62602C12.8849 1.62602 16.1066 4.84771 16.1066 8.8076C16.1066 12.7675 12.8849 15.9892 8.92503 15.9892Z" fill="white"/>
<path d="M19.8792 18.6119L15.2179 13.9506C14.9003 13.633 14.3859 13.633 14.0683 13.9506C13.7507 14.268 13.7507 14.7829 14.0683 15.1002L18.7296 19.7615C18.8883 19.9203 19.0962 19.9997 19.3044 19.9997C19.5122 19.9997 19.7203 19.9203 19.8792 19.7615C20.1968 19.4441 20.1968 18.9292 19.8792 18.6119Z" fill="white"/>
</svg>
