<svg width="56" height="57" viewBox="0 0 56 57" fill="none" xmlns="http://www.w3.org/2000/svg">
<path d="M28 0.346008C24.137 0.346008 20.51 1.07524 17.1189 2.5337C13.6915 3.99216 10.71 5.99041 8.17445 8.52844C5.64407 11.0613 3.64778 14.0431 2.18556 17.4738C0.728518 20.8683 0 24.5014 0 28.3734C0 32.2401 0.728518 35.8707 2.18556 39.2651C3.64778 42.6959 5.64407 45.6777 8.17445 48.2105C10.71 50.7486 13.6915 52.7468 17.1189 54.2053C20.51 55.6689 24.137 56.4007 28 56.4007C31.863 56.4007 35.49 55.6689 38.8811 54.2053C42.3085 52.7468 45.29 50.7486 47.8256 48.2105C50.3611 45.6777 52.3574 42.6959 53.8144 39.2651C55.2715 35.8707 56 32.2401 56 28.3734C56 24.5014 55.2715 20.8683 53.8144 17.4738C52.3159 14.0846 50.3015 11.121 47.7711 8.58294C45.2356 6.04491 42.2722 4.02849 38.8811 2.5337C35.49 1.07524 31.863 0.346008 28 0.346008ZM26.3589 3.95842V14.0794C25.0107 14.0431 23.7067 13.9341 22.4467 13.7524C21.1919 13.5708 19.963 13.3165 18.76 12.9895L19.0322 13.044C19.2137 12.608 19.4056 12.1798 19.6078 11.7594C19.8048 11.339 20.0148 10.9263 20.2378 10.5215C20.8911 9.09937 21.7389 7.84073 22.7811 6.74559C23.8181 5.65045 24.9926 4.73956 26.3044 4.01292L26.3589 3.95842ZM26.3589 17.3649V26.7307H16.1311C16.2037 24.831 16.3956 22.9703 16.7067 21.1485C17.0178 19.3216 17.4456 17.5699 17.99 15.8934L17.8811 16.1659C19.1567 16.4929 20.5074 16.7576 21.9333 16.96C23.3541 17.1572 24.8111 17.2922 26.3044 17.3649H26.3589ZM16.0767 30.0161H26.3589V39.3741C24.8293 39.4105 23.3359 39.5376 21.8789 39.7556C20.4167 39.9736 18.9933 40.2668 17.6089 40.6354L17.8811 40.5809C17.4093 39.0082 17.0178 37.3292 16.7067 35.5437C16.3956 33.7531 16.1856 31.9287 16.0767 30.0706V30.0161ZM26.25 42.6595H26.3589V52.7883C25.0107 52.0202 23.8181 51.0885 22.7811 49.9934C21.7389 48.8982 20.9093 47.6759 20.2922 46.3265L20.2378 46.2175C20.0148 45.8126 19.8048 45.4026 19.6078 44.9874C19.4056 44.567 19.2137 44.1362 19.0322 43.695C20.09 43.4044 21.2385 43.1682 22.4778 42.9865C23.717 42.8049 24.9744 42.6959 26.25 42.6595ZM29.6411 52.7883V42.6595C30.953 42.6959 32.2389 42.8049 33.4989 42.9865C34.7537 43.1682 36.0007 43.4225 37.24 43.7495L36.9678 43.695C36.7863 44.1362 36.5867 44.567 36.3689 44.9874C36.1511 45.4026 35.9307 45.8126 35.7078 46.2175C35.0544 47.6396 34.217 48.8982 33.1956 49.9934C32.1741 51.0885 31.0074 52.002 29.6956 52.7338L29.6411 52.7883ZM29.6411 39.3741V30.0161H39.8689C39.7963 31.9105 39.6044 33.7609 39.2933 35.5671C38.9822 37.3733 38.5544 39.1354 38.01 40.8533L38.1189 40.5809C36.8433 40.2487 35.4926 39.984 34.0667 39.7867C32.6459 39.5843 31.1889 39.4468 29.6956 39.3741H29.6411ZM39.8689 26.7307H29.6411V17.3649C31.1707 17.3285 32.6667 17.2014 34.1289 16.9834C35.5859 16.7654 37.0067 16.4747 38.3911 16.1114L38.0644 16.1659C38.5726 17.7334 38.9822 19.402 39.2933 21.1719C39.6044 22.9418 39.7963 24.7584 39.8689 26.6217V26.7307ZM29.6411 14.0794V3.95842C30.9893 4.72139 32.1741 5.65045 33.1956 6.74559C34.217 7.84073 35.0544 9.06304 35.7078 10.4125L35.7622 10.5215C35.9852 10.9263 36.1952 11.339 36.3922 11.7594C36.5944 12.1798 36.7863 12.6261 36.9678 13.0985C35.8737 13.3528 34.7174 13.5708 33.4989 13.7524C32.2752 13.9341 31.0074 14.0431 29.6956 14.0794H29.6411ZM38.6089 8.94107C38.2096 8.17291 37.7896 7.45925 37.3489 6.80009C36.9133 6.14612 36.4415 5.50772 35.9333 4.88488L35.9878 4.93938C37.6626 5.52588 39.2285 6.26549 40.6856 7.15822C42.1478 8.05094 43.4985 9.06304 44.7378 10.1945V10.14C44.0793 10.5085 43.3767 10.8563 42.63 11.1833C41.8833 11.5102 41.1263 11.8191 40.3589 12.1097L40.1411 12.1642C39.887 11.5102 39.6226 10.9082 39.3478 10.358C39.073 9.81303 38.8085 9.28362 38.5544 8.76979L38.6089 8.94107ZM17.3911 8.94107C17.137 9.37705 16.8907 9.84936 16.6522 10.358C16.4137 10.8718 16.1674 11.3831 15.9133 11.8917L15.8589 12.1097C14.9463 11.8191 14.1089 11.4999 13.3467 11.1521C12.5793 10.8096 11.83 10.4359 11.0989 10.031L11.2622 10.14C12.5067 9.00854 13.847 8.00682 15.2833 7.13486C16.7248 6.25771 18.2467 5.54405 19.8489 4.99388L20.0122 4.93938C19.5404 5.52588 19.0867 6.14612 18.6511 6.80009C18.2104 7.45925 17.8085 8.13398 17.4456 8.82429L17.3911 8.94107ZM14.7622 15.2317C14.2178 16.9496 13.7822 18.774 13.4556 20.7048C13.1237 22.6407 12.9215 24.6312 12.8489 26.6762V26.7307H3.33667C3.51815 24.0265 4.10148 21.4807 5.08667 19.0932C6.07185 16.7005 7.36556 14.5388 8.96778 12.608C9.77148 13.0803 10.6478 13.5344 11.5967 13.9704C12.5404 14.4116 13.5048 14.8138 14.49 15.1772L14.7622 15.2317ZM3.33667 30.0161H12.8489C12.8852 32.0922 13.077 34.1164 13.4244 36.0887C13.7719 38.061 14.2359 39.9762 14.8167 41.8343L14.7622 41.5073C13.6319 41.907 12.5767 42.3274 11.5967 42.7685C10.6115 43.2045 9.68074 43.6794 8.80444 44.1933L8.96778 44.1388C7.36556 42.2028 6.07185 40.0385 5.08667 37.6458C4.10148 35.2583 3.51815 32.7332 3.33667 30.0706V30.0161ZM15.8589 44.5748V44.6293C16.113 45.2469 16.3774 45.8308 16.6522 46.381C16.927 46.9259 17.1915 47.4553 17.4456 47.9692L17.3911 47.8057C17.7904 48.5687 18.2104 49.2797 18.6511 49.9389C19.0867 50.598 19.5585 51.2364 20.0667 51.8541L20.0122 51.7996C18.3374 51.2183 16.7715 50.489 15.3144 49.6119C13.8574 48.7347 12.5067 47.7123 11.2622 46.5445V46.599C11.9207 46.2356 12.6156 45.8879 13.3467 45.5557C14.0726 45.2287 14.8374 44.9381 15.6411 44.6838L15.8589 44.5748ZM38.6089 47.8057C38.863 47.3645 39.1093 46.8896 39.3478 46.381C39.5863 45.8671 39.8144 45.3559 40.0322 44.8472L40.1411 44.6293C41.0174 44.9199 41.847 45.2391 42.63 45.5869C43.413 45.9346 44.17 46.3083 44.9011 46.7079L44.7378 46.599C43.4985 47.7304 42.1581 48.7347 40.7167 49.6119C39.2752 50.489 37.7533 51.2001 36.1511 51.7451L35.9878 51.7996C36.4596 51.2183 36.9133 50.6058 37.3489 49.9622C37.7896 49.3238 38.1915 48.6413 38.5544 47.9147L38.6089 47.8057ZM41.2378 41.5073C41.7822 39.7945 42.2178 37.9702 42.5444 36.0342C42.8763 34.0982 43.0785 32.1104 43.1511 30.0706V30.0161H52.6633C52.4819 32.715 51.8985 35.2583 50.9133 37.6458C49.9282 40.0385 48.6344 42.2028 47.0322 44.1388C46.2285 43.6613 45.3522 43.2045 44.4033 42.7685C43.4596 42.3274 42.4952 41.9251 41.51 41.5618L41.2378 41.5073ZM52.6633 26.7307H43.1511C43.0785 24.6494 42.8763 22.6226 42.5444 20.6503C42.2178 18.6832 41.7641 16.768 41.1833 14.9047L41.2378 15.2317C42.3681 14.832 43.4156 14.4116 44.38 13.9704C45.3444 13.5344 46.283 13.0621 47.1956 12.5535L47.0322 12.608C48.6344 14.5388 49.9282 16.6901 50.9133 19.0621C51.8985 21.434 52.4819 23.9539 52.6633 26.6217V26.7307Z" fill="#6A6377"/>
</svg>
