<svg width="48" height="48" viewBox="0 0 48 48" fill="none" xmlns="http://www.w3.org/2000/svg">
<path d="M46 8.01333L44.8791 7.78C44.0389 7.56222 43.2629 7.24889 42.551 6.84C41.8346 6.43556 41.1802 5.93556 40.5877 5.34C40.0305 4.78 39.5419 4.14 39.1219 3.42C38.7018 2.7 38.3834 1.93333 38.1667 1.12V1.07333L37.8815 0H11.0654L10.8333 1.07333C10.6166 1.91778 10.2982 2.7 9.87814 3.42C9.45807 4.14 8.96946 4.78 8.41231 5.34C7.81978 5.93556 7.16536 6.43556 6.44902 6.84C5.73711 7.24889 4.97655 7.56222 4.16736 7.78H4.0745L3 8.01333V17.62C3 17.62 3 17.6289 3 17.6467C3 17.66 3 17.6667 3 17.6667C3 19.3867 3.12381 21.0756 3.37143 22.7333C3.65443 24.3556 4.04355 25.94 4.53879 27.4867C5.03846 29.0378 5.64425 30.5311 6.35616 31.9667C7.0725 33.4022 7.89717 34.7778 8.83017 36.0933L8.78374 36C9.71675 37.3422 10.7271 38.5911 11.8149 39.7467C12.9336 40.9333 14.1231 42.02 15.3833 43.0067C16.6435 43.9889 17.9878 44.8867 19.416 45.7C20.8133 46.4822 22.2592 47.1533 23.7538 47.7133L23.986 47.8133L24.4967 48L24.9676 47.8133C26.5506 47.2178 28.0585 46.5133 29.4911 45.7C30.9194 44.9178 32.2702 44.0267 33.5437 43.0267C34.8216 42.0267 36.02 40.9489 37.1387 39.7933C38.2264 38.6378 39.2368 37.4044 40.1698 36.0933L40.2163 36C41.1183 34.7156 41.9275 33.3556 42.6438 31.92C43.3558 30.5156 43.9615 29.0378 44.4612 27.4867C44.9564 25.94 45.3301 24.34 45.5821 22.6867C45.8607 21.06 46 19.3867 46 17.6667C46 17.6667 46 17.66 46 17.6467C46 17.6289 46 17.62 46 17.62V8.01333ZM43.1546 10.1667V17.62C43.1546 17.62 43.1546 17.6289 43.1546 17.6467C43.1546 17.66 43.1546 17.6667 43.1546 17.6667C43.1546 19.2311 43.0307 20.7622 42.7831 22.26C42.562 23.7622 42.2193 25.2244 41.7551 26.6467C41.2908 28.0689 40.7314 29.4356 40.077 30.7467C39.4225 32.0578 38.6753 33.3089 37.8351 34.5L37.8815 34.4067C37.0768 35.5933 36.1769 36.7022 35.182 37.7333C34.2181 38.7644 33.1745 39.7244 32.0514 40.6133C30.9326 41.5067 29.752 42.3111 28.5095 43.0267C27.2979 43.7467 26.0244 44.3733 24.689 44.9067L24.4967 45C23.0994 44.4356 21.7795 43.7933 20.5369 43.0733C19.2944 42.3578 18.1116 41.5533 16.9884 40.66C15.8697 39.7711 14.8129 38.8111 13.818 37.78C12.854 36.7489 11.9675 35.6556 11.1583 34.5L11.0654 34.4067C10.2606 33.2156 9.53103 31.98 8.8766 30.7C8.22217 29.3889 7.66944 28.0289 7.21842 26.62C6.76739 25.2156 6.41807 23.7622 6.17045 22.26C5.95378 20.7622 5.84544 19.2311 5.84544 17.6667C5.84544 17.6667 5.84544 17.66 5.84544 17.6467C5.84544 17.6289 5.84544 17.62 5.84544 17.62V10.1667C6.71654 9.85556 7.53237 9.46667 8.29292 9C9.05347 8.52889 9.74549 7.98222 10.369 7.36C11.0234 6.73333 11.5828 6.04444 12.047 5.29333C12.5158 4.54222 12.9049 3.74667 13.2144 2.90667L13.2608 2.81333H35.7392C36.0487 3.68444 36.4444 4.50444 36.9264 5.27333C37.4084 6.03778 37.9611 6.73333 38.5846 7.36C39.2037 7.98222 39.8957 8.52889 40.6606 9C41.4212 9.46667 42.2216 9.85556 43.0617 10.1667H43.1546ZM34.2468 6.37333L33.8754 5.71333H15.1246L14.7068 6.37333C14.3663 6.93333 14.0015 7.46444 13.6124 7.96667C13.2233 8.46444 12.8098 8.93333 12.372 9.37333C11.9387 9.80889 11.4722 10.2222 10.9725 10.6133C10.4773 11.0044 9.96437 11.3556 9.43375 11.6667L9.34089 11.7133L8.64445 12.0933V17.6667C8.64445 19.0756 8.75279 20.4667 8.96946 21.84C9.18613 23.1867 9.5045 24.5 9.92457 25.78C10.3446 27.06 10.8509 28.2933 11.4435 29.48C12.0316 30.6667 12.7147 31.7933 13.493 32.86L13.4001 32.76C14.7355 34.6667 16.2743 36.3622 18.0165 37.8467C19.7587 39.3311 21.6711 40.5578 23.7538 41.5267L23.8931 41.62L24.4967 41.9067L25.1069 41.62C27.2515 40.5889 29.1949 39.3311 30.9371 37.8467C32.6748 36.3622 34.2136 34.7 35.5534 32.86L35.5999 32.76C36.3472 31.7289 36.9994 30.62 37.5565 29.4333C38.1491 28.2778 38.6465 27.0667 39.0489 25.8C39.4557 24.5378 39.7674 23.2333 39.9841 21.8867C40.2008 20.5133 40.3091 19.1222 40.3091 17.7133C40.3091 17.7133 40.3091 17.7067 40.3091 17.6933C40.3091 17.6756 40.3091 17.6667 40.3091 17.6667V12.0933L39.6127 11.7133C39.0511 11.3711 38.5139 11.0044 38.0009 10.6133C37.488 10.2222 37.0149 9.80889 36.5815 9.37333C36.1438 8.93333 35.7303 8.47111 35.3412 7.98667C34.9521 7.50222 34.6028 6.99556 34.2932 6.46667L34.2468 6.37333ZM37.5101 13.6867V17.6667C37.5101 17.6667 37.5101 17.6822 37.5101 17.7133C37.5101 20.2156 37.1298 22.6156 36.3693 24.9133C35.6087 27.2111 34.5585 29.3267 33.2187 31.26L33.2652 31.1667C32.1155 32.7622 30.8177 34.2 29.3717 35.48C27.9258 36.7644 26.3494 37.8422 24.6426 38.7133L24.4967 38.76C22.728 37.8578 21.1118 36.7733 19.6482 35.5067C18.189 34.24 16.9 32.8244 15.7813 31.26L15.7348 31.1667C14.395 29.2956 13.3515 27.2111 12.6042 24.9133C11.8613 22.6156 11.4899 20.2 11.4899 17.6667V13.6867C12.5467 12.9978 13.5107 12.2244 14.3818 11.3667C15.2529 10.5044 16.0289 9.55778 16.7099 8.52667V8.48H32.2437C32.9247 9.54222 33.7007 10.5044 34.5718 11.3667C35.4429 12.2244 36.3914 12.9822 37.4172 13.64L37.5101 13.6867ZM24.4967 13.6867C22.9446 13.6867 21.6159 14.24 20.5104 15.3467C19.4094 16.4578 18.8589 17.7956 18.8589 19.36C18.8589 20.6711 19.2546 21.8333 20.0461 22.8467C20.8376 23.8644 21.8392 24.5289 23.0507 24.84H23.0972V30H25.8962V24.84C27.1431 24.5289 28.1624 23.8644 28.9539 22.8467C29.7454 21.8333 30.1411 20.6711 30.1411 19.36C30.1411 17.7956 29.5906 16.4578 28.4896 15.3467C27.3841 14.24 26.0532 13.6867 24.4967 13.6867ZM24.4967 22.2133C23.7229 22.2133 23.064 21.9333 22.5201 21.3733C21.9762 20.8089 21.7043 20.1378 21.7043 19.36C21.7043 18.5778 21.9762 17.9133 22.5201 17.3667C23.064 16.82 23.7229 16.5467 24.4967 16.5467C25.2749 16.5467 25.936 16.82 26.4799 17.3667C27.0238 17.9133 27.2957 18.5778 27.2957 19.36C27.2957 20.1378 27.0238 20.8 26.4799 21.3467C25.936 21.8933 25.2749 22.1822 24.4967 22.2133Z" fill="#6A6377"/>
</svg>
