<svg width="49" height="48" viewBox="0 0 49 48" fill="none" xmlns="http://www.w3.org/2000/svg">
<path d="M48 29.2C48.0933 28.1067 47.68 26.9911 46.76 25.8534C45.8356 24.7111 44.1556 24 41.72 23.72C42.3733 22.7511 42.8267 21.7978 43.08 20.86C43.3289 19.9222 43.3756 19.0467 43.22 18.2334C43.1267 17.6422 42.9222 17.1111 42.6067 16.64C42.2956 16.1734 41.9067 15.7667 41.44 15.42C41.0933 15.1711 40.7089 14.9845 40.2867 14.86C39.8644 14.7356 39.4356 14.6734 39 14.6734C38.8444 14.6734 38.68 14.6889 38.5067 14.72C38.3378 14.7511 38.1733 14.7822 38.0133 14.8134L38.06 14.5334V9.09335C38.06 8.62669 37.56 8.20447 36.56 7.82669C35.5911 7.42224 34.24 7.07113 32.5067 6.77335C30.7733 6.47558 28.7511 6.23335 26.44 6.04669C24.1244 5.89113 21.6556 5.81335 19.0333 5.81335C16.4067 5.81335 13.9378 5.89113 11.6267 6.04669C9.31111 6.23335 7.29556 6.47558 5.58 6.77335C3.86 7.07113 2.5 7.42224 1.5 7.82669C0.5 8.20447 0 8.62669 0 9.09335V14.5334C0 14.9689 0.5 15.3911 1.5 15.8C2.5 16.2045 3.86 16.5556 5.58 16.8534C7.29556 17.1511 9.31111 17.3778 11.6267 17.5334C13.9378 17.72 16.4067 17.8134 19.0333 17.8134C19.8467 17.8134 20.6511 17.8045 21.4467 17.7867C22.2422 17.7734 23.0156 17.7511 23.7667 17.72C23.7356 17.9378 23.72 18.1645 23.72 18.4C23.72 18.6356 23.7356 18.8778 23.7667 19.1267C22.86 19.1889 22.0089 19.22 21.2133 19.22C20.4133 19.22 19.6867 19.22 19.0333 19.22C17.8467 19.22 16.4089 19.2045 14.72 19.1734C13.0622 19.1111 11.3511 19.0022 9.58667 18.8467C7.82222 18.6867 6.14222 18.4511 4.54667 18.14C2.95111 17.8289 1.62222 17.4067 0.56 16.8734L0.466667 17.2V37.22C0.466667 37.6867 0.951111 38.1245 1.92 38.5334C2.92 38.9689 4.25556 39.3422 5.92667 39.6534C7.60222 39.9689 9.56444 40.2045 11.8133 40.36C14.0622 40.5467 16.4689 40.64 19.0333 40.64C19.9089 40.64 20.76 40.6334 21.5867 40.62C22.4133 40.6022 23.2333 40.5622 24.0467 40.5L24.0933 40.5467C24.4667 40.7956 24.8578 40.9822 25.2667 41.1067C25.6711 41.2356 26.0933 41.3 26.5333 41.3C27.0933 41.3 27.6711 41.1889 28.2667 40.9667C28.8578 40.7489 29.42 40.4222 29.9533 39.9867C30.5178 39.9245 31.0489 39.8467 31.5467 39.7534C32.0489 39.6556 32.5178 39.56 32.9533 39.4667C33.7978 40.6222 34.6333 41.3645 35.46 41.6934C36.2867 42.0222 36.9667 42.1867 37.5 42.1867C37.8111 42.1867 38.1244 42.1556 38.44 42.0934C38.7511 42.0311 39.0467 41.9378 39.3267 41.8134C39.8289 41.5645 40.2667 41.2289 40.64 40.8067C41.0133 40.3845 41.3111 39.8911 41.5333 39.3267C41.8133 38.5445 41.8978 37.6689 41.7867 36.7C41.68 35.7356 41.3911 34.7045 40.92 33.6067C41.0444 33.6378 41.1622 33.6534 41.2733 33.6534C41.3844 33.6534 41.4867 33.6534 41.58 33.6534C43.7978 33.6534 45.3978 33.1867 46.38 32.2534C47.3667 31.3156 47.9067 30.2978 48 29.2ZM19.0333 11.6734C16.1578 11.6734 13.6111 11.58 11.3933 11.3934C9.14 11.2022 7.24 10.9756 5.69333 10.7134C4.14667 10.4467 2.95111 10.1734 2.10667 9.89335C1.26667 9.5778 0.797778 9.32669 0.7 9.14002C0.797778 8.89113 1.26667 8.61113 2.10667 8.30002C2.95111 8.01558 4.14667 7.74002 5.69333 7.47335C7.24 7.21113 9.14 6.98669 11.3933 6.80002C13.6111 6.60891 16.1578 6.51335 19.0333 6.51335C21.9089 6.51335 24.4711 6.60891 26.72 6.80002C28.9378 6.98669 30.82 7.20447 32.3667 7.45335C33.9133 7.70224 35.1089 7.98447 35.9533 8.30002C36.7978 8.58002 37.2667 8.82891 37.36 9.04669C37.2667 9.29558 36.7978 9.56224 35.9533 9.84669C35.1089 10.1578 33.9133 10.4467 32.3667 10.7134C30.82 10.9756 28.9378 11.2022 26.72 11.3934C24.4711 11.58 21.9089 11.6734 19.0333 11.6734ZM35.3 16.22C35.0156 16.4689 34.7244 16.7489 34.4267 17.06C34.1333 17.3756 33.8444 17.72 33.56 18.0934C33.4356 17.8445 33.3111 17.6178 33.1867 17.4134C33.0622 17.2089 32.9222 16.9978 32.7667 16.78C33.2644 16.6867 33.7244 16.5934 34.1467 16.5C34.5689 16.4067 34.9533 16.3134 35.3 16.22ZM19.0333 35.6734C16.7489 35.6734 14.6711 35.5956 12.8 35.44C10.9556 35.3156 9.34444 35.1511 7.96667 34.9467C6.59333 34.7422 5.45333 34.5311 4.54667 34.3134C3.67111 34.0645 3.03111 33.8445 2.62667 33.6534V22.7334C3.81333 23.0445 5.12444 23.2956 6.56 23.4867C7.96889 23.6734 9.39111 23.82 10.8267 23.9267C12.2667 24.0378 13.6578 24.1245 15 24.1867C16.3422 24.2178 17.56 24.2334 18.6533 24.2334C18.3111 24.6111 18.0533 25.0178 17.88 25.4534C17.7111 25.8889 17.5956 26.3267 17.5333 26.7667C17.5022 27.3578 17.5711 27.92 17.74 28.4534C17.9133 28.9867 18.2022 29.4711 18.6067 29.9067C19.14 30.5645 19.8444 31.0867 20.72 31.4734C21.5956 31.8645 22.6267 32.1245 23.8133 32.2534C23.44 32.8445 23.1356 33.4134 22.9 33.96C22.6644 34.5067 22.4844 35.0467 22.36 35.58C21.8267 35.6111 21.2867 35.6334 20.74 35.6467C20.1933 35.6645 19.6244 35.6734 19.0333 35.6734ZM40.5467 32.06C39.9822 32.0289 39.4111 31.9134 38.8333 31.7134C38.2556 31.5089 37.7022 31.2822 37.1733 31.0334C37.6089 31.4378 38.0156 31.8756 38.3933 32.3467C38.7667 32.8134 39.0778 33.3134 39.3267 33.8467C40.14 35.5622 40.4444 36.9822 40.24 38.1067C40.04 39.2356 39.5178 40.0022 38.6733 40.4067C37.7978 40.8111 36.86 40.7334 35.86 40.1734C34.86 39.6089 33.9533 38.4845 33.14 36.8C32.8911 36.2667 32.7044 35.7022 32.58 35.1067C32.4556 34.5156 32.3778 33.9222 32.3467 33.3267C32.2178 33.9222 32.0444 34.5 31.8267 35.06C31.6089 35.6245 31.3289 36.14 30.9867 36.6067C29.9244 38.1711 28.8533 39.1489 27.7733 39.54C26.6933 39.9311 25.7644 39.8445 24.9867 39.28C24.2044 38.7511 23.7978 37.9156 23.7667 36.7734C23.7356 35.6311 24.2667 34.28 25.36 32.72C25.6711 32.2489 26.0533 31.8111 26.5067 31.4067C26.96 31.0022 27.4378 30.6267 27.94 30.28C27.3756 30.4667 26.7956 30.6067 26.2 30.7C25.6089 30.7978 25.0156 30.8156 24.42 30.7534C22.5444 30.6245 21.1711 30.1867 20.3 29.44C19.4244 28.6889 19.0178 27.8445 19.08 26.9067C19.1733 25.9378 19.7111 25.1645 20.6933 24.5867C21.68 24.0089 23.1111 23.7822 24.9867 23.9067C25.5467 23.9689 26.1156 24.0934 26.6933 24.28C27.2711 24.4667 27.8267 24.7022 28.36 24.9867C27.92 24.5467 27.5133 24.0934 27.14 23.6267C26.7667 23.1556 26.4533 22.6711 26.2 22.1734C25.3911 20.4534 25.0867 19.0311 25.2867 17.9067C25.4911 16.7822 26.0311 16.0156 26.9067 15.6067C27.7511 15.2022 28.6733 15.2734 29.6733 15.82C30.6733 16.3667 31.58 17.5 32.3933 19.22C32.6422 19.7489 32.8289 20.3111 32.9533 20.9067C33.0778 21.5022 33.1556 22.0956 33.1867 22.6867C33.3422 22.0956 33.5222 21.5178 33.7267 20.9534C33.9311 20.3889 34.2044 19.8734 34.5467 19.4067C35.6089 17.8422 36.68 16.8645 37.76 16.4734C38.8356 16.0867 39.7644 16.1578 40.5467 16.6867C41.36 17.22 41.7733 18.0645 41.7867 19.22C41.8044 20.3756 41.2667 21.7356 40.1733 23.3C39.8578 23.7667 39.4756 24.2022 39.0267 24.6067C38.5733 25.0156 38.0956 25.3756 37.5933 25.6867C38.1578 25.5311 38.7444 25.4067 39.3533 25.3134C39.9622 25.22 40.5467 25.1889 41.1067 25.22C42.9822 25.3756 44.3667 25.8289 45.26 26.58C46.1489 27.3267 46.5467 28.1689 46.4533 29.1067C46.3911 30.0445 45.8667 30.8111 44.88 31.4067C43.8978 32.0022 42.4533 32.22 40.5467 32.06ZM32.7667 25.2667C33.5178 25.2667 34.1667 25.5311 34.7133 26.06C35.26 26.5934 35.5333 27.2356 35.5333 27.9867C35.5333 28.7334 35.26 29.38 34.7133 29.9267C34.1667 30.4778 33.5178 30.7534 32.7667 30.7534C32.0156 30.7534 31.3756 30.4867 30.8467 29.9534C30.3133 29.42 30.0467 28.7645 30.0467 27.9867C30.0467 27.2356 30.3133 26.5934 30.8467 26.06C31.3756 25.5311 32.0156 25.2667 32.7667 25.2667Z" fill="#6610F2"/>
</svg>
