<?xml version="1.0" encoding="utf-8"?><svg xmlns="http://www.w3.org/2000/svg" xmlns:xlink="http://www.w3.org/1999/xlink"><symbol viewBox="0 0 48 48" id="Analytics" xmlns="http://www.w3.org/2000/svg"><path d="M14.767 14.767v19.46h19.466v-19.46H14.767zm2.755 16.705v-13.95h13.956v13.95H17.522zM48 34.135V14.859h-2.709V3.755h-11.15V1H14.86v2.755H3.755v11.104H1v19.276h2.755v11.156h11.104V48H34.14v-2.709h11.15V34.135H48zm-2.755-2.755h-5.51v-2.754h5.51v2.754zm0-5.503h-5.51v-2.754h5.51v2.754zm0-5.51h-5.51v-2.754h5.51v2.755zM34.142 6.504h8.394v8.355h-2.8v-5.6h-5.594V6.503zm2.846 30.478h-24.97v-24.97h24.97v24.97zm-13.865 2.755h2.754v5.51h-2.754v-5.51zm2.754-30.478h-2.754V3.755h2.754v5.503zm5.51-5.503v5.503h-2.755V3.755h2.755zm-13.774 0h2.755v5.503h-2.755V3.755zM6.51 14.859V6.502h8.35v2.755H9.264v5.6H6.51zm2.755 8.264v2.754h-5.51v-2.754h5.51zm-5.51-5.51h5.51v2.755h-5.51v-2.755zm0 13.767v-2.754h5.51v2.754h-5.51zm11.104 11.156H6.51v-8.355h2.755v5.6h5.595v2.755zm2.755 2.71v-5.51h2.755v5.51h-2.755zm13.774 0h-2.755v-5.51h2.755v5.51zm11.15-11.111v8.401h-8.35v-2.8h5.595v-5.601h2.754z"/></symbol><symbol viewBox="0 0 43 39" id="Development" xmlns="http://www.w3.org/2000/svg"><path d="M29.477 32.925h13.52V.56H0v32.364h13.52v2.644h-2.54v2.612h21.04v-2.61h-2.542v-2.644zM2.505 3.168h37.988v20.169H2.505V3.168zm0 27.15v-4.374h37.988v4.374H2.505zm24.467 2.607v2.644H16.03v-2.644h10.942zM15.878 20.359l2.065-1.615-4.344-5.476 4.344-5.507-2.065-1.62-5.596 7.127 5.596 7.09zm9.213-1.615l2.028 1.615 5.639-7.09-5.639-7.128-2.028 1.62 4.313 5.47-4.313 5.513zm-4.9 1.578V6.178h2.615v14.144h-2.615z"/></symbol><symbol viewBox="0 0 48 48" id="Service" xmlns="http://www.w3.org/2000/svg"><path d="M46 8.013l-1.12-.233a9.369 9.369 0 01-2.329-.94 9.003 9.003 0 01-1.963-1.5 9.472 9.472 0 01-1.466-1.92 9.286 9.286 0 01-.955-2.3v-.047L37.882 0H11.065l-.232 1.073a9.138 9.138 0 01-.955 2.347 9.48 9.48 0 01-1.466 1.92 9.005 9.005 0 01-1.963 1.5 9.536 9.536 0 01-2.282.94h-.093L3 8.013v9.654c0 1.72.124 3.409.371 5.066a35.67 35.67 0 001.168 4.754 32.495 32.495 0 001.817 4.48 31.22 31.22 0 002.474 4.126L8.784 36a32.087 32.087 0 006.6 7.007c1.26.982 2.604 1.88 4.032 2.693a31.48 31.48 0 004.338 2.013l.232.1.51.187.472-.187c1.583-.595 3.09-1.3 4.523-2.113a29.47 29.47 0 004.053-2.673 35.1 35.1 0 003.595-3.234 34.977 34.977 0 003.03-3.7l.047-.093a31.757 31.757 0 002.428-4.08 30.402 30.402 0 002.938-9.233c.279-1.627.418-3.3.418-5.02V8.013zm-2.845 2.154v7.5c0 1.564-.124 3.095-.372 4.593a26.592 26.592 0 01-1.028 4.387 30.047 30.047 0 01-1.678 4.1 28.875 28.875 0 01-2.242 3.753l.047-.093a24.948 24.948 0 01-2.7 3.326 28.432 28.432 0 01-3.13 2.88 28.312 28.312 0 01-3.543 2.414 27.253 27.253 0 01-3.82 1.88l-.192.093a31.171 31.171 0 01-3.96-1.927 28.71 28.71 0 01-3.549-2.413 32.477 32.477 0 01-3.17-2.88 29.96 29.96 0 01-2.66-3.28l-.093-.093A35.393 35.393 0 018.877 30.7a28.743 28.743 0 01-1.659-4.08 30.418 30.418 0 01-1.048-4.36 32.046 32.046 0 01-.325-4.593v-7.5A13.07 13.07 0 008.293 9a11.502 11.502 0 002.076-1.64 10.49 10.49 0 001.678-2.067c.469-.75.858-1.546 1.167-2.386l.047-.094h22.478c.31.871.705 1.691 1.187 2.46.482.765 1.035 1.46 1.659 2.087A11.17 11.17 0 0040.661 9c.76.467 1.56.856 2.4 1.167h.094zm-8.908-3.794l-.372-.66h-18.75l-.418.66a15.701 15.701 0 01-2.335 3c-.433.436-.9.85-1.4 1.24a13.49 13.49 0 01-1.538 1.054l-.093.046-.697.38v5.574c0 1.409.109 2.8.325 4.173.217 1.347.536 2.66.956 3.94.42 1.28.926 2.513 1.518 3.7a23.205 23.205 0 002.05 3.38l-.093-.1a26.997 26.997 0 004.617 5.087 25.185 25.185 0 005.737 3.68l.14.093.603.287.61-.287a26.94 26.94 0 005.83-3.773 28.952 28.952 0 004.616-4.987l.047-.1c.747-1.031 1.4-2.14 1.956-3.327A23.61 23.61 0 0039.05 25.8c.407-1.262.718-2.567.935-3.913.217-1.374.325-2.765.325-4.174V12.093l-.696-.38a18.737 18.737 0 01-1.612-1.1 13.817 13.817 0 01-1.42-1.24c-.437-.44-.85-.902-1.24-1.386a12.64 12.64 0 01-1.048-1.52l-.046-.094zm3.263 7.314v4.026c0 2.503-.38 4.903-1.14 7.2a24.706 24.706 0 01-3.151 6.347l.046-.093a26.172 26.172 0 01-3.893 4.313 22.489 22.489 0 01-4.73 3.233l-.145.047a24.134 24.134 0 01-4.849-3.253 24.401 24.401 0 01-3.867-4.247l-.046-.093c-1.34-1.871-2.383-3.956-3.13-6.254-.744-2.297-1.115-4.713-1.115-7.246v-3.98a18.53 18.53 0 002.892-2.32 17.743 17.743 0 002.328-2.84V8.48h15.534a16.814 16.814 0 002.328 2.887c.87.857 1.82 1.615 2.845 2.273l.093.047zm-13.013 0c-1.552 0-2.881.553-3.987 1.66-1.1 1.11-1.651 2.449-1.651 4.013 0 1.311.396 2.473 1.187 3.487.792 1.017 1.793 1.682 3.005 1.993h.046V30h2.8v-5.16a5.44 5.44 0 003.057-1.993c.791-1.014 1.187-2.176 1.187-3.487 0-1.564-.55-2.902-1.651-4.013-1.106-1.107-2.437-1.66-3.993-1.66zm0 8.526c-.774 0-1.433-.28-1.977-.84a2.802 2.802 0 01-.816-2.013c0-.782.272-1.447.816-1.993a2.685 2.685 0 011.977-.82c.778 0 1.439.273 1.983.82a2.72 2.72 0 01.816 1.993c0 .778-.272 1.44-.816 1.987a2.864 2.864 0 01-1.983.866z"/></symbol><symbol viewBox="0 0 48 48" id="all" xmlns="http://www.w3.org/2000/svg"><path d="M43.5 48h-39c-1.249 0-2.311-.438-3.187-1.313C.438 45.81 0 44.749 0 43.5v-39c0-1.249.438-2.311 1.313-3.187C2.19.438 3.251 0 4.5 0h39c1.249 0 2.311.438 3.187 1.313C47.562 2.19 48 3.251 48 4.5v39c0 1.249-.438 2.311-1.313 3.187C45.81 47.562 44.749 48 43.5 48zm0-45h-39a1.44 1.44 0 00-1.053.447A1.44 1.44 0 003 4.5v39c0 .404.149.756.447 1.053A1.44 1.44 0 004.5 45h39a1.44 1.44 0 001.053-.447A1.44 1.44 0 0045 43.5v-39a1.44 1.44 0 00-.447-1.053A1.44 1.44 0 0043.5 3zm3 22.5h-45a1.44 1.44 0 01-1.053-.447A1.44 1.44 0 010 24c0-.404.149-.756.447-1.053A1.44 1.44 0 011.5 22.5h45c.404 0 .756.149 1.053.447.298.297.447.649.447 1.053 0 .404-.149.756-.447 1.053a1.44 1.44 0 01-1.053.447zM24 48a1.44 1.44 0 01-1.053-.447A1.44 1.44 0 0122.5 46.5v-45c0-.404.149-.756.447-1.053A1.44 1.44 0 0124 0c.404 0 .756.149 1.053.447.298.297.447.649.447 1.053v45c0 .404-.149.756-.447 1.053A1.44 1.44 0 0124 48z"/></symbol><symbol viewBox="0 0 48 48" id="batdongsan" xmlns="http://www.w3.org/2000/svg"><path d="M48 45.187h-4.22V31.593l-9.887-4.92L24 31.593v13.594h-7.08V35.3h-2.813V15.513h18.38v4.74l-11.86 5.294 1.126 2.58 12.14-5.394 12.14 5.394 1.12-2.58L35.3 20.253v-4.74h8.48L37.407 7.08h-23.3V0h-8.48v7.08H0v8.433h5.627V35.3H2.813v9.887H0V48h48v-2.813zM8.487 7.08V2.813H11.3V7.08H8.487zM2.813 12.7V9.893H36l2.107 2.807H2.813zm5.674 22.6V15.513H11.3V35.3H8.487zm5.62 9.887h-8.48v-7.08h8.48v7.08zm21.193 0h-2.813V40.92H35.3v4.267zm5.62 0h-2.813v-7.08h-8.48v7.08h-2.814v-11.86l7.08-3.514 7.027 3.514v11.86z"/></symbol><symbol viewBox="0 0 16 16" id="cancel" xmlns="http://www.w3.org/2000/svg"><g clip-path="url(#afclip0)"><path d="M8.938 8.005l6.858-6.859a.666.666 0 10-.942-.942L7.995 7.062 1.137.204a.666.666 0 00-.942.942l6.858 6.859-6.858 6.858a.666.666 0 00.942.942l6.858-6.858 6.859 6.858a.666.666 0 00.942-.942L8.938 8.005z"/></g><defs><clipPath id="afclip0"><path d="M0 0h16v16H0z"/></clipPath></defs></symbol><symbol viewBox="0 0 48 48" id="cart" xmlns="http://www.w3.org/2000/svg"><path d="M42.28.467H5.72c-1.564 0-2.909.562-4.033 1.686C.562 3.283 0 4.627 0 6.187V35.06c0 1.564.562 2.909 1.687 4.033C2.81 40.218 4.156 40.78 5.72 40.78h9.233v3.94H10.5c-.373 0-.702.14-.987.42-.28.28-.42.609-.42.987 0 .373.14.7.42.98.285.284.614.426.987.426h27c.373 0 .702-.142.987-.426.28-.28.42-.607.42-.98 0-.378-.14-.707-.42-.987a1.365 1.365 0 00-.987-.42h-4.453v-3.94h9.233c1.564 0 2.909-.562 4.033-1.687C47.438 37.97 48 36.624 48 35.06V6.187c0-1.56-.562-2.905-1.687-4.034C45.19 1.03 43.844.467 42.28.467zM5.72 3.28h36.56c.813 0 1.502.282 2.067.847.56.56.84 1.246.84 2.06v25.78H2.813V6.187c0-.814.28-1.5.84-2.06.565-.565 1.254-.847 2.067-.847zm24.513 37.5v3.94H17.767v-3.94h12.466zm12.047-2.813H5.72c-.813 0-1.502-.28-2.067-.84-.56-.565-.84-1.254-.84-2.067v-.28h42.374v.28c0 .813-.28 1.502-.84 2.067-.565.56-1.254.84-2.067.84zM12.047 9.28h3.046v11.767c0 .595.203 1.095.607 1.5.409.404.909.606 1.5.606h12.147c.466 0 .895-.146 1.286-.44.391-.297.634-.666.727-1.106l2.013-7.64c.187-.654.071-1.254-.346-1.8-.423-.547-.978-.82-1.667-.82H17.907V7.873c0-.373-.14-.7-.42-.98-.285-.284-.614-.426-.987-.426h-4.453c-.374 0-.703.142-.987.426-.28.28-.42.607-.42.98 0 .378.14.707.42.987.284.28.613.42.987.42zm5.86 4.873H30.42l-1.64 6.194H17.907v-6.194zM19.5 25.967h-2.247a1.34 1.34 0 00-.986.426c-.28.28-.42.607-.42.98 0 .378.14.707.42.987.28.28.609.42.986.42H19.5c.373 0 .702-.14.987-.42.28-.28.42-.609.42-.987 0-.373-.14-.7-.42-.98-.285-.284-.614-.426-.987-.426zm9.753 0H27c-.373 0-.702.142-.987.426-.28.28-.42.607-.42.98 0 .378.14.707.42.987.285.28.614.42.987.42h2.253c.374 0 .7-.14.98-.42.28-.28.42-.609.42-.987 0-.373-.14-.7-.42-.98a1.333 1.333 0 00-.98-.426z"/></symbol><symbol viewBox="0 0 16 13" id="checkmark" xmlns="http://www.w3.org/2000/svg"><path d="M5.846 12.573a.997.997 0 01-.728-.319L.27 7.104a.997.997 0 111.457-1.366l4.11 4.374L14.224.946A.997.997 0 1115.7 2.28l-9.117 9.963a.998.998 0 01-.728.33h-.01z"/></symbol><symbol viewBox="0 0 20 20" id="close" xmlns="http://www.w3.org/2000/svg"><path d="M19.867 19.073a.556.556 0 00-.06-.06l-9.023-9.028L19.812.962a.556.556 0 10-.787-.787l-9.022 9.029L.98.175a.556.556 0 10-.786.787l9.028 9.023-9.028 9.022a.554.554 0 10.78.781l9.029-9.022 9.022 9.028a.554.554 0 00.842-.72z"/></symbol><symbol viewBox="0 0 56 57" id="cloud" xmlns="http://www.w3.org/2000/svg"><path d="M51.847 45.065v-7.988H29.64v-4.492h14.871c2.52 0 4.672-.885 6.456-2.655 1.789-1.77 2.683-3.913 2.683-6.43 0-2.263-.72-4.243-2.162-5.94-1.442-1.698-3.238-2.728-5.39-3.091h-.055c-.471-2.445-1.664-4.48-3.577-6.104-1.914-1.625-4.13-2.437-6.65-2.437-.617 0-1.219.055-1.805.164a13.09 13.09 0 00-1.695.436h.116c-1.166-1.859-2.727-3.353-4.682-4.485C25.801.912 23.66.346 21.327.346c-1.784 0-3.48.345-5.087 1.035a13.853 13.853 0 00-4.13 2.795C10.928 5.344 9.99 6.73 9.294 8.334c-.653 1.572-.98 3.27-.98 5.091v.771c0 .255.019.509.055.763v-.054c-1.753.659-3.184 1.762-4.293 3.309-1.115 1.551-1.673 3.295-1.673 5.231 0 2.517.884 4.671 2.653 6.462 1.768 1.785 3.912 2.678 6.432 2.678h14.87v4.492H4.154v7.934c-1.203.363-2.196 1.056-2.979 2.078C.391 48.112 0 49.28 0 50.593c0 1.609.565 2.98 1.696 4.11 1.13 1.132 2.496 1.698 4.098 1.698 1.608 0 2.977-.566 4.107-1.698 1.13-1.13 1.696-2.501 1.696-4.11 0-1.313-.394-2.481-1.183-3.504-.783-1.022-1.757-1.697-2.924-2.024l-.054-.054v-4.656h18.923v4.71a5.828 5.828 0 00-2.979 2.056c-.783 1.001-1.174 2.159-1.174 3.472 0 1.609.565 2.98 1.695 4.11 1.13 1.132 2.497 1.698 4.099 1.698 1.602 0 2.968-.566 4.099-1.698 1.13-1.13 1.695-2.501 1.695-4.11 0-1.313-.391-2.47-1.174-3.472-.783-1.007-1.758-1.692-2.924-2.056h-.055v-4.71h18.923v4.71a5.827 5.827 0 00-2.978 2.056c-.789 1.001-1.183 2.159-1.183 3.472 0 1.609.566 2.98 1.696 4.11 1.13 1.132 2.5 1.698 4.107 1.698 1.602 0 2.968-.566 4.098-1.698 1.13-1.13 1.696-2.501 1.696-4.11 0-1.313-.392-2.47-1.174-3.472-.783-1.007-1.758-1.692-2.925-2.056h-.054zM5.63 23.5v-.055c0-1.422.467-2.673 1.4-3.752.928-1.075 2.085-1.74 3.469-1.993l1.75-.28-.381-1.698a7.978 7.978 0 01-.249-1.121 9.196 9.196 0 01-.078-1.23c0-2.663.957-4.952 2.87-6.867 1.914-1.915 4.218-2.873 6.915-2.873 1.97 0 3.738.52 5.304 1.558a9.897 9.897 0 013.555 4.08v.054l.77 1.588 1.532-.825a6.87 6.87 0 011.555-.6 6.876 6.876 0 011.72-.218h.054c1.897 0 3.53.657 4.9 1.97 1.363 1.313 2.102 2.92 2.216 4.819l.055 1.588h1.524c1.644 0 3.031.563 4.161 1.69 1.13 1.131 1.696 2.52 1.696 4.165 0 1.604-.576 2.971-1.727 4.103-1.146 1.131-2.522 1.697-4.13 1.697H11.488c-1.608 0-2.984-.566-4.13-1.697-1.151-1.132-1.727-2.5-1.727-4.103zm2.683 27.093c0 .695-.246 1.29-.738 1.783a2.426 2.426 0 01-1.782.74c-.69 0-1.28-.247-1.773-.74a2.431 2.431 0 01-.739-1.783c0-.69.247-1.282.74-1.775a2.417 2.417 0 011.772-.74 2.43 2.43 0 011.782.74c.492.493.738 1.085.738 1.775zm22.198 0a2.45 2.45 0 01-.73 1.783 2.426 2.426 0 01-1.782.74 2.426 2.426 0 01-1.781-.74 2.444 2.444 0 01-.731-1.783c0-.69.244-1.282.73-1.775a2.426 2.426 0 011.782-.74c.695 0 1.288.247 1.781.74.488.493.731 1.085.731 1.775zm19.694 2.522a2.426 2.426 0 01-1.782-.74 2.431 2.431 0 01-.738-1.782c0-.69.246-1.282.738-1.775a2.426 2.426 0 011.782-.74c.69 0 1.28.247 1.773.74.492.493.739 1.085.739 1.775 0 .695-.247 1.29-.74 1.783a2.417 2.417 0 01-1.772.74z"/></symbol><symbol viewBox="0 0 48 48" id="congty" xmlns="http://www.w3.org/2000/svg"><path d="M19.78 7.033c0 .374-.14.7-.42.98a1.34 1.34 0 01-.986.427c-.374 0-.7-.142-.98-.427a1.333 1.333 0 01-.427-.98c0-.377.142-.706.427-.986.28-.28.606-.42.98-.42.378 0 .706.14.986.42.28.28.42.609.42.986zm11.254 0c0 .374-.142.7-.427.98-.28.285-.607.427-.98.427a1.34 1.34 0 01-.987-.427c-.28-.28-.42-.606-.42-.98 0-.377.14-.706.42-.986.28-.28.61-.42.987-.42.373 0 .7.14.98.42.285.28.427.609.427.986zm-5.627 0c0 .374-.14.7-.42.98-.284.285-.613.427-.987.427-.373 0-.702-.142-.986-.427-.28-.28-.42-.606-.42-.98 0-.377.14-.706.42-.986a1.365 1.365 0 011.973 0c.28.28.42.609.42.986zm-5.627 5.62c0 .378-.14.707-.42.987-.28.28-.608.42-.986.42-.374 0-.7-.14-.98-.42a1.34 1.34 0 01-.427-.987c0-.373.142-.7.427-.98.28-.28.606-.42.98-.42.378 0 .706.14.986.42.28.28.42.607.42.98zm11.254 0c0 .378-.142.707-.427.987-.28.28-.607.42-.98.42a1.35 1.35 0 01-.987-.42 1.35 1.35 0 01-.42-.987c0-.373.14-.7.42-.98.28-.28.61-.42.987-.42.373 0 .7.14.98.42.285.28.427.607.427.98zm-5.627 0c0 .378-.14.707-.42.987a1.365 1.365 0 01-1.973 0 1.35 1.35 0 01-.42-.987c0-.373.14-.7.42-.98a1.365 1.365 0 011.973 0c.28.28.42.607.42.98zM19.78 18.28c0 .378-.14.707-.42.987-.28.28-.608.42-.986.42-.374 0-.7-.14-.98-.42a1.34 1.34 0 01-.427-.987c0-.373.142-.7.427-.98.28-.284.606-.427.98-.427.378 0 .706.143.986.427.28.28.42.607.42.98zm11.254 0c0 .378-.142.707-.427.987-.28.28-.607.42-.98.42a1.35 1.35 0 01-.987-.42 1.35 1.35 0 01-.42-.987c0-.373.14-.7.42-.98a1.34 1.34 0 01.987-.427c.373 0 .7.143.98.427.285.28.427.607.427.98zm-5.627 0c0 .378-.14.707-.42.987a1.365 1.365 0 01-1.973 0 1.35 1.35 0 01-.42-.987c0-.373.14-.7.42-.98.284-.284.613-.427.986-.427.374 0 .703.143.987.427.28.28.42.607.42.98zM19.78 29.533c0 .374-.14.7-.42.98a1.34 1.34 0 01-.986.427c-.374 0-.7-.142-.98-.427a1.333 1.333 0 01-.427-.98c0-.377.142-.706.427-.986.28-.28.606-.42.98-.42.378 0 .706.14.986.42.28.28.42.609.42.986zm11.254 0c0 .374-.142.7-.427.98-.28.285-.607.427-.98.427a1.34 1.34 0 01-.987-.427c-.28-.28-.42-.606-.42-.98 0-.377.14-.706.42-.986.28-.28.61-.42.987-.42.373 0 .7.14.98.42.285.28.427.609.427.986zm-5.627 0c0 .374-.14.7-.42.98-.284.285-.613.427-.987.427-.373 0-.702-.142-.986-.427-.28-.28-.42-.606-.42-.98 0-.377.14-.706.42-.986a1.365 1.365 0 011.973 0c.28.28.42.609.42.986zm-5.627 5.62c0 .378-.14.707-.42.987-.28.28-.608.42-.986.42-.374 0-.7-.14-.98-.42a1.34 1.34 0 01-.427-.987c0-.373.142-.7.427-.98.28-.28.606-.42.98-.42.378 0 .706.14.986.42.28.28.42.607.42.98zm11.254 0c0 .378-.142.707-.427.987-.28.28-.607.42-.98.42a1.35 1.35 0 01-.987-.42 1.35 1.35 0 01-.42-.987c0-.373.14-.7.42-.98.28-.28.61-.42.987-.42.373 0 .7.14.98.42.285.28.427.607.427.98zm-5.627 0c0 .378-.14.707-.42.987a1.365 1.365 0 01-1.973 0 1.35 1.35 0 01-.42-.987c0-.373.14-.7.42-.98a1.365 1.365 0 011.973 0c.28.28.42.607.42.98zM19.78 23.907c0 .373-.14.702-.42.986-.28.28-.608.42-.986.42-.374 0-.7-.14-.98-.42-.285-.284-.427-.613-.427-.986 0-.374.142-.703.427-.987.28-.28.606-.42.98-.42.378 0 .706.14.986.42.28.284.42.613.42.987zm11.254 0c0 .373-.142.702-.427.986-.28.28-.607.42-.98.42a1.35 1.35 0 01-.987-.42 1.365 1.365 0 010-1.973c.28-.28.61-.42.987-.42.373 0 .7.14.98.42.285.284.427.613.427.987zm-5.627 0c0 .373-.14.702-.42.986a1.365 1.365 0 01-1.973 0 1.365 1.365 0 010-1.973 1.365 1.365 0 011.973 0c.28.284.42.613.42.987zM42.28 18.28c0 .378-.14.707-.42.987-.28.28-.608.42-.986.42-.374 0-.7-.14-.98-.42a1.34 1.34 0 01-.427-.987c0-.373.142-.7.427-.98a1.342 1.342 0 011.966 0c.28.28.42.607.42.98zm0 5.627c0 .373-.14.702-.42.986-.28.28-.608.42-.986.42-.374 0-.7-.14-.98-.42-.285-.284-.427-.613-.427-.986 0-.374.142-.703.427-.987.28-.28.606-.42.98-.42.377 0 .706.14.986.42.28.284.42.613.42.987zm0 5.626c0 .374-.14.7-.42.98a1.34 1.34 0 01-.986.427c-.374 0-.7-.142-.98-.427a1.333 1.333 0 01-.427-.98c0-.377.142-.706.427-.986.28-.28.606-.42.98-.42.377 0 .706.14.986.42.28.28.42.609.42.986zm0 5.62c0 .378-.14.707-.42.987-.28.28-.608.42-.986.42-.374 0-.7-.14-.98-.42a1.34 1.34 0 01-.427-.987c0-.373.142-.7.427-.98.28-.28.606-.42.98-.42.377 0 .706.14.986.42.28.28.42.607.42.98zm4.22-23.9h-9.846V1.407c0-.374-.14-.703-.42-.987-.28-.28-.607-.42-.98-.42h-22.5c-.378 0-.707.14-.987.42-.28.284-.42.613-.42.987v9.846H1.5c-.373 0-.702.14-.986.42-.28.28-.42.607-.42.98v33.94c0 .374.14.703.42.987.284.28.613.42.986.42h45c.374 0 .703-.14.987-.42.28-.284.42-.613.42-.987v-33.94c0-.373-.14-.7-.42-.98a1.365 1.365 0 00-.987-.42zM11.347 14.06v31.127H8.534V40.78c0-.373-.142-.7-.427-.98a1.333 1.333 0 00-.98-.427 1.34 1.34 0 00-.987.427c-.28.28-.42.607-.42.98v4.407H2.907V14.06h8.44zm11.247 28.127v3H19.78v-3h2.814zm5.626 0v3h-2.813v-3h2.813zm5.627-39.374v42.374h-2.813V40.78c0-.373-.142-.7-.427-.98a1.333 1.333 0 00-.98-.427H18.374c-.374 0-.7.143-.98.427-.285.28-.427.607-.427.98v4.407h-2.813V2.813h19.693zM45.094 14.06v31.127H42.28V40.78c0-.373-.14-.7-.42-.98a1.34 1.34 0 00-.986-.427c-.374 0-.7.143-.98.427-.285.28-.427.607-.427.98v4.407h-2.813V14.06h8.44zm-36.56 4.22c0 .378-.142.707-.427.987-.28.28-.607.42-.98.42a1.35 1.35 0 01-.987-.42 1.35 1.35 0 01-.42-.987c0-.373.14-.7.42-.98a1.34 1.34 0 01.987-.427c.373 0 .7.143.98.427.285.28.427.607.427.98zm0 5.627c0 .373-.142.702-.427.986-.28.28-.607.42-.98.42a1.35 1.35 0 01-.987-.42 1.365 1.365 0 010-1.973c.28-.28.61-.42.987-.42.373 0 .7.14.98.42.285.284.427.613.427.987zm0 5.626c0 .374-.142.7-.427.98-.28.285-.607.427-.98.427a1.34 1.34 0 01-.987-.427c-.28-.28-.42-.606-.42-.98 0-.377.14-.706.42-.986.28-.28.61-.42.987-.42.373 0 .7.14.98.42.285.28.427.609.427.986zm0 5.62c0 .378-.142.707-.427.987-.28.28-.607.42-.98.42a1.35 1.35 0 01-.987-.42 1.35 1.35 0 01-.42-.987c0-.373.14-.7.42-.98.28-.28.61-.42.987-.42.373 0 .7.14.98.42.285.28.427.607.427.98z"/></symbol><symbol viewBox="0 0 63 64" id="curl" xmlns="http://www.w3.org/2000/svg"><g clip-path="url(#alclip0_2003_3652)"><path d="M61.332 24.73a.91.91 0 110-1.822.91.91 0 010 1.822zm-9.048 15.566a.911.911 0 110-1.822.911.911 0 010 1.822zm9.048-18.145c-.92 0-1.668.747-1.668 1.668 0 .197.05.38.112.555l-7.824 13.41c-.756.158-1.336.798-1.336 1.601a1.668 1.668 0 003.335 0c0-.185-.05-.354-.104-.52L61.71 25.41c.733-.175 1.29-.804 1.29-1.59 0-.922-.747-1.669-1.668-1.669zm-6.824 2.579a.91.91 0 110-1.822.91.91 0 010 1.822zm-9.049 15.566a.911.911 0 11.001-1.823.911.911 0 010 1.823zm9.049-18.145c-.922 0-1.668.747-1.668 1.668 0 .197.05.38.112.555l-7.824 13.41c-.757.158-1.337.798-1.337 1.601a1.668 1.668 0 003.336 0c0-.185-.05-.354-.105-.52l7.864-13.455c.733-.175 1.29-.804 1.29-1.59a1.67 1.67 0 00-1.668-1.669zm-12.462 5.368a.911.911 0 110 1.823.911.911 0 010-1.823zm0 2.579c.921 0 1.668-.747 1.668-1.668 0-.185-.05-.355-.105-.521-.221-.662-.827-1.147-1.563-1.147-.117 0-.22.044-.332.067-.756.158-1.336.797-1.336 1.6 0 .922.747 1.669 1.668 1.669zm-.911 4.159a.911.911 0 111.822 0 .911.911 0 01-1.822 0zm2.579 0c0-.185-.05-.354-.105-.52-.221-.663-.826-1.147-1.563-1.147-.117 0-.22.043-.332.066-.756.159-1.336.798-1.336 1.601a1.668 1.668 0 003.336 0z"/></g><defs><clipPath id="alclip0_2003_3652"><path transform="translate(0 .102)" d="M0 0h63v63H0z"/></clipPath></defs></symbol><symbol viewBox="0 0 56 57" id="data" xmlns="http://www.w3.org/2000/svg"><path d="M35.762 49.83v-3.285h3.282v3.285h-3.282zm-12.25 0v-3.285h8.976v3.285h-8.976zm0-13.142V33.41h8.976v3.278h-8.976zm12.25 0V33.41h3.282v3.278h-3.282zM16.956 49.83v-3.285h3.282v3.285h-3.282zm0-13.142V33.41h3.282v3.278h-3.282zm30.73-20.857c-.472-2.662-1.748-4.879-3.827-6.649-2.08-1.77-4.503-2.654-7.272-2.654-.695 0-1.361.054-2 .163-.637.11-1.264.275-1.881.498h.054c-1.24-2.08-2.927-3.742-5.063-4.982C25.566.967 23.224.346 20.673.346c-1.97 0-3.81.363-5.522 1.09a14.856 14.856 0 00-4.488 3.067A14.871 14.871 0 007.6 8.996a14.278 14.278 0 00-1.089 5.527c0 .327.008.636.023.927.021.296.05.589.086.88v-.055c-1.934.69-3.52 1.884-4.76 3.581C.619 21.553 0 23.461 0 25.578c0 2.736.967 5.071 2.901 7.007 1.929 1.936 4.244 2.904 6.946 2.904h.544v20.912H45.61V35.489h.544c2.738 0 5.064-.968 6.977-2.904C55.043 30.65 56 28.314 56 25.578c0-2.444-.793-4.58-2.38-6.407-1.587-1.822-3.547-2.935-5.88-3.34h-.054zm-5.36 14.294v9.849H13.674v-9.849h28.654zm0 22.99H13.674V43.26h28.654v9.856zm3.827-20.966v.055h-.544V26.84H10.39v5.364h-.544c-1.826 0-3.376-.649-4.651-1.947-1.276-1.292-1.914-2.852-1.914-4.679 0-1.603.519-3.018 1.556-4.243 1.042-1.22 2.346-1.959 3.912-2.218l1.75-.327-.381-1.698a7.702 7.702 0 01-.249-1.175c-.052-.42-.078-.867-.078-1.34 0-1.5.29-2.906.871-4.219a11.288 11.288 0 012.35-3.503 10.692 10.692 0 013.445-2.297c1.317-.581 2.74-.872 4.27-.872 2.152 0 4.101.573 5.849 1.72 1.752 1.153 3.064 2.658 3.935 4.516l.055.055.715 1.533 1.532-.817a7.58 7.58 0 011.774-.685 7.9 7.9 0 011.999-.25c2.151 0 3.992.748 5.522 2.243 1.53 1.5 2.349 3.306 2.458 5.418l.062 1.589h1.579c1.789 0 3.331.638 4.628 1.915 1.29 1.277 1.936 2.829 1.936 4.655 0 1.827-.645 3.38-1.936 4.656-1.297 1.277-2.858 1.915-4.683 1.915z"/></symbol><symbol viewBox="0 0 16 17" id="date" xmlns="http://www.w3.org/2000/svg"><g clip-path="url(#anclip0_120_577)"><path d="M2.418 16.82h11.164c1.17 0 2.122-.951 2.122-2.122V4.126c0-1.17-.951-2.121-2.122-2.121h-.841v-.593a.594.594 0 00-.593-.592.594.594 0 00-.592.592v.593H4.445v-.593A.594.594 0 003.852.82a.594.594 0 00-.593.592v.593h-.841c-1.17 0-2.122.951-2.122 2.121v10.572c0 1.17.952 2.122 2.122 2.122zM1.482 4.126c0-.515.42-.936.936-.936h.841v.593c0 .326.267.592.593.592a.594.594 0 00.593-.592V3.19h7.11v.593c0 .326.267.592.593.592a.594.594 0 00.593-.592V3.19h.841c.516 0 .936.42.936.936v1.73H1.482v-1.73zm0 2.916h13.037v7.656a.939.939 0 01-.937.937H2.418a.938.938 0 01-.936-.937V7.042z"/></g><defs><clipPath id="anclip0_120_577"><path transform="translate(0 .82)" d="M0 0h16v16H0z"/></clipPath></defs></symbol><symbol viewBox="0 0 48 48" id="dichvu" xmlns="http://www.w3.org/2000/svg"><path d="M25.399 0c-1.565 0-2.91.562-4.034 1.687-1.124 1.124-1.687 2.469-1.687 4.033 0 1.56.563 2.905 1.687 4.034 1.125 1.125 2.47 1.687 4.034 1.687 1.564 0 2.894-.562 3.987-1.687 1.094-1.129 1.64-2.473 1.64-4.034 0-1.564-.546-2.909-1.64-4.033C28.293.562 26.964 0 25.399 0zm6.234 11.44a8.633 8.633 0 01-2.74 2.034 7.95 7.95 0 01-3.494.78c-1.25 0-2.42-.26-3.514-.78a9.104 9.104 0 01-2.813-2.033 8.458 8.458 0 00-1.62 2.553 7.986 7.986 0 00-.587 3.067v1.407c0 .378.142.707.426.987.28.28.607.42.98.42h14.162c.373 0 .7-.14.98-.42a1.34 1.34 0 00.427-.987v-1.407a7.986 7.986 0 00-.587-3.066 8.458 8.458 0 00-1.62-2.554zM13.584 43.178L6.41 28.782a2.733 2.733 0 00-1.613-1.406c-.738-.25-1.45-.203-2.134.14l-1.873.94a1.44 1.44 0 00-.707.82c-.124.36-.109.71.047 1.053l8.44 16.875c.187.378.46.62.82.727.36.11.712.088 1.054-.067l1.874-.94a2.705 2.705 0 001.406-1.614c.25-.738.203-1.449-.14-2.133zm33.237-19.975a2.63 2.63 0 00-1.9-.487 2.9 2.9 0 00-1.8.867l-7.688 9.467c-.253.28-.597.498-1.033.654-.436.16-.78.24-1.034.24h-6.56c-.41 0-.745-.134-1.007-.4-.267-.267-.4-.603-.4-1.007 0-.409.133-.745.4-1.007.262-.267.598-.4 1.007-.4h5.627c.778 0 1.44-.273 1.987-.82a2.703 2.703 0 00.827-1.993c0-.783-.276-1.447-.827-1.994a2.706 2.706 0 00-1.987-.82H25.073c-.348 0-.63-.093-.848-.28a37.783 37.783 0 01-.746-.66c-1.094-.969-2.414-1.665-3.96-2.087-1.552-.418-3.154-.424-4.808-.02-.907.187-1.696.47-2.367.847-.67.373-1.32.809-1.947 1.307l-.046-.047-2.014 1.787 8.014 16.028h16.082c1.311 0 2.57-.296 3.774-.887a8.118 8.118 0 002.973-2.487l8.255-11.814a2.739 2.739 0 00.533-2.107c-.107-.782-.489-1.409-1.147-1.88z"/></symbol><symbol viewBox="0 0 25 24" id="group" xmlns="http://www.w3.org/2000/svg"><g clip-path="url(#apclip0_114_1799)"><path d="M20.66 12.812h-1.855c.189.518.292 1.077.292 1.66v7.014c0 .243-.042.476-.119.693h3.069a2.081 2.081 0 002.078-2.078v-3.825a3.468 3.468 0 00-3.464-3.464zm-15.507 1.66c0-.583.103-1.142.293-1.66H3.59a3.468 3.468 0 00-3.465 3.464v3.825a2.08 2.08 0 002.079 2.078h3.068a2.069 2.069 0 01-.119-.693v-7.014zm9.094-3.465h-4.243a3.468 3.468 0 00-3.465 3.465v7.014c0 .383.31.693.693.693h9.786c.383 0 .693-.31.693-.693v-7.014a3.468 3.468 0 00-3.464-3.465zM12.126 1.82a4.171 4.171 0 00-4.167 4.167 4.17 4.17 0 004.167 4.167 4.17 4.17 0 004.167-4.167 4.171 4.171 0 00-4.167-4.166zM4.81 5.704A3.12 3.12 0 001.692 8.82a3.12 3.12 0 004.344 2.864 3.135 3.135 0 001.522-1.4 3.09 3.09 0 00.366-1.464A3.12 3.12 0 004.81 5.704zm14.632 0a3.12 3.12 0 00-3.116 3.116c0 .529.133 1.027.366 1.464a3.14 3.14 0 001.522 1.4 3.12 3.12 0 004.344-2.863 3.12 3.12 0 00-3.116-3.117z"/></g><defs><clipPath id="apclip0_114_1799"><path transform="translate(.125)" d="M0 0h24v24H0z"/></clipPath></defs></symbol><symbol viewBox="0 0 15 15" id="info" xmlns="http://www.w3.org/2000/svg"><path d="M7.872 14.537c3.815 0 6.973-3.165 6.973-6.973 0-3.814-3.165-6.972-6.98-6.972C4.058.592.9 3.75.9 7.564c0 3.808 3.165 6.973 6.973 6.973zM7.811 5.07a.92.92 0 01-.923-.93.92.92 0 111.839 0c0 .52-.404.93-.916.93zm-1.17 6.385a.5.5 0 01-.519-.506c0-.273.226-.499.52-.499h.868V7.236h-.752a.498.498 0 01-.513-.506c0-.273.226-.499.513-.499h1.326c.362 0 .554.26.554.643v3.575h.868c.294 0 .52.226.52.5a.5.5 0 01-.52.505H6.642z"/></symbol><symbol viewBox="0 0 14 14" id="lang" xmlns="http://www.w3.org/2000/svg"><path d="M7 0C3.13 0 0 3.13 0 7s3.13 7 7 7 7-3.13 7-7-3.13-7-7-7zM4.887.953c-.37.519-.684 1.065-.948 1.638H2.351A6.348 6.348 0 014.887.953zM1.85 3.187h1.839a10.532 10.532 0 00-.705 3.515H.604A6.385 6.385 0 011.85 3.187zm0 7.626A6.385 6.385 0 01.604 7.298h2.38a10.46 10.46 0 00.715 3.515h-1.85zm.502.596h1.603c.266.573.581 1.125.945 1.643a6.37 6.37 0 01-2.55-1.642zm4.351 1.99a6.825 6.825 0 01-.879-.1 10.115 10.115 0 01-1.21-1.887h2.09v1.987zm0-2.585H4.34a9.963 9.963 0 01-.761-3.516h3.123v3.515zm0-4.112H3.58a10 10 0 01.756-3.515h2.367v3.515zm.003-4.111H4.607A9.78 9.78 0 015.823.704c.287-.054.581-.086.882-.1v1.987zm5.445.595a6.356 6.356 0 011.246 3.516h-2.38a10.474 10.474 0 00-.715-3.515h1.85zm-.5-.595h-1.604A10.544 10.544 0 009.1.948a6.36 6.36 0 012.55 1.643zM7.297.604c.298.014.592.049.879.1.475.587.881 1.22 1.21 1.887h-2.09V.604zm0 2.583H9.66a9.95 9.95 0 01.761 3.515H7.298V3.187zm0 4.11h3.123a10.036 10.036 0 01-.756 3.516H7.298V7.298zm-.003 6.099v-1.987h2.099a9.78 9.78 0 01-1.216 1.887 6.34 6.34 0 01-.882.1zm1.804-.344c.363-.518.678-1.07.941-1.643h1.612A6.391 6.391 0 019.1 13.052zm1.193-2.239a10.98 10.98 0 00.722-3.515h2.385a6.386 6.386 0 01-1.246 3.515h-1.86z"/></symbol><symbol viewBox="0 0 53 53" id="link" xmlns="http://www.w3.org/2000/svg"><path d="M30.652 36.874a.538.538 0 00-.757 0l-7.781 7.782c-3.603 3.602-9.683 3.984-13.66 0-3.985-3.985-3.604-10.058 0-13.661l7.78-7.781a.538.538 0 000-.757l-2.665-2.665a.538.538 0 00-.757 0l-7.78 7.781c-5.666 5.665-5.666 14.833 0 20.491 5.664 5.659 14.832 5.665 20.49 0l7.782-7.781a.538.538 0 000-.757l-2.652-2.652zm17.317-31.74c-5.665-5.666-14.833-5.666-20.491 0l-7.788 7.78a.537.537 0 000 .757l2.658 2.659c.208.207.55.207.757 0l7.781-7.781c3.603-3.603 9.683-3.985 13.66 0 3.985 3.984 3.604 10.058 0 13.66l-7.78 7.782a.538.538 0 000 .756l2.665 2.665a.537.537 0 00.757 0l7.78-7.78c5.66-5.666 5.66-14.833 0-20.499zm-14.9 12.113a.538.538 0 00-.757 0L17.145 32.408a.537.537 0 000 .757l2.652 2.651a.537.537 0 00.757 0l15.16-15.16a.538.538 0 000-.757l-2.645-2.652z"/></symbol><symbol viewBox="0 0 61 61" id="node" xmlns="http://www.w3.org/2000/svg"><path d="M30.5 5.227a4.04 4.04 0 00-1.95.5l-18.6 10.75c-1.2.7-1.95 2-1.95 3.4v21.45c0 1.4.75 2.7 1.95 3.4l4.875 2.8C17.2 48.677 18 48.702 19.1 48.702c3.5 0 5.525-2.125 5.525-5.825V21.702c0-.3-.25-.55-.55-.55H21.75a.56.56 0 00-.575.55v21.175c0 1.65-1.7 3.275-4.425 1.9l-5.125-2.925a.65.65 0 01-.275-.525v-21.45c0-.225.1-.425.275-.525l18.6-10.725c.15-.1.4-.1.55 0l18.6 10.725c.175.1.275.3.275.525v21.45c0 .2-.1.4-.275.525l-18.6 10.725c-.15.1-.4.1-.575 0l-4.7-2.85c-.2-.075-.4-.1-.525-.025-1.325.75-1.575.9-2.8 1.275-.3.1-.775.275.175.8l6.2 3.675c.6.35 1.25.525 1.95.525s1.35-.175 1.95-.525l18.6-10.725c1.2-.7 1.95-2 1.95-3.4v-21.45c0-1.4-.75-2.7-1.95-3.4l-18.6-10.75a3.97 3.97 0 00-1.95-.5zm5 15.375c-5.3 0-8.475 2.225-8.475 5.975 0 4.025 3.15 5.2 8.25 5.7 6.075.6 6.55 1.5 6.55 2.7 0 2.075-1.675 2.95-5.575 2.95-4.95 0-6-1.225-6.375-3.675a.565.565 0 00-.55-.45h-2.4c-.3 0-.525.225-.525.55 0 3.1 1.7 6.85 9.85 6.85 5.875 0 9.25-2.325 9.25-6.375 0-4.025-2.7-5.075-8.425-5.85-5.775-.75-6.35-1.15-6.35-2.5 0-1.125.5-2.625 4.775-2.625 3.75 0 5.225.825 5.8 3.4.05.25.275.425.525.425h2.425c.125 0 .275-.05.375-.175.1-.1.175-.25.125-.4-.35-4.45-3.3-6.5-9.25-6.5z" opacity=".8"/></symbol><symbol viewBox="0 0 24 23" id="person" xmlns="http://www.w3.org/2000/svg"><path fill-rule="evenodd" clip-rule="evenodd" d="M12.251.575a2.242 2.242 0 012.24 2.24v.913a2.24 2.24 0 01-4.48 0v-.913a2.242 2.242 0 012.24-2.24zm2.685 14.328l-.465 6.523c-.04.562-.507.998-1.07.998l-2.298.001a1.075 1.075 0 01-1.073-.998l-.465-6.524h-.538a1.074 1.074 0 01-1.074-1.074V8.457c0-1.186.962-2.148 2.149-2.148h4.297a2.146 2.146 0 012.149 2.148v5.372a1.074 1.074 0 01-1.074 1.074h-.538z"/></symbol><symbol viewBox="0 0 61 31" id="php" xmlns="http://www.w3.org/2000/svg"><path d="M30.5 30.802c-16.575 0-30-6.8-30-15.2 0-8.4 13.425-15.2 30-15.2s30 6.8 30 15.2c0 8.4-13.425 15.2-30 15.2zM17.525 10.927c1.35 0 2.275.25 2.725.775.45.5.55 1.4.325 2.575-.25 1.325-.725 2.175-1.45 2.725-.7.55-1.775.825-3.225.825h-2.175l1.325-6.9h2.475zm-8.75 13.875h3.6l.85-4.375H16.3c1.35 0 2.45-.15 3.325-.425a6.649 6.649 0 002.4-1.45c.6-.55 1.075-1.15 1.45-1.825a6.4 6.4 0 00.775-2.2c.4-1.95.125-3.475-.825-4.55-.975-1.1-2.475-1.625-4.55-1.625h-6.9l-3.2 16.45zM26.9 3.977l-3.2 16.45h3.55l1.85-9.425h2.85c.9 0 1.5.15 1.775.45.275.3.325.85.175 1.65l-1.425 7.325H36.1l1.475-7.675c.325-1.55.075-2.675-.675-3.4-.75-.675-2.125-1-4.125-1H29.6l.9-4.375h-3.6zm18.6 6.95c1.375 0 2.275.25 2.725.775.45.5.55 1.4.325 2.575-.25 1.325-.725 2.175-1.425 2.725-.725.55-1.8.825-3.25.825H41.75l1.25-6.9h2.5zm-8.75 13.875h3.6l.85-4.375h3.05c1.375 0 2.5-.15 3.375-.425.875-.3 1.625-.775 2.375-1.45.6-.55 1.1-1.15 1.45-1.825a7 7 0 00.8-2.2c.375-1.95.1-3.475-.85-4.55-.9-1.1-2.475-1.625-4.55-1.625h-6.875l-3.225 16.45z"/></symbol><symbol viewBox="0 0 51 51" id="python" xmlns="http://www.w3.org/2000/svg"><path d="M43.35 13.352a7.15 7.15 0 017.15 7.15v9.45a7.15 7.15 0 01-7.15 7.15H25.5c0 .975.8 2.4 1.775 2.4H38v4.2a7.15 7.15 0 01-7.15 7.15h-10.7a7.15 7.15 0 01-7.15-7.15v-9.375a7.125 7.125 0 017.15-7.125h13.125a7.124 7.124 0 007.125-7.15v-6.7h2.95zm-10.7 29.475c-1 0-1.8.75-1.8 2.225s.8 1.775 1.8 1.775a1.775 1.775 0 001.775-1.775c0-1.475-.8-2.225-1.775-2.225zm-25-4.475a7.15 7.15 0 01-7.15-7.15v-9.45a7.15 7.15 0 017.15-7.15H25.5c0-.975-.8-2.4-1.775-2.4H13v-4.2a7.15 7.15 0 017.15-7.15h10.7A7.15 7.15 0 0138 8.002v9.375a7.126 7.126 0 01-7.15 7.125H17.725a7.126 7.126 0 00-7.125 7.15v6.7H7.65zm10.7-29.475c1 0 1.8-.75 1.8-2.225s-.8-1.775-1.8-1.775c-.975 0-1.775.3-1.775 1.775 0 1.475.8 2.225 1.775 2.225z"/></symbol><symbol viewBox="0 0 21 20" id="search" xmlns="http://www.w3.org/2000/svg"><path d="M8.925 0C4.069 0 .117 3.951.117 8.808c0 4.856 3.952 8.807 8.808 8.807 4.857 0 8.808-3.95 8.808-8.807S13.782 0 8.925 0zm0 15.99c-3.96 0-7.182-3.223-7.182-7.182 0-3.96 3.222-7.182 7.182-7.182 3.96 0 7.182 3.222 7.182 7.182 0 3.96-3.222 7.181-7.182 7.181z"/><path d="M19.88 18.612l-4.662-4.661a.813.813 0 10-1.15 1.15l4.662 4.66a.81.81 0 001.15 0 .813.813 0 000-1.15z"/></symbol><symbol viewBox="0 0 56 57" id="seo" xmlns="http://www.w3.org/2000/svg"><path d="M28 .346c-3.863 0-7.49.73-10.881 2.188C13.69 3.992 10.71 5.99 8.174 8.528c-2.53 2.533-4.526 5.515-5.988 8.946C.729 20.868 0 24.5 0 28.374c0 3.866.729 7.497 2.186 10.891 1.462 3.43 3.458 6.413 5.988 8.946 2.536 2.538 5.518 4.536 8.945 5.994C20.51 55.67 24.137 56.401 28 56.401c3.863 0 7.49-.732 10.881-2.196 3.428-1.458 6.409-3.456 8.945-5.994 2.535-2.533 4.531-5.515 5.988-8.946C55.272 35.871 56 32.24 56 28.373c0-3.872-.728-7.505-2.186-10.9-1.498-3.388-3.513-6.352-6.043-8.89-2.535-2.538-5.499-4.555-8.89-6.05C35.49 1.076 31.863.347 28 .347zm-1.641 3.612V14.08a33.767 33.767 0 01-3.912-.327 30.932 30.932 0 01-3.687-.763l.272.055c.182-.436.374-.864.576-1.285.197-.42.407-.833.63-1.238a13.768 13.768 0 012.543-3.775 14.505 14.505 0 013.523-2.733l.055-.055zm0 13.407v9.366H16.13c.073-1.9.265-3.76.576-5.583a37.228 37.228 0 011.283-5.255l-.109.273c1.276.327 2.626.592 4.052.794 1.421.197 2.878.332 4.371.405h.055zM16.077 30.016h10.282v9.358c-1.53.036-3.023.164-4.48.382a38.85 38.85 0 00-4.27.88l.272-.055a43.55 43.55 0 01-1.174-5.037 48.54 48.54 0 01-.63-5.473v-.055zM26.25 42.66h.109v10.128a15.376 15.376 0 01-3.578-2.795 13.332 13.332 0 01-2.489-3.666l-.054-.11a22.877 22.877 0 01-.63-1.23 24.38 24.38 0 01-.576-1.292 28.794 28.794 0 013.446-.709 32.36 32.36 0 013.772-.326zm3.391 10.128V42.66c1.312.036 2.598.145 3.858.327 1.255.181 2.502.435 3.741.762l-.272-.054a15.96 15.96 0 01-.6 1.292 69.39 69.39 0 01-.66 1.23 14.155 14.155 0 01-2.512 3.776 14.251 14.251 0 01-3.5 2.74l-.055.055zm0-13.414v-9.358H39.87a42.19 42.19 0 01-.576 5.551 39.891 39.891 0 01-1.283 5.286l.109-.272a35.252 35.252 0 00-4.052-.794 47.289 47.289 0 00-4.371-.413h-.055zM39.87 26.731H29.64v-9.366a36.26 36.26 0 004.488-.382 40.236 40.236 0 004.262-.872l-.327.055a36.981 36.981 0 011.23 5.006c.31 1.77.502 3.586.575 5.45v.109zM29.64 14.079V3.96a14.775 14.775 0 013.555 2.787 14.806 14.806 0 012.512 3.666l.054.11c.223.404.433.817.63 1.237.202.42.394.867.576 1.34-1.094.254-2.25.472-3.47.653-1.223.182-2.49.291-3.802.327h-.055zm8.968-5.138a22.62 22.62 0 00-1.26-2.14 24.604 24.604 0 00-1.416-1.916l.055.054a24.393 24.393 0 014.698 2.22 26.38 26.38 0 014.052 3.035v-.054c-.659.368-1.361.716-2.108 1.043-.747.327-1.504.636-2.271.927l-.218.054a21.361 21.361 0 00-.793-1.806c-.275-.545-.54-1.074-.794-1.588l.055.171zm-21.218 0c-.254.436-.5.908-.739 1.417a59.231 59.231 0 01-.739 1.534l-.054.218c-.913-.29-1.75-.61-2.512-.958a29.207 29.207 0 01-2.248-1.121l.163.109a26.092 26.092 0 014.021-3.005 23.337 23.337 0 014.566-2.141l.163-.055a25.666 25.666 0 00-1.36 1.861c-.442.66-.844 1.334-1.206 2.024l-.055.117zm-2.629 6.29a40.424 40.424 0 00-1.306 5.474 44.687 44.687 0 00-.607 5.971v.055H3.337c.181-2.705.764-5.25 1.75-7.638a24.977 24.977 0 013.88-6.485c.804.472 1.68.926 2.63 1.362.943.442 1.908.844 2.893 1.207l.272.055zM3.337 30.017h9.512c.036 2.076.228 4.1.575 6.073a45.978 45.978 0 001.393 5.745l-.055-.327c-1.13.4-2.185.82-3.165 1.262-.986.436-1.916.91-2.793 1.424l.164-.054a25.11 25.11 0 01-3.881-6.493 24.001 24.001 0 01-1.75-7.575v-.055zm12.522 14.559v.054c.254.618.518 1.202.793 1.752.275.545.54 1.074.794 1.588l-.055-.163a23.43 23.43 0 002.676 4.048l-.055-.054a24.927 24.927 0 01-4.698-2.188 23.986 23.986 0 01-4.052-3.068v.055a29.993 29.993 0 012.085-1.043 21.02 21.02 0 012.294-.872l.218-.11zm22.75 3.23c.254-.44.5-.915.739-1.424.238-.514.466-1.025.684-1.534l.11-.218c.875.29 1.705.61 2.488.958.783.348 1.54.721 2.271 1.12l-.163-.108a25.986 25.986 0 01-4.021 3.013 23.016 23.016 0 01-4.566 2.133l-.163.055c.472-.582.925-1.194 1.36-1.838.442-.638.843-1.32 1.206-2.047l.055-.11zm2.629-6.298c.544-1.712.98-3.537 1.306-5.473a44.66 44.66 0 00.607-5.963v-.055h9.512c-.181 2.699-.764 5.242-1.75 7.63a25.108 25.108 0 01-3.88 6.493 28.19 28.19 0 00-2.63-1.37 37.334 37.334 0 00-2.893-1.207l-.272-.055zm11.425-14.776h-9.512a46.342 46.342 0 00-.607-6.08 42.889 42.889 0 00-1.36-5.746l.054.327c1.13-.4 2.178-.82 3.142-1.262a37.591 37.591 0 002.816-1.417l-.164.055a25.142 25.142 0 013.881 6.454c.986 2.372 1.569 4.892 1.75 7.56v.109z"/></symbol><symbol viewBox="0 0 46 57" id="source" xmlns="http://www.w3.org/2000/svg"><path d="M18.078 23.881l-2.567-2.024-7.716 9.802 7.716 9.794 2.567-2.024-6.121-7.77 6.12-7.778zM27.87 39.43l2.621 2.024 7.715-9.794-7.715-9.802-2.621 2.024 6.121 7.778-6.121 7.77zm-6.51 2.078V21.803h3.282v19.704H21.36zM45.533.346H12.991L.469 12.88V56.4h45.064V.347zM6.045 11.892l5.966-5.964v5.964H6.045zm36.206-8.26v49.483h-38.5V15.177h11.534V3.631h26.966z"/></symbol><symbol viewBox="0 0 49 48" id="spa" xmlns="http://www.w3.org/2000/svg"><path d="M48 29.2c.093-1.093-.32-2.209-1.24-3.347-.924-1.142-2.604-1.853-5.04-2.133.653-.969 1.107-1.922 1.36-2.86.249-.938.296-1.813.14-2.627a3.925 3.925 0 00-.613-1.593 4.9 4.9 0 00-1.167-1.22 3.809 3.809 0 00-1.153-.56A4.53 4.53 0 0039 14.673c-.156 0-.32.016-.493.047l-.494.093.047-.28v-5.44c0-.466-.5-.889-1.5-1.266-.969-.405-2.32-.756-4.053-1.054-1.734-.297-3.756-.54-6.067-.726a110.77 110.77 0 00-7.407-.234c-2.626 0-5.095.078-7.406.234-2.316.186-4.331.429-6.047.726-1.72.298-3.08.65-4.08 1.054-1 .377-1.5.8-1.5 1.266v5.44c0 .436.5.858 1.5 1.267 1 .404 2.36.756 4.08 1.053 1.716.298 3.731.525 6.047.68 2.31.187 4.78.28 7.406.28.814 0 1.618-.008 2.414-.026a94.15 94.15 0 002.32-.067 4.808 4.808 0 00-.047.68c0 .236.016.478.047.727a37.56 37.56 0 01-2.554.093h-2.18c-1.186 0-2.624-.015-4.313-.047a102.254 102.254 0 01-5.133-.326 49.89 49.89 0 01-5.04-.707c-1.596-.311-2.925-.733-3.987-1.267l-.093.327v20.02c0 .467.484.904 1.453 1.313 1 .436 2.336.81 4.007 1.12 1.675.316 3.637.552 5.886.707a87.49 87.49 0 007.22.28c.876 0 1.727-.007 2.554-.02a44.95 44.95 0 002.46-.12l.046.047a4.44 4.44 0 001.174.56c.404.129.826.193 1.266.193.56 0 1.138-.111 1.734-.333a5.875 5.875 0 001.686-.98c.565-.063 1.096-.14 1.594-.234.502-.097.97-.193 1.406-.286.845 1.155 1.68 1.898 2.507 2.226.827.33 1.507.494 2.04.494.311 0 .624-.031.94-.094.311-.062.607-.155.887-.28.502-.248.94-.584 1.313-1.006a4.95 4.95 0 00.893-1.48c.28-.782.365-1.658.254-2.627-.107-.964-.396-1.995-.867-3.093.124.03.242.046.353.046h.307c2.218 0 3.818-.466 4.8-1.4.987-.937 1.527-1.955 1.62-3.053zM19.033 11.673c-2.875 0-5.422-.093-7.64-.28-2.253-.19-4.153-.417-5.7-.68-1.546-.266-2.742-.54-3.586-.82C1.267 9.578.797 9.327.7 9.14c.098-.249.567-.529 1.407-.84.844-.284 2.04-.56 3.586-.827 1.547-.262 3.447-.486 5.7-.673 2.218-.191 4.765-.287 7.64-.287 2.876 0 5.438.096 7.687.287 2.218.187 4.1.404 5.647.653 1.546.25 2.742.531 3.586.847.845.28 1.314.529 1.407.747-.093.249-.562.515-1.407.8-.844.31-2.04.6-3.586.866-1.547.263-3.43.49-5.647.68-2.249.187-4.811.28-7.687.28zM35.3 16.22a13.71 13.71 0 00-.873.84c-.294.316-.583.66-.867 1.033a9.357 9.357 0 00-.793-1.313c.497-.093.957-.187 1.38-.28.422-.093.806-.187 1.153-.28zM19.033 35.673c-2.284 0-4.362-.077-6.233-.233a61.672 61.672 0 01-4.833-.493c-1.374-.205-2.514-.416-3.42-.634-.876-.248-1.516-.469-1.92-.66v-10.92a32.44 32.44 0 003.933.754 75.41 75.41 0 004.267.44c1.44.11 2.83.198 4.173.26 1.342.03 2.56.046 3.653.046-.342.378-.6.785-.773 1.22a5.92 5.92 0 00-.347 1.314 4.72 4.72 0 00.207 1.686c.173.534.462 1.018.867 1.454.533.657 1.237 1.18 2.113 1.566.876.392 1.907.651 3.093.78-.373.591-.677 1.16-.913 1.707a9.614 9.614 0 00-.54 1.62c-.533.031-1.073.053-1.62.067a54.97 54.97 0 01-1.707.026zm21.514-3.613a6.28 6.28 0 01-1.714-.347 18.039 18.039 0 01-1.66-.68c.436.405.843.843 1.22 1.314.374.466.685.966.934 1.5.813 1.715 1.117 3.135.913 4.26-.2 1.129-.722 1.895-1.567 2.3-.875.404-1.813.326-2.813-.234-1-.564-1.907-1.689-2.72-3.373a7.723 7.723 0 01-.56-1.693 11.559 11.559 0 01-.233-1.78 11.477 11.477 0 01-.52 1.733 6.648 6.648 0 01-.84 1.547c-1.063 1.564-2.134 2.542-3.214 2.933s-2.009.304-2.786-.26c-.783-.529-1.19-1.364-1.22-2.507-.031-1.142.5-2.493 1.593-4.053a6.733 6.733 0 011.147-1.313c.453-.405.93-.78 1.433-1.127-.564.187-1.144.327-1.74.42a6.634 6.634 0 01-1.78.053c-1.876-.128-3.249-.566-4.12-1.313-.876-.751-1.282-1.596-1.22-2.533.093-.97.631-1.742 1.613-2.32.987-.578 2.418-.805 4.294-.68.56.062 1.129.186 1.706.373a10.19 10.19 0 011.667.707 16.5 16.5 0 01-1.22-1.36 8.686 8.686 0 01-.94-1.454c-.809-1.72-1.113-3.142-.913-4.266.204-1.125.744-1.891 1.62-2.3.844-.405 1.766-.334 2.766.213s1.907 1.68 2.72 3.4a7.59 7.59 0 01.56 1.687c.125.595.203 1.189.234 1.78.155-.591.335-1.17.54-1.734.204-.564.477-1.08.82-1.546 1.062-1.565 2.133-2.543 3.213-2.934 1.076-.386 2.004-.315 2.787.214.813.533 1.226 1.377 1.24 2.533.017 1.156-.52 2.516-1.614 4.08a7.154 7.154 0 01-1.146 1.307 9.988 9.988 0 01-1.434 1.08 15.39 15.39 0 011.76-.374c.61-.093 1.194-.124 1.754-.093 1.875.156 3.26.609 4.153 1.36.889.747 1.287 1.589 1.193 2.527-.062.938-.586 1.704-1.573 2.3-.982.595-2.427.813-4.333.653zm-7.78-6.793c.75 0 1.4.264 1.946.793.547.533.82 1.176.82 1.927 0 .746-.273 1.393-.82 1.94-.546.55-1.195.826-1.946.826a2.604 2.604 0 01-1.92-.8c-.534-.533-.8-1.188-.8-1.966 0-.751.266-1.394.8-1.927a2.615 2.615 0 011.92-.793z"/></symbol></svg>