<svg width="28" height="29" viewBox="0 0 28 29" fill="none" xmlns="http://www.w3.org/2000/svg">
<g clip-path="url(#clip0_19_13)">
<path fill-rule="evenodd" clip-rule="evenodd" d="M14 0.408203C6.11338 0.408203 0 6.18516 0 13.9882C0 18.0697 1.67272 21.5966 4.39678 24.0326C4.62546 24.2373 4.7635 24.524 4.77288 24.8309L4.84912 27.3212C4.87348 28.1156 5.694 28.6325 6.42088 28.3116L9.19968 27.0849C9.43524 26.981 9.6992 26.9617 9.94742 27.03C11.2244 27.3812 12.5834 27.5682 14 27.5682C21.8866 27.5682 28 21.7912 28 13.9882C28 6.18516 21.8866 0.408203 14 0.408203Z" fill="#6610F2"/>
<path fill-rule="evenodd" clip-rule="evenodd" d="M5.59294 17.9602L9.70545 11.4356C10.3596 10.3977 11.7604 10.1392 12.742 10.8753L16.0129 13.3285C16.313 13.5536 16.7259 13.5524 17.0247 13.3256L21.4422 9.97304C22.0318 9.5256 22.8015 10.2312 22.4069 10.8574L18.2944 17.382C17.6402 18.4199 16.2393 18.6784 15.2578 17.9422L11.9869 15.489C11.6868 15.2639 11.2739 15.2651 10.975 15.4919L6.55754 18.8445C5.96795 19.2919 5.19828 18.5863 5.59294 17.9602Z" fill="white"/>
</g>
<defs>
<clipPath id="clip0_19_13">
<rect width="28" height="29" fill="white"/>
</clipPath>
</defs>
</svg>
