<svg width="916" height="295" viewBox="0 0 916 295" fill="none" xmlns="http://www.w3.org/2000/svg">
<g clip-path="url(#clip0_264_2221)">
<path d="M272.99 0C273.541 0.153535 273.933 0.372465 274.35 0.451051C285.161 2.4852 293.109 8.47331 298.281 18.1167C300.666 22.564 301.88 27.4044 301.88 32.4907C301.886 109.124 301.904 185.757 301.856 262.39C301.85 270.956 298.597 278.334 292.727 284.555C288.441 289.097 283.277 292.16 277.265 293.787C275.906 294.155 274.522 294.427 273.143 294.871C245.303 295 217.468 295 189.485 294.852C189.283 293.265 189.455 291.809 189.209 290.286C188.573 290.286 188.107 290.286 187.641 290.286C177.125 290.267 166.61 290.247 156.094 290.233C155.626 290.232 155.157 290.287 154.542 290.294C151.61 290.264 148.825 290.256 146.139 290.207C146.71 290.16 147.183 290.152 147.655 290.152C187.863 290.135 228.071 290.108 268.279 290.114C273.318 290.115 278.068 289.037 282.413 286.494C291.849 280.971 297.068 272.705 297.081 261.731C297.17 185.634 297.124 109.538 297.133 33.4411C297.133 26.6057 295.001 20.5186 290.672 15.284C284.958 8.37548 277.532 4.79446 268.578 4.77108C243.54 4.70572 218.502 4.74643 193.464 4.74188C192.836 4.74176 192.208 4.70208 191.567 4.53772C191.551 2.92973 191.547 1.46486 191.543 1.50607e-07C218.643 1.50607e-07 245.743 1.57923e-07 272.99 0Z" fill="white"/>
<path d="M1.48546e-08 264.047C-1.71785e-06 186.445 -1.70618e-06 108.844 0.0930803 31.0178C0.815007 27.1837 1.45545 23.5965 2.94679 20.1912C6.62462 11.7933 12.7384 5.9189 21.1123 2.41309C23.113 1.5755 25.3183 1.22926 27.4245 0.799805C27.4246 1.82347 27.368 2.71019 27.4501 3.58379C27.5543 4.69135 27.8336 4.9054 28.8893 5.12757C28.655 5.25771 28.5099 5.32008 28.3583 5.35192C22.0423 6.67937 16.5546 9.45693 12.2581 14.4172C7.41719 20.006 5.00304 26.4515 5.00466 33.8678C5.02124 109.694 5.01698 185.52 5.01007 261.347C5.0096 266.558 6.21987 271.431 8.90029 275.908C13.3563 283.351 19.8318 287.938 28.3302 289.638C29.3911 289.85 30.4542 290.052 31.5124 290.405C31.507 292.035 31.5053 293.518 31.5037 295C31.1676 295 30.8315 295 30.2764 294.919C21.233 293.737 13.8473 289.936 8.07292 283.092C3.95089 278.206 1.43227 272.614 0.584253 266.262C0.483973 265.511 0.199235 264.785 1.48546e-08 264.047Z" fill="white"/>
<path d="M43.1602 0C54.9282 0 66.6961 0 78.61 0.147087C78.7577 1.76704 78.7594 3.2399 78.6158 4.74169C66.9604 4.76268 55.4502 4.75519 43.9401 4.74411C43.6801 4.74386 43.4201 4.703 43.161 4.53741C43.1613 2.92916 43.1608 1.46458 43.1602 0Z" fill="white"/>
<path d="M154.688 290.316C155.156 290.287 155.625 290.232 156.093 290.233C166.609 290.247 177.124 290.267 187.64 290.286C188.106 290.286 188.572 290.286 189.208 290.286C189.454 291.809 189.282 293.265 189.337 294.852C177.884 295 166.431 295 154.829 294.853C154.683 293.243 154.686 291.78 154.688 290.316Z" fill="white"/>
<path d="M125.386 295C114.248 295 103.11 295 91.8258 294.853C91.6764 293.233 91.6726 291.76 91.8156 290.261C102.788 290.223 113.613 290.21 124.437 290.202C124.749 290.202 125.061 290.246 125.379 290.416C125.385 292.042 125.385 293.521 125.386 295Z" fill="white"/>
<path d="M99.2363 0C110.164 0 121.092 1.49012e-08 132.167 0.147054C132.321 1.76412 132.328 3.23414 132.187 4.73156C121.578 4.76076 111.117 4.76329 100.656 4.76199C100.186 4.76194 99.7165 4.72729 99.2437 4.56338C99.2391 2.94534 99.2377 1.47267 99.2363 0Z" fill="white"/>
<path d="M125.532 295C125.384 293.521 125.384 292.042 125.525 290.386C132.456 290.223 139.248 290.236 146.04 290.249C148.824 290.256 151.609 290.264 154.541 290.294C154.686 291.78 154.683 293.243 154.682 294.853C145.015 295 135.348 295 125.532 295Z" fill="white"/>
<path d="M132.333 4.70426C132.327 3.23425 132.32 1.76423 132.314 0.147167C141.037 0.000112161 149.76 0.000112176 158.627 0.147082C158.776 1.76029 158.782 3.22653 158.64 4.71787C150.92 4.75033 143.348 4.76036 135.775 4.76218C134.628 4.76246 133.481 4.72452 132.333 4.70426Z" fill="white"/>
<path d="M158.788 4.69279C158.783 3.22655 158.778 1.76031 158.775 0.147099C166.136 0.000129342 173.493 0.000129327 180.999 0.147047C181.15 1.7554 181.153 3.21685 181.009 4.7087C175.487 4.74516 170.11 4.75747 164.733 4.75401C162.751 4.75273 160.77 4.71429 158.788 4.69279Z" fill="white"/>
<path d="M72.458 295C65.6256 295 58.7933 295 51.813 294.853C51.662 293.236 51.6589 291.767 51.8029 290.271C57.6881 290.234 63.4264 290.218 69.1646 290.214C70.2578 290.214 71.351 290.261 72.4484 290.432C72.4544 292.052 72.4562 293.526 72.458 295Z" fill="white"/>
<path d="M99.0893 0C99.2383 1.47267 99.2397 2.94534 99.0984 4.59419C92.2242 4.75117 85.4928 4.73197 78.7614 4.71277C78.7596 3.2399 78.7579 1.76704 78.7578 0.147087C85.4869 0 92.2143 0 99.0893 0Z" fill="white"/>
<path d="M51.6558 290.297C51.6589 291.767 51.662 293.236 51.6653 294.853C45.0432 295 38.4209 295 31.6509 295C31.5049 293.518 31.5066 292.035 31.6582 290.4C36.7586 290.241 41.7091 290.228 46.6595 290.231C48.325 290.232 49.9904 290.274 51.6558 290.297Z" fill="white"/>
<path d="M72.6062 295C72.4567 293.526 72.4549 292.052 72.5966 290.407C77.8002 290.227 82.8603 290.212 87.9205 290.211C89.1698 290.211 90.4191 290.26 91.6684 290.287C91.6721 291.76 91.6759 293.233 91.6777 294.853C85.3685 295 79.0611 295 72.6062 295Z" fill="white"/>
<path d="M43.0131 0C43.1613 1.46458 43.1618 2.92916 43.0166 4.56753C38.2393 4.8427 33.6077 4.94408 28.9762 5.04545C27.8343 4.90529 27.555 4.69126 27.4508 3.5837C27.3687 2.7101 27.4253 1.82338 27.4252 0.799716C28.4232 0.504215 29.4163 0.351469 30.4843 0.09937C34.6613 0 38.7633 0 43.0131 0Z" fill="white"/>
<path d="M181.154 4.67816C181.152 3.21672 181.149 1.75528 181.146 0.146917C184.512 0 187.879 0 191.394 0C191.545 1.46486 191.549 2.92973 191.414 4.55922C187.902 4.70861 184.528 4.69339 181.154 4.67816Z" fill="white"/>
<path d="M93.1914 125.713C90.3534 122.91 87.5149 120.107 84.6779 117.303C84.3789 117.007 84.0904 116.701 83.7939 116.403C64.745 97.2551 45.6967 78.1061 26.6391 58.9665C26.31 58.636 25.8679 58.4187 25.4785 58.1485C25.5566 57.9941 25.6347 57.8396 25.7128 57.6852C26.1995 57.6776 26.6862 57.6633 27.1728 57.6634C52.5763 57.6654 77.9797 57.6808 103.383 57.6411C104.88 57.6387 105.878 58.127 106.511 59.6093C106.251 60.5867 106.034 61.3349 105.863 62.0934C105.383 64.2246 104.922 66.36 104.363 68.4327C103.674 67.7804 103.026 67.2319 102.494 66.5866C101.899 65.8658 101.204 65.686 100.299 65.6873C82.2978 65.712 64.2966 65.7065 46.2954 65.7103C45.9051 65.7104 45.5147 65.7488 44.8719 65.7826C45.4438 66.3837 45.823 66.7988 46.2194 67.1965C62.4314 83.4604 78.6464 99.7213 94.8499 115.994C95.2776 116.423 95.5816 116.977 95.8291 117.524C95.5238 118.042 95.2539 118.493 95.1557 118.978C94.7967 120.752 94.5304 122.545 94.1506 124.314C94.0332 124.86 94.0695 125.638 93.1914 125.713Z" fill="white"/>
<path d="M24.8281 234.232C25.0309 233.994 25.2183 233.739 25.4389 233.518C46.7117 212.197 67.987 190.878 89.3598 169.656C89.6406 171.656 88.9793 173.44 88.6799 175.275C88.2804 177.722 87.5244 180.114 87.5316 182.72C73.0607 197.286 58.6306 211.761 43.9658 226.472C44.8787 226.472 45.3958 226.472 45.9128 226.472C54.4106 226.474 62.9084 226.473 71.4062 226.48C72.7164 226.481 74.0266 226.515 75.2404 226.607C74.7424 226.756 74.3409 226.83 73.8143 226.928C73.1851 229.333 72.7429 231.804 72.303 234.313C56.7952 234.332 41.4342 234.344 26.0733 234.349C25.6582 234.349 25.2431 234.273 24.8281 234.232Z" fill="white"/>
<path d="M177.762 203.698C177.673 203.643 177.57 203.603 177.498 203.531C174.011 200.044 170.525 196.555 167.044 193.061C166.901 192.918 166.802 192.731 166.6 192.45C169.733 189.317 172.849 186.201 176.037 183.013C174.337 180.854 173.5 178.427 173.88 175.678C174.095 174.125 174.766 172.799 175.902 171.68C178.861 168.764 182.533 168.665 187.685 171.488C190.615 168.544 193.572 165.572 196.677 162.451C200.525 166.308 204.322 170.115 208.161 174.12C207.914 174.683 207.662 175.085 207.33 175.405C205.109 177.55 202.867 179.672 200.641 181.811C197.848 184.496 195.053 187.177 192.279 189.881C187.815 194.232 183.371 198.604 178.904 202.952C178.584 203.263 178.145 203.452 177.762 203.698Z" fill="white"/>
<path d="M244.154 57.8164C244.573 57.7942 244.991 57.7527 245.409 57.7526C256.592 57.7505 267.776 57.7526 278.959 57.754C279.363 57.754 279.768 57.754 280.448 57.754C280.108 58.19 279.955 58.4357 279.755 58.6355C264.498 73.9337 249.236 89.2283 233.871 104.425C234.13 101.979 234.516 99.6335 234.852 97.2813C235.12 95.3986 235.979 93.582 235.554 91.5314C236.113 90.9235 236.619 90.3919 237.138 89.8723C244.696 82.2942 252.259 74.7201 259.81 67.1338C260.177 66.7647 260.756 66.4855 260.705 65.7341C258.23 65.7341 255.822 65.7419 253.415 65.7323C249.906 65.7184 246.396 65.6922 242.905 65.5479C243.447 62.9072 244.103 60.411 244.154 57.8164Z" fill="white"/>
<path d="M87.5725 182.629C87.5245 180.114 88.2805 177.722 88.68 175.275C88.9794 173.44 89.6407 171.656 89.4555 169.599C89.8411 169.021 90.214 168.583 90.6188 168.177C97.6581 161.118 104.702 154.063 111.743 147.007C112.143 146.607 112.533 146.198 113.006 145.712C106.377 139.06 99.8272 132.487 93.2344 125.813C94.0694 125.638 94.033 124.86 94.1504 124.314C94.5302 122.545 94.7965 120.752 95.1555 118.978C95.2537 118.493 95.5236 118.042 95.9215 117.553C105.576 126.887 115.023 136.244 124.489 145.62C124.102 146.06 123.876 146.348 123.619 146.605C114.943 155.311 106.266 164.016 97.5794 172.712C97.069 173.222 96.4382 173.613 95.9301 174.126C93.1328 176.949 90.3562 179.793 87.5725 182.629Z" fill="white"/>
<path d="M177.803 203.793C178.144 203.452 178.583 203.263 178.903 202.952C183.37 198.604 187.814 194.232 192.278 189.881C195.052 187.177 197.847 184.496 200.64 181.811C202.866 179.672 205.108 177.55 207.329 175.405C207.661 175.085 207.913 174.683 208.21 174.215C211.017 176.888 213.818 179.665 216.62 182.624C214.955 184.383 213.282 185.952 211.626 187.538C208.95 190.101 206.293 192.683 203.608 195.237C203.324 195.506 202.908 195.636 202.554 195.831C200.988 195.696 200.402 195.996 199.954 197.098C199.693 197.741 199.728 198.292 200.317 198.966C199.89 199.732 199.477 200.336 198.962 200.834C197.877 201.883 196.718 202.854 195.628 203.897C192.687 206.709 189.767 209.543 186.836 212.365C186.762 212.436 186.662 212.479 186.574 212.535C184.501 210.495 182.424 208.458 180.355 206.414C179.51 205.58 178.681 204.73 177.803 203.793Z" fill="white"/>
<path d="M216.139 122.293C215.174 123.297 214.226 124.317 213.244 125.303C201.639 136.957 190.029 148.606 178.419 160.254C178.052 160.623 177.667 160.974 177.201 161.42C176.202 160.488 175.251 159.602 174.311 158.509C174.8 156.151 175.333 154.009 175.729 151.843C175.859 151.132 176.217 150.752 176.815 150.328C189.905 137.213 202.919 124.173 215.937 111.137C216.567 110.507 217.228 109.909 217.904 109.449C217.947 110.069 218.04 110.55 217.96 111C217.625 112.879 217.203 114.743 216.88 116.625C216.558 118.503 215.903 120.341 216.139 122.293Z" fill="white"/>
<path d="M160.647 98.111C160.813 97.9108 160.963 97.6958 161.146 97.5126C167.37 91.2657 173.515 84.9361 179.848 78.8028C185.6 73.2331 192.142 68.7361 199.657 65.3821C200.03 65.6929 200.325 66.0116 200.286 66.2809C200.096 67.5686 199.805 68.8407 199.572 70.1224C199.292 71.6605 199.035 73.2026 198.676 74.8066C195.976 76.6213 193.298 78.2796 190.774 80.1465C187.374 82.6615 184.376 85.6388 181.411 88.6607C174.31 95.8956 167.114 103.035 159.952 110.209C159.584 110.578 159.178 110.909 158.787 111.114C159.049 109.132 159.319 107.295 159.58 105.457C159.928 103.007 160.859 100.642 160.647 98.111Z" fill="white"/>
<path d="M176.74 150.403C176.218 150.752 175.86 151.132 175.73 151.843C175.334 154.009 174.801 156.151 174.272 158.41C172.469 157.173 170.48 156.425 168.288 156.296C164.174 156.055 160.975 157.987 160.274 162.328C160.011 163.959 160.078 165.667 160.179 167.328C160.314 169.538 161.929 170.938 163.291 172.449C163.568 172.757 163.854 173.056 164.203 173.431C158.907 179.571 153.469 185.507 147.534 191.003C147.406 190.473 147.305 190.006 147.383 189.571C147.954 186.397 148.543 183.225 149.172 180.062C149.296 179.437 149.378 178.927 148.774 178.503C150.182 176.943 151.538 175.483 152.874 174.005C153.298 173.537 153.601 173.092 153.287 172.331C151.828 168.798 151.589 165.123 152.195 161.369C152.984 156.478 155.288 152.583 159.687 150.148C163.422 148.081 167.44 147.699 171.55 148.655C173.319 149.067 175.012 149.811 176.74 150.403Z" fill="white"/>
<path d="M148.714 178.596C149.377 178.927 149.295 179.437 149.171 180.062C148.542 183.225 147.953 186.397 147.382 189.571C147.304 190.006 147.405 190.473 147.435 191.05C147.172 191.486 146.913 191.813 146.62 192.107C140.253 198.495 133.882 204.879 127.419 211.328C127.325 211.393 127.313 211.384 127.313 211.384C127.276 211.443 127.239 211.503 127.118 211.622C127.034 211.682 127.018 211.681 127.018 211.681C126.977 211.744 126.937 211.806 126.807 211.933C126.718 211.998 126.702 211.997 126.702 211.997C126.662 212.06 126.621 212.122 126.492 212.249C126.403 212.313 126.386 212.313 126.386 212.313C126.346 212.376 126.306 212.438 126.177 212.565C126.088 212.629 126.07 212.629 126.07 212.629C126.03 212.691 125.99 212.754 125.862 212.88C125.773 212.944 125.755 212.945 125.755 212.945C125.715 213.007 125.675 213.07 125.546 213.196C125.457 213.26 125.439 213.261 125.439 213.261C125.399 213.323 125.36 213.386 125.231 213.512C125.142 213.576 125.123 213.578 125.123 213.578C125.084 213.64 125.044 213.701 124.916 213.827C124.827 213.891 124.807 213.894 124.807 213.894C124.768 213.956 124.729 214.017 124.601 214.143C124.512 214.207 124.491 214.211 124.491 214.211C124.452 214.272 124.414 214.334 124.286 214.459C124.197 214.522 124.175 214.527 124.175 214.527C124.137 214.588 124.098 214.65 123.971 214.774C123.881 214.838 123.859 214.844 123.859 214.844C123.821 214.905 123.783 214.966 123.656 215.09C123.566 215.153 123.543 215.16 123.543 215.16C123.505 215.221 123.467 215.282 123.34 215.406C123.251 215.469 123.227 215.476 123.227 215.476C123.19 215.537 123.152 215.597 123.025 215.721C122.936 215.785 122.912 215.792 122.912 215.792C122.874 215.853 122.837 215.913 122.71 216.037C122.621 216.1 122.596 216.108 122.596 216.108C122.558 216.169 122.521 216.229 122.395 216.353C122.306 216.416 122.28 216.424 122.28 216.424C122.243 216.485 122.206 216.545 122.08 216.668C121.991 216.731 121.965 216.74 121.965 216.74C121.928 216.801 121.891 216.861 121.764 216.984C121.675 217.047 121.649 217.057 121.649 217.057C121.612 217.117 121.575 217.177 121.449 217.3C121.36 217.362 121.333 217.373 121.333 217.373C121.296 217.433 121.26 217.493 121.134 217.615C121.045 217.678 121.017 217.689 121.017 217.689C120.981 217.749 120.944 217.809 120.819 217.931C120.73 217.993 120.701 218.005 120.701 218.005C120.665 218.065 120.629 218.125 120.504 218.247C120.415 218.309 120.385 218.322 120.385 218.322C120.35 218.381 120.314 218.441 120.189 218.562C120.1 218.625 120.07 218.638 120.07 218.638C120.034 218.697 119.998 218.757 119.874 218.878C119.785 218.94 119.754 218.955 119.754 218.955C119.718 219.014 119.683 219.073 119.559 219.194C119.47 219.256 119.438 219.271 119.438 219.271C119.403 219.33 119.368 219.389 119.244 219.509C119.155 219.571 119.122 219.588 119.122 219.588C119.087 219.646 119.052 219.705 118.929 219.825C118.84 219.887 118.806 219.905 118.806 219.905C118.771 219.963 118.737 220.021 118.614 220.141C118.525 220.202 118.489 220.221 118.489 220.221C118.456 220.279 118.422 220.337 118.299 220.456C118.21 220.518 118.173 220.538 118.173 220.538C118.14 220.596 118.106 220.653 117.984 220.772C117.895 220.833 117.857 220.856 117.857 220.856C117.824 220.913 117.791 220.97 117.669 221.088C117.581 221.148 117.54 221.173 117.54 221.173C117.508 221.229 117.475 221.286 117.354 221.403C117.266 221.464 117.224 221.49 117.224 221.49C117.192 221.546 117.16 221.602 117.039 221.719C116.951 221.779 116.908 221.806 116.908 221.806C116.876 221.862 116.844 221.918 116.724 222.035C116.636 222.095 116.592 222.122 116.592 222.122C116.561 222.178 116.529 222.234 116.409 222.35C116.321 222.41 116.277 222.439 116.277 222.439C116.245 222.494 116.213 222.55 116.094 222.666C116.006 222.725 115.961 222.755 115.961 222.755C115.93 222.81 115.898 222.866 115.779 222.981C115.691 223.041 115.646 223.07 115.646 223.07C115.646 223.07 115.586 223.204 115.406 223.237C114.289 223.005 114.659 222.215 114.723 221.699C114.895 220.308 115.247 218.939 115.484 217.554C115.87 215.297 116.222 213.035 116.596 210.74C116.603 210.706 116.671 210.69 116.72 210.664C116.83 210.591 116.874 210.532 116.908 210.426C116.917 210.391 116.986 210.375 117.035 210.348C117.145 210.275 117.188 210.217 117.224 210.11C117.232 210.075 117.302 210.059 117.35 210.032C117.46 209.96 117.503 209.901 117.539 209.794C117.547 209.759 117.617 209.743 117.665 209.717C117.775 209.644 117.818 209.585 117.854 209.479C117.862 209.444 117.932 209.428 117.98 209.401C118.089 209.328 118.133 209.269 118.169 209.163C118.177 209.128 118.247 209.112 118.295 209.085C118.404 209.012 118.448 208.953 118.484 208.847C118.492 208.812 118.562 208.796 118.61 208.769C118.719 208.696 118.763 208.637 118.799 208.531C118.807 208.496 118.877 208.481 118.925 208.453C119.034 208.38 119.078 208.321 119.114 208.215C119.122 208.18 119.192 208.165 119.24 208.138C119.349 208.064 119.393 208.005 119.429 207.899C119.437 207.864 119.507 207.849 119.555 207.822C119.664 207.748 119.708 207.689 119.745 207.584C119.752 207.549 119.822 207.533 119.87 207.506C119.979 207.432 120.023 207.373 120.06 207.268C120.067 207.233 120.137 207.218 120.185 207.19C120.294 207.116 120.338 207.058 120.375 206.952C120.383 206.917 120.452 206.902 120.5 206.874C120.609 206.8 120.653 206.742 120.69 206.637C120.698 206.601 120.768 206.586 120.816 206.559C120.924 206.484 120.968 206.426 121.005 206.321C121.013 206.286 121.083 206.271 121.131 206.243C121.238 206.168 121.283 206.11 121.32 206.005C121.328 205.97 121.398 205.955 121.446 205.927C121.553 205.852 121.598 205.794 121.635 205.689C121.643 205.654 121.713 205.639 121.761 205.611C121.868 205.537 121.913 205.479 121.951 205.374C121.958 205.339 122.029 205.323 122.076 205.295C122.183 205.221 122.228 205.163 122.266 205.058C122.273 205.023 122.344 205.007 122.392 204.979C122.498 204.905 122.543 204.847 122.581 204.743C122.589 204.707 122.66 204.692 122.707 204.664C122.813 204.589 122.858 204.531 122.896 204.427C122.904 204.391 122.975 204.376 123.022 204.348C123.128 204.273 123.173 204.216 123.211 204.111C123.219 204.076 123.29 204.06 123.337 204.032C123.443 203.957 123.488 203.9 123.526 203.795C123.534 203.76 123.605 203.744 123.652 203.716C123.758 203.641 123.803 203.584 123.841 203.48C123.849 203.444 123.92 203.428 123.967 203.4C124.073 203.325 124.118 203.268 124.156 203.164C124.164 203.128 124.235 203.113 124.282 203.084C124.388 203.009 124.433 202.952 124.471 202.848C124.479 202.812 124.551 202.797 124.597 202.768C124.703 202.693 124.747 202.636 124.786 202.532C124.794 202.497 124.866 202.481 124.913 202.452C125.017 202.377 125.062 202.32 125.102 202.217C125.109 202.181 125.181 202.166 125.223 202.141C125.318 202.076 125.359 202.025 125.447 201.871C133.044 194.218 140.58 186.658 148.118 179.1C148.301 178.917 148.515 178.763 148.714 178.596Z" fill="white"/>
<path d="M186.619 212.626C186.661 212.479 186.761 212.436 186.835 212.365C189.766 209.543 192.686 206.709 195.627 203.897C196.717 202.854 197.876 201.883 198.961 200.834C199.476 200.336 199.889 199.733 200.361 199.066C202.713 201.26 205.056 203.562 207.391 205.872C208.393 206.863 209.38 207.869 210.403 209.076C210.083 209.73 209.739 210.18 209.387 210.623C208.968 211.15 208.542 211.671 208.118 212.195C207.258 211.366 206.402 210.533 205.537 209.708C204.724 208.933 203.906 208.906 203.079 209.615C202.26 210.318 202.141 211.354 202.887 212.208C203.639 213.068 204.481 213.849 205.326 214.863C205.299 215.199 205.259 215.366 205.156 215.469C202.93 217.718 200.714 219.977 198.449 222.187C198.067 222.559 197.472 222.712 196.976 222.967C194.824 220.847 192.666 218.733 190.521 216.605C189.225 215.32 187.95 214.015 186.619 212.626Z" fill="white"/>
<path d="M104.453 68.4936C104.921 66.3599 105.382 64.2245 105.862 62.0933C106.033 61.3348 106.25 60.5866 106.51 59.7217C106.915 59.81 107.319 59.9483 107.589 60.2195C114.945 67.5892 122.286 74.9724 129.582 82.5599C129.414 83.0502 129.244 83.3235 129.184 83.6194C128.847 85.2871 128.584 86.9712 128.199 88.6271C127.984 89.55 128.111 90.6345 127.097 91.2554C122.311 86.5094 117.61 81.8137 112.926 77.1009C110.088 74.2456 107.276 71.3636 104.453 68.4936Z" fill="white"/>
<path d="M202.615 195.917C202.908 195.636 203.324 195.506 203.608 195.237C206.293 192.683 208.95 190.101 211.626 187.538C213.282 185.952 214.955 184.383 216.668 182.719C218.73 184.612 220.754 186.586 222.759 188.577C224.506 190.313 226.232 192.07 228.009 194.016C227.351 195.286 226.495 196.187 225.322 196.744C223.163 194.617 221.003 192.491 218.845 190.364C218.546 190.07 218.273 189.747 217.95 189.484C217.118 188.807 216.123 188.865 215.418 189.599C214.625 190.425 214.632 191.319 215.483 192.18C217.875 194.597 220.279 197.001 222.61 199.52C221.417 200.359 220.362 201.154 219.886 202.49C218.615 201.255 217.345 200.022 216.075 198.787C215.776 198.495 215.504 198.17 215.179 197.912C214.273 197.193 213.215 197.253 212.514 198.033C211.9 198.716 211.946 199.771 212.69 200.571C213.473 201.411 214.307 202.204 215.117 203.019C215.411 203.316 215.699 203.619 215.991 204.101C215.19 205.159 214.387 206.035 213.584 206.91C211.839 205.2 210.088 203.498 208.352 201.779C206.766 200.207 205.195 198.621 203.623 197.035C203.294 196.704 202.99 196.348 202.615 195.917Z" fill="white"/>
<path d="M197.023 223.058C197.474 222.712 198.068 222.559 198.45 222.187C200.715 219.977 202.931 217.718 205.157 215.469C205.26 215.366 205.3 215.199 205.376 214.958C207.591 217.085 209.814 219.301 212.001 221.551C213.824 223.428 215.567 225.383 217.416 227.233C219.451 229.268 221.575 231.214 223.643 233.217C224.206 233.763 224.728 234.356 225.234 234.957C226.025 235.896 226.027 237.043 225.277 237.798C224.533 238.547 223.169 238.528 222.29 237.721C221.71 237.188 221.177 236.604 220.614 236.052C218.74 234.215 216.831 232.413 214.994 230.54C212.94 228.446 210.951 226.288 208.931 224.161C208.678 223.894 208.43 223.616 208.144 223.389C207.368 222.774 206.342 222.827 205.721 223.486C204.953 224.302 204.926 225.321 205.693 226.098C207.466 227.893 209.205 229.725 211.054 231.439C212.324 232.616 212.3 233.902 211.559 234.77C210.743 235.725 209.282 235.55 208.112 234.386C204.797 231.087 201.491 227.778 198.191 224.464C197.786 224.057 197.442 223.589 197.023 223.058Z" fill="white"/>
<path d="M160.55 98.1621C160.86 100.642 159.929 103.007 159.581 105.457C159.32 107.295 159.05 109.132 158.747 111.206C156.82 113.33 154.93 115.216 152.969 117.173C152.536 116.766 152.153 116.424 151.79 116.061C149.12 113.389 146.447 110.719 143.789 108.036C142.129 106.361 140.493 104.664 138.957 102.932C139.338 102.236 139.709 101.608 139.858 100.931C140.234 99.2173 140.531 97.4854 140.815 95.7537C140.914 95.1528 141.128 94.7752 141.784 94.7876C145.474 98.3825 149.163 101.977 152.96 105.676C155.485 103.161 157.968 100.687 160.55 98.1621Z" fill="white"/>
<path d="M244.008 57.7935C244.103 60.411 243.447 62.9072 242.759 65.5703C238.779 65.7231 234.958 65.6313 231.145 65.7702C228.29 65.8741 225.438 66.2099 222.6 66.566C220.536 66.8251 218.497 67.2859 216.443 67.5157C216.437 67.165 216.402 66.9491 216.439 66.7467C216.873 64.395 217.308 62.0432 217.779 59.6989C217.821 59.4856 218.119 59.3238 218.298 59.1381C220.297 58.8057 222.288 58.3939 224.298 58.1553C230.804 57.3832 237.34 57.873 244.008 57.7935Z" fill="white"/>
<path d="M216.237 122.251C215.903 120.341 216.558 118.503 216.88 116.625C217.203 114.743 217.625 112.879 217.96 111C218.04 110.55 217.947 110.069 217.946 109.364C222.757 104.307 227.551 99.4842 232.355 94.6705C233.389 93.6345 234.456 92.6315 235.508 91.6133C235.979 93.582 235.12 95.3986 234.852 97.2813C234.516 99.6335 234.13 101.979 233.774 104.471C233.217 105.145 232.629 105.652 232.094 106.209C231.376 106.957 230.729 107.776 229.998 108.511C225.452 113.085 220.892 117.644 216.237 122.251Z" fill="white"/>
<path d="M116.589 210.774C116.222 213.035 115.87 215.297 115.484 217.554C115.247 218.939 114.895 220.308 114.723 221.699C114.659 222.215 114.289 223.005 115.342 223.272C111.888 226.884 108.327 230.504 104.732 234.09C104.439 234.382 103.922 234.48 103.489 234.59C103.194 234.665 102.864 234.604 102.549 234.604C77.1603 234.604 51.7718 234.604 26.3833 234.593C25.84 234.592 25.2969 234.451 24.791 234.304C25.2433 234.273 25.6584 234.349 26.0735 234.349C41.4344 234.344 56.7954 234.332 72.4505 234.331C82.262 234.341 91.7793 234.341 101.257 234.341C101.409 233.656 101.521 233.201 101.61 232.742C102.05 230.492 102.475 228.239 102.927 225.992C103.04 225.427 102.759 225.228 102.332 225.036C106.025 221.269 109.671 217.596 113.329 213.934C114.398 212.863 115.501 211.827 116.589 210.774Z" fill="white"/>
<path d="M225.369 196.836C226.495 196.187 227.351 195.286 228.059 194.112C229.262 195.169 230.474 196.315 231.653 197.495C239.593 205.441 247.528 213.394 255.461 221.348C255.83 221.718 256.217 222.086 256.509 222.515C257.048 223.306 256.936 224.538 256.334 225.146C255.697 225.788 254.553 225.908 253.713 225.37C253.365 225.147 253.071 224.834 252.775 224.538C246.732 218.48 240.691 212.42 234.65 206.36C232.06 203.761 229.465 201.167 226.883 198.56C226.369 198.041 225.904 197.473 225.369 196.836Z" fill="white"/>
<path d="M218.174 59.1299C218.119 59.3239 217.821 59.4857 217.779 59.699C217.308 62.0433 216.873 64.3951 216.439 66.7468C216.402 66.9492 216.437 67.1651 216.354 67.5896C214.769 68.2285 213.258 68.6209 211.769 69.0824C207.229 70.4895 202.95 72.5046 198.768 74.743C199.035 73.2027 199.293 71.6605 199.573 70.1224C199.806 68.8407 200.097 67.5686 200.287 66.2809C200.326 66.0116 200.031 65.6929 199.769 65.3629C201.244 64.582 202.808 63.7599 204.439 63.1029C208.842 61.3286 213.379 59.9908 218.174 59.1299Z" fill="white"/>
<path d="M141.786 94.6742C141.128 94.7753 140.914 95.1528 140.815 95.7537C140.531 97.4854 140.234 99.2173 139.858 100.931C139.709 101.608 139.338 102.236 138.865 102.891C137.293 101.528 135.917 100.166 134.557 98.7892C132.096 96.2973 129.645 93.796 127.189 91.2986C128.112 90.6346 127.985 89.5501 128.2 88.6272C128.585 86.9713 128.848 85.2872 129.185 83.6195C129.245 83.3236 129.415 83.0503 129.632 82.6541C133.749 86.548 137.769 90.5543 141.786 94.6742Z" fill="white"/>
<path d="M219.928 202.586C220.363 201.154 221.418 200.359 222.654 199.617C223.759 200.577 224.752 201.549 225.747 202.519C226.047 202.812 226.363 203.089 226.655 203.39C230.011 206.854 233.342 210.344 236.727 213.78C238.898 215.983 241.151 218.105 243.357 220.274C243.691 220.602 244.035 220.948 244.267 221.348C244.696 222.085 244.506 223.071 243.952 223.683C243.309 224.391 242.552 224.168 241.941 223.804C240.957 223.216 239.983 222.555 239.164 221.76C236.38 219.059 233.676 216.277 230.924 213.544C228.056 210.696 225.166 207.873 222.291 205.034C221.507 204.26 220.742 203.466 219.928 202.586Z" fill="white"/>
<path d="M213.627 207.005C214.388 206.035 215.191 205.159 216.041 204.196C219.809 207.799 223.542 211.479 227.243 215.19C228.131 216.08 228.093 217.343 227.274 218.136C226.424 218.958 225.411 219.01 224.482 218.097C222.01 215.671 219.588 213.192 217.158 210.724C215.982 209.529 214.831 208.309 213.627 207.005Z" fill="white"/>
<path d="M208.17 212.277C208.544 211.671 208.97 211.15 209.389 210.623C209.741 210.18 210.085 209.73 210.445 209.173C213.144 211.763 215.849 214.446 218.504 217.177C219.315 218.01 219.186 219.159 218.345 219.966C217.623 220.659 216.429 220.72 215.659 219.99C214.331 218.733 213.049 217.424 211.773 216.113C210.572 214.878 209.403 213.612 208.17 212.277Z" fill="white"/>
<path d="M223.756 222.588C224.759 223.593 225.697 224.504 226.601 225.448C227.358 226.237 227.429 227.28 226.825 227.975C226.189 228.706 224.969 228.79 224.158 228.018C222.493 226.432 220.875 224.795 219.281 223.136C218.67 222.501 218.715 221.284 219.249 220.685C219.87 219.988 220.95 219.93 221.78 220.637C222.454 221.213 223.048 221.882 223.756 222.588Z" fill="white"/>
<path d="M214.424 235.064C214.952 235.506 215.416 235.854 215.809 236.268C216.542 237.041 216.566 238.119 215.913 238.823C215.224 239.566 214.302 239.6 213.394 238.908C213.145 238.718 212.898 238.524 212.664 238.317C211.653 237.425 211.418 236.616 211.897 235.714C212.349 234.862 212.891 234.703 214.424 235.064Z" fill="white"/>
<path d="M232.731 235.71C231.911 234.488 231.901 233.844 232.608 233.133C233.327 232.412 234.19 232.375 235.135 233.112C235.624 233.493 236.08 233.945 236.456 234.439C236.969 235.115 236.84 236.153 236.263 236.725C235.745 237.239 234.768 237.37 234.095 236.923C233.624 236.61 233.236 236.173 232.731 235.71Z" fill="white"/>
<path d="M233.403 226.225C232.9 225.755 232.458 225.379 232.09 224.94C231.479 224.212 231.491 223.343 232.062 222.662C232.596 222.026 233.569 221.84 234.331 222.331C234.85 222.666 235.308 223.113 235.743 223.559C236.393 224.224 236.543 225.038 236.201 225.684C235.791 226.459 235.061 226.761 234.067 226.543C233.868 226.499 233.687 226.377 233.403 226.225Z" fill="white"/>
<path d="M39.1534 192.98C39.0753 193.735 38.6831 194.049 38.0797 193.949C37.7668 193.896 37.3894 193.686 37.2202 193.428C36.8708 192.897 37.1116 192.15 37.5977 191.956C38.3174 191.667 38.8191 191.96 39.1534 192.98Z" fill="white"/>
<path d="M118.193 220.555C118.174 220.538 118.211 220.518 118.213 220.507C118.215 220.497 118.213 220.572 118.193 220.555Z" fill="white"/>
<path d="M122.293 216.444C122.279 216.424 122.305 216.416 122.303 216.409C122.302 216.402 122.307 216.463 122.293 216.444Z" fill="white"/>
<path d="M118.507 220.238C118.488 220.221 118.524 220.202 118.526 220.192C118.527 220.183 118.526 220.255 118.507 220.238Z" fill="white"/>
<path d="M118.824 219.922C118.806 219.905 118.84 219.887 118.841 219.877C118.842 219.868 118.842 219.939 118.824 219.922Z" fill="white"/>
<path d="M119.14 219.605C119.123 219.588 119.156 219.571 119.157 219.562C119.158 219.553 119.158 219.623 119.14 219.605Z" fill="white"/>
<path d="M119.454 219.289C119.437 219.271 119.469 219.256 119.469 219.247C119.47 219.238 119.471 219.307 119.454 219.289Z" fill="white"/>
<path d="M119.77 218.973C119.754 218.955 119.785 218.94 119.785 218.932C119.785 218.923 119.787 218.991 119.77 218.973Z" fill="white"/>
<path d="M120.087 218.656C120.071 218.638 120.101 218.625 120.101 218.616C120.101 218.608 120.103 218.675 120.087 218.656Z" fill="white"/>
<path d="M120.401 218.34C120.385 218.321 120.415 218.309 120.414 218.301C120.414 218.293 120.417 218.359 120.401 218.34Z" fill="white"/>
<path d="M120.718 218.024C120.702 218.005 120.731 217.993 120.73 217.986C120.73 217.978 120.733 218.043 120.718 218.024Z" fill="white"/>
<path d="M121.032 217.708C121.017 217.689 121.045 217.678 121.044 217.67C121.044 217.662 121.047 217.727 121.032 217.708Z" fill="white"/>
<path d="M121.348 217.392C121.333 217.373 121.36 217.362 121.359 217.355C121.358 217.347 121.362 217.411 121.348 217.392Z" fill="white"/>
<path d="M121.662 217.076C121.648 217.057 121.674 217.047 121.673 217.04C121.672 217.032 121.676 217.095 121.662 217.076Z" fill="white"/>
<path d="M121.979 216.76C121.964 216.74 121.991 216.731 121.989 216.724C121.988 216.717 121.993 216.779 121.979 216.76Z" fill="white"/>
<path d="M122.926 215.812C122.913 215.792 122.937 215.784 122.935 215.778C122.933 215.771 122.939 215.831 122.926 215.812Z" fill="white"/>
<path d="M117.877 220.872C117.857 220.856 117.895 220.833 117.898 220.822C117.9 220.812 117.897 220.888 117.877 220.872Z" fill="white"/>
<path d="M117.561 221.188C117.54 221.173 117.581 221.148 117.584 221.137C117.587 221.126 117.582 221.204 117.561 221.188Z" fill="white"/>
<path d="M117.244 221.505C117.223 221.49 117.265 221.464 117.268 221.452C117.272 221.441 117.266 221.52 117.244 221.505Z" fill="white"/>
<path d="M116.93 221.821C116.908 221.806 116.951 221.779 116.955 221.767C116.959 221.756 116.952 221.836 116.93 221.821Z" fill="white"/>
<path d="M116.614 222.137C116.591 222.122 116.635 222.095 116.639 222.083C116.643 222.071 116.636 222.152 116.614 222.137Z" fill="white"/>
<path d="M116.299 222.453C116.277 222.439 116.321 222.41 116.325 222.398C116.329 222.386 116.321 222.468 116.299 222.453Z" fill="white"/>
<path d="M115.983 222.769C115.96 222.755 116.005 222.725 116.009 222.713C116.014 222.701 116.005 222.784 115.983 222.769Z" fill="white"/>
<path d="M115.668 223.085C115.646 223.07 115.691 223.041 115.695 223.029C115.699 223.016 115.691 223.099 115.668 223.085Z" fill="white"/>
<path d="M125.448 213.282C125.439 213.261 125.457 213.26 125.453 213.256C125.449 213.251 125.458 213.303 125.448 213.282Z" fill="white"/>
<path d="M123.24 215.496C123.227 215.476 123.251 215.469 123.249 215.463C123.247 215.456 123.253 215.515 123.24 215.496Z" fill="white"/>
<path d="M123.557 215.18C123.544 215.16 123.567 215.153 123.565 215.147C123.563 215.141 123.569 215.199 123.557 215.18Z" fill="white"/>
<path d="M123.871 214.864C123.859 214.844 123.881 214.838 123.879 214.832C123.876 214.826 123.883 214.883 123.871 214.864Z" fill="white"/>
<path d="M124.187 214.547C124.175 214.527 124.197 214.522 124.194 214.517C124.191 214.511 124.198 214.567 124.187 214.547Z" fill="white"/>
<path d="M124.501 214.231C124.49 214.211 124.511 214.207 124.508 214.202C124.505 214.196 124.512 214.251 124.501 214.231Z" fill="white"/>
<path d="M124.817 213.914C124.807 213.894 124.827 213.891 124.823 213.886C124.82 213.881 124.828 213.935 124.817 213.914Z" fill="white"/>
<path d="M125.134 213.598C125.124 213.578 125.143 213.576 125.139 213.571C125.136 213.566 125.144 213.619 125.134 213.598Z" fill="white"/>
<path d="M122.609 216.128C122.596 216.108 122.621 216.1 122.619 216.093C122.617 216.087 122.623 216.147 122.609 216.128Z" fill="white"/>
<path d="M125.764 212.966C125.755 212.945 125.773 212.944 125.768 212.94C125.764 212.936 125.773 212.987 125.764 212.966Z" fill="white"/>
<path d="M126.079 212.65C126.07 212.629 126.088 212.629 126.083 212.625C126.079 212.621 126.088 212.671 126.079 212.65Z" fill="white"/>
<path d="M126.395 212.334C126.387 212.313 126.404 212.313 126.399 212.309C126.395 212.305 126.404 212.355 126.395 212.334Z" fill="white"/>
<path d="M126.709 212.018C126.701 211.997 126.717 211.998 126.713 211.994C126.708 211.99 126.717 212.039 126.709 212.018Z" fill="white"/>
<path d="M127.025 211.702C127.018 211.681 127.034 211.682 127.029 211.678C127.024 211.675 127.033 211.723 127.025 211.702Z" fill="white"/>
<path d="M127.33 211.397C127.312 211.384 127.324 211.393 127.317 211.397C127.311 211.402 127.348 211.409 127.33 211.397Z" fill="white"/>
<path d="M75.2409 226.607C78.0643 226.514 80.7913 226.483 83.5184 226.48C88.7133 226.473 93.9088 226.438 99.1027 226.515C100.37 226.534 101.347 226.253 102.193 225.186C102.759 225.228 103.04 225.427 102.927 225.992C102.475 228.239 102.05 230.492 101.61 232.742C101.521 233.201 101.409 233.656 101.257 234.341C91.7796 234.341 82.2623 234.341 72.5977 234.323C72.7434 231.804 73.1856 229.333 73.8148 226.928C74.3414 226.83 74.7429 226.756 75.2409 226.607Z" fill="white"/>
<path d="M123.023 204.348C122.983 204.292 123.022 204.227 123.149 204.164C123.174 204.216 123.129 204.273 123.023 204.348Z" fill="white"/>
<path d="M123.337 204.032C123.297 203.976 123.336 203.911 123.463 203.848C123.488 203.9 123.443 203.957 123.337 204.032Z" fill="white"/>
<path d="M123.652 203.716C123.612 203.66 123.651 203.596 123.778 203.533C123.803 203.584 123.758 203.641 123.652 203.716Z" fill="white"/>
<path d="M123.966 203.4C123.926 203.344 123.965 203.28 124.092 203.217C124.117 203.268 124.072 203.325 123.966 203.4Z" fill="white"/>
<path d="M124.283 203.084C124.243 203.029 124.282 202.964 124.409 202.901C124.433 202.952 124.389 203.009 124.283 203.084Z" fill="white"/>
<path d="M124.597 202.768C124.558 202.713 124.596 202.648 124.723 202.585C124.747 202.636 124.703 202.693 124.597 202.768Z" fill="white"/>
<path d="M124.913 202.452C124.874 202.397 124.912 202.332 125.038 202.27C125.062 202.32 125.018 202.377 124.913 202.452Z" fill="white"/>
<path d="M125.222 202.141C125.18 202.087 125.214 202.028 125.334 201.977C125.358 202.025 125.317 202.076 125.222 202.141Z" fill="white"/>
<path d="M119.871 207.506C119.831 207.449 119.87 207.384 119.997 207.321C120.024 207.373 119.98 207.432 119.871 207.506Z" fill="white"/>
<path d="M117.349 210.032C117.308 209.975 117.348 209.91 117.474 209.847C117.502 209.901 117.459 209.96 117.349 210.032Z" fill="white"/>
<path d="M117.665 209.717C117.625 209.659 117.664 209.595 117.79 209.531C117.818 209.585 117.775 209.644 117.665 209.717Z" fill="white"/>
<path d="M117.98 209.401C117.94 209.344 117.979 209.279 118.105 209.216C118.133 209.269 118.089 209.328 117.98 209.401Z" fill="white"/>
<path d="M118.294 209.085C118.254 209.028 118.293 208.963 118.419 208.9C118.447 208.953 118.403 209.012 118.294 209.085Z" fill="white"/>
<path d="M118.611 208.769C118.571 208.712 118.61 208.647 118.737 208.584C118.764 208.637 118.72 208.696 118.611 208.769Z" fill="white"/>
<path d="M118.925 208.453C118.885 208.397 118.924 208.332 119.051 208.268C119.078 208.321 119.034 208.38 118.925 208.453Z" fill="white"/>
<path d="M119.24 208.138C119.2 208.081 119.239 208.016 119.366 207.952C119.393 208.005 119.349 208.064 119.24 208.138Z" fill="white"/>
<path d="M119.554 207.822C119.514 207.765 119.553 207.7 119.68 207.636C119.707 207.689 119.663 207.748 119.554 207.822Z" fill="white"/>
<path d="M117.035 210.348C116.994 210.291 117.034 210.226 117.16 210.163C117.189 210.217 117.145 210.275 117.035 210.348Z" fill="white"/>
<path d="M120.185 207.19C120.145 207.134 120.184 207.068 120.311 207.005C120.338 207.057 120.294 207.116 120.185 207.19Z" fill="white"/>
<path d="M120.499 206.874C120.459 206.818 120.499 206.753 120.625 206.689C120.652 206.742 120.608 206.8 120.499 206.874Z" fill="white"/>
<path d="M120.816 206.559C120.776 206.502 120.815 206.437 120.942 206.374C120.968 206.426 120.924 206.484 120.816 206.559Z" fill="white"/>
<path d="M121.13 206.243C121.09 206.186 121.129 206.121 121.256 206.058C121.282 206.11 121.237 206.168 121.13 206.243Z" fill="white"/>
<path d="M121.447 205.927C121.407 205.871 121.446 205.806 121.573 205.742C121.599 205.794 121.554 205.852 121.447 205.927Z" fill="white"/>
<path d="M121.761 205.611C121.721 205.555 121.76 205.49 121.887 205.427C121.913 205.479 121.868 205.537 121.761 205.611Z" fill="white"/>
<path d="M122.075 205.295C122.035 205.239 122.075 205.174 122.201 205.111C122.227 205.163 122.182 205.221 122.075 205.295Z" fill="white"/>
<path d="M122.392 204.979C122.352 204.923 122.391 204.859 122.517 204.796C122.543 204.847 122.498 204.905 122.392 204.979Z" fill="white"/>
<path d="M122.706 204.664C122.666 204.608 122.705 204.543 122.831 204.48C122.857 204.531 122.812 204.589 122.706 204.664Z" fill="white"/>
<path d="M116.721 210.664C116.68 210.607 116.719 210.542 116.846 210.479C116.875 210.532 116.831 210.591 116.721 210.664Z" fill="white"/>
<path d="M417.127 148.154V158.708H368.049V148.154H417.127Z" fill="white"/>
<path d="M553.294 70.0686V219.27H540.794V70.0686H553.294ZM604.422 70.0686V80.9308H489.77V70.0686H604.422Z" fill="white"/>
<path d="M658.418 221.32C651.177 221.32 644.517 219.987 638.438 217.323C632.427 214.659 627.168 210.901 622.659 206.051C618.219 201.201 614.77 195.462 612.311 188.836C609.92 182.141 608.725 174.831 608.725 166.906V162.5C608.725 153.96 609.989 146.241 612.516 139.341C615.043 132.441 618.527 126.532 622.967 121.613C627.407 116.694 632.461 112.937 638.131 110.341C643.868 107.676 649.879 106.344 656.164 106.344C663.199 106.344 669.449 107.608 674.914 110.136C680.378 112.595 684.955 116.113 688.643 120.691C692.4 125.199 695.235 130.562 697.147 136.779C699.06 142.927 700.016 149.725 700.016 157.171V164.652H616.102V154.199H687.823V152.765C687.687 146.548 686.423 140.741 684.032 135.344C681.71 129.879 678.226 125.439 673.582 122.023C668.937 118.607 663.131 116.899 656.164 116.899C650.972 116.899 646.191 117.992 641.819 120.178C637.516 122.364 633.793 125.507 630.651 129.606C627.577 133.636 625.187 138.453 623.479 144.055C621.84 149.588 621.02 155.737 621.02 162.5V166.906C621.02 173.055 621.908 178.793 623.684 184.122C625.528 189.382 628.124 194.027 631.471 198.058C634.886 202.089 638.916 205.231 643.561 207.486C648.206 209.74 653.329 210.867 658.93 210.867C665.487 210.867 671.293 209.672 676.348 207.281C681.403 204.821 685.945 200.962 689.975 195.701L697.659 201.645C695.269 205.197 692.263 208.476 688.643 211.482C685.091 214.488 680.822 216.879 675.836 218.655C670.849 220.432 665.043 221.32 658.418 221.32Z" fill="white"/>
<path d="M765.078 210.765C770.269 210.765 775.119 209.808 779.627 207.896C784.203 205.914 787.96 203.011 790.897 199.185C793.903 195.291 795.61 190.543 796.02 184.942H807.701C807.359 191.978 805.207 198.263 801.246 203.797C797.352 209.262 792.229 213.566 785.877 216.708C779.593 219.783 772.66 221.32 765.078 221.32C757.359 221.32 750.528 219.919 744.586 217.118C738.711 214.317 733.793 210.423 729.832 205.436C725.87 200.381 722.864 194.506 720.815 187.811C718.834 181.048 717.844 173.772 717.844 165.984V161.68C717.844 153.892 718.834 146.651 720.815 139.956C722.864 133.192 725.87 127.317 729.832 122.33C733.793 117.275 738.711 113.347 744.586 110.546C750.46 107.745 757.257 106.344 764.975 106.344C772.899 106.344 780.003 107.95 786.287 111.161C792.639 114.371 797.694 118.914 801.451 124.79C805.276 130.665 807.359 137.633 807.701 145.694H796.02C795.679 139.751 794.108 134.627 791.307 130.323C788.507 126.019 784.818 122.706 780.242 120.383C775.665 118.06 770.576 116.899 764.975 116.899C758.691 116.899 753.329 118.129 748.889 120.588C744.449 122.979 740.829 126.292 738.028 130.528C735.296 134.695 733.281 139.477 731.983 144.874C730.685 150.203 730.037 155.805 730.037 161.68V165.984C730.037 171.927 730.651 177.598 731.881 182.995C733.179 188.323 735.194 193.071 737.926 197.238C740.726 201.406 744.347 204.719 748.787 207.178C753.295 209.569 758.725 210.765 765.078 210.765Z" fill="white"/>
<path d="M844.586 61.8708V219.27H832.393V61.8708H844.586ZM841.82 156.966L836.389 153.892C836.799 147.334 838.131 141.185 840.385 135.447C842.639 129.708 845.679 124.653 849.504 120.281C853.397 115.909 857.94 112.493 863.131 110.033C868.391 107.574 874.197 106.344 880.549 106.344C886.082 106.344 891.034 107.096 895.406 108.599C899.777 110.102 903.5 112.493 906.574 115.772C909.648 119.051 911.97 123.252 913.541 128.376C915.18 133.5 916 139.751 916 147.129V219.27H903.705V147.026C903.705 139.375 902.646 133.397 900.529 129.093C898.411 124.721 895.406 121.613 891.512 119.768C887.619 117.924 883.008 117.002 877.68 117.002C871.806 117.002 866.649 118.3 862.209 120.896C857.837 123.423 854.149 126.737 851.143 130.835C848.206 134.866 845.952 139.204 844.381 143.85C842.81 148.427 841.956 152.799 841.82 156.966Z" fill="white"/>
</g>
<defs>
<clipPath id="clip0_264_2221">
<rect width="916" height="295" fill="white"/>
</clipPath>
</defs>
</svg>
