<svg width="28" height="27" viewBox="0 0 28 27" fill="none" xmlns="http://www.w3.org/2000/svg">
<rect width="28" height="27" fill="#F5F5F5"/>
<g id="zalo-logo-inkythuatso 1">
<path id="Vector" d="M6.34368 21.9583C6.25072 21.9168 6.1824 21.8698 6.29216 21.7768C6.35936 21.7253 6.43216 21.6783 6.50496 21.6312C7.1848 21.19 7.8232 20.7072 8.24432 19.996C8.59712 19.4047 8.54 19.0564 8.09872 18.6207C5.63696 16.1589 4.55728 13.2156 5.09712 9.73796C5.40288 7.77572 6.30112 6.0778 7.60928 4.60388C8.39888 3.71124 9.33744 2.98884 10.3656 2.3874C10.4283 2.35156 10.5157 2.34036 10.5269 2.2474C10.5056 2.19588 10.4698 2.21156 10.4384 2.21156C8.68896 2.21156 6.93952 2.17572 5.19568 2.22164C3.52352 2.27316 2.08096 3.56564 2.08656 5.41924C2.09664 10.8333 2.08656 16.2485 2.08656 21.6682C2.08656 23.3504 3.36896 24.7572 5.0456 24.8199C6.4624 24.877 7.88032 24.83 9.30272 24.8255C9.40688 24.8311 9.50993 24.8356 9.61409 24.8356H17.1102C18.9795 24.8356 20.8477 24.8456 22.717 24.8356C24.4507 24.8356 25.8574 23.4344 25.8574 21.7052V21.6738V18.6364C25.8574 18.5636 25.8832 18.4863 25.8362 18.4079C25.7432 18.4135 25.7062 18.4908 25.6547 18.5434C24.6478 19.5559 23.4584 20.3712 22.1558 20.9469C18.9627 22.3536 15.7136 22.4522 12.4174 21.321C12.1318 21.2168 11.8205 21.2068 11.5248 21.2796C11.0891 21.3882 10.6579 21.5181 10.2267 21.648C8.96 22.0412 7.6664 22.217 6.34368 21.9583ZM10.1069 13.21C10.1954 13.0957 10.2424 13.0285 10.2939 12.9613C10.9738 12.1 11.6536 11.2376 12.3346 10.3708C12.5317 10.1221 12.7288 9.86676 12.8542 9.5666C12.9998 9.22388 12.8442 8.90244 12.4914 8.777C12.3357 8.72996 12.1699 8.7098 12.003 8.71988C11.079 8.71428 10.1494 8.71428 9.22544 8.71988C9.09552 8.71988 8.9656 8.73556 8.84128 8.76692C8.55008 8.83972 8.37424 9.1354 8.44704 9.43108C8.49856 9.6282 8.65424 9.78388 8.85248 9.83092C8.9768 9.86228 9.10672 9.87796 9.23664 9.87236C9.79776 9.87796 10.3634 9.87236 10.9234 9.87796C10.9861 9.87796 11.0634 9.83652 11.1104 9.92948C11.0634 9.9922 11.0174 10.0538 10.9704 10.1109C10.1662 11.1279 9.36657 12.1516 8.56128 13.1685C8.36416 13.4228 8.26 13.7028 8.4056 14.0152C8.5512 14.3277 8.84688 14.3837 9.14816 14.405C9.38672 14.4207 9.63088 14.4106 9.87504 14.4106C10.7162 14.4106 11.5517 14.4162 12.3928 14.405C12.8397 14.3994 13.0782 14.1295 13.0312 13.7151C12.9954 13.388 12.7714 13.2167 12.3558 13.2111C11.6222 13.2055 10.8909 13.21 10.1069 13.21ZM16.1291 10.4794C15.4806 9.9138 14.7638 9.87684 14.0627 10.2924C13.2115 10.7908 12.9002 11.6061 13.0032 12.5503C13.1018 13.4328 13.4859 14.1541 14.4099 14.4498C14.9856 14.6368 15.521 14.5696 15.9936 14.1855C16.1179 14.0869 16.1549 14.1071 16.2422 14.2168C16.4136 14.4352 16.7093 14.5181 16.9691 14.4196C17.229 14.3412 17.4003 14.1026 17.4003 13.8327C17.4059 12.7944 17.4104 11.7562 17.4003 10.718C17.3947 10.3024 17.0061 10.0381 16.6006 10.121C16.3778 10.168 16.2534 10.3192 16.1291 10.4794ZM19.7266 12.4058C19.7053 13.7039 20.7805 14.685 22.1301 14.5495C23.371 14.4252 24.1752 13.4956 24.1338 12.1818C24.0923 10.8837 23.1269 9.99668 21.803 10.0381C20.5621 10.0751 19.6851 11.0719 19.7266 12.4058ZM19.2696 11.3732C19.2696 10.5578 19.2752 9.74804 19.2696 8.93268C19.2696 8.51716 19.0053 8.25732 18.6099 8.26292C18.2258 8.26852 17.9715 8.52724 17.9659 8.92708C17.9603 9.17124 17.9659 9.4098 17.9659 9.65396V13.7812C17.9659 14.1026 18.163 14.3837 18.4229 14.4509C18.7813 14.5495 19.1498 14.3367 19.2427 13.9783C19.2584 13.9156 19.2685 13.854 19.264 13.7868C19.2752 12.9815 19.2696 12.1773 19.2696 11.3732Z" fill="#FDFEFE"/>
<path id="Vector_2" d="M9.29709 24.8288C7.88029 24.8288 6.45789 24.8759 5.03997 24.8232C3.36333 24.756 2.08093 23.3493 2.08093 21.6715C2.08093 16.2574 2.09101 10.8422 2.08093 5.42257C2.08093 3.56897 3.52909 2.27649 5.19565 2.22945C6.93949 2.18241 8.68893 2.21937 10.4384 2.21937C10.4697 2.21937 10.5112 2.20369 10.5269 2.25521C10.5168 2.34817 10.4227 2.35937 10.3656 2.39521C9.33853 2.99889 8.39885 3.72017 7.60925 4.61393C6.30669 6.08785 5.40285 7.78017 5.09709 9.74801C4.55725 13.2211 5.64253 16.1701 8.09757 18.6307C8.53325 19.072 8.59037 19.4147 8.24317 20.0061C7.82317 20.7173 7.18365 21.2 6.50381 21.6413C6.43101 21.6827 6.35821 21.7343 6.28541 21.7813C6.17677 21.8743 6.24397 21.9213 6.33693 21.9627C6.35821 22.0098 6.38397 22.0512 6.41533 22.0927C7.01229 22.6224 7.57789 23.188 8.16477 23.7279C8.44029 23.9821 8.71469 24.2475 8.98013 24.5119C9.08877 24.6104 9.27133 24.6418 9.29709 24.8288Z" fill="#6610F2"/>
<path id="Vector_3" d="M9.29707 24.8289C9.27131 24.6474 9.08987 24.616 8.98011 24.5074C8.71579 24.2375 8.44027 23.9776 8.16475 23.7234C7.57787 23.1836 7.01227 22.618 6.41531 22.0882C6.38395 22.0468 6.35819 22.0053 6.33691 21.9583C7.66075 22.2181 8.95323 22.0412 10.2256 21.6525C10.6568 21.5226 11.0868 21.3927 11.5236 21.284C11.8193 21.2056 12.1307 21.2213 12.4163 21.3255C15.708 22.4567 18.9571 22.3536 22.1547 20.9514C23.4572 20.3757 24.6467 19.5648 25.6536 18.5535C25.7051 18.502 25.742 18.4236 25.835 18.418C25.882 18.4908 25.8563 18.568 25.8563 18.6464V21.6839C25.8664 23.4176 24.4753 24.83 22.7416 24.8457H22.7158C20.8465 24.8557 18.9784 24.8457 17.1091 24.8457H9.60843C9.50427 24.8333 9.40123 24.8289 9.29707 24.8289Z" fill="#6610F2"/>
<path id="Vector_4" d="M10.1069 13.2099C10.8909 13.2099 11.6279 13.2043 12.3604 13.2099C12.7703 13.2155 12.9932 13.3869 13.0357 13.7139C13.0828 14.1238 12.8442 14.3994 12.3973 14.4038C11.5562 14.4139 10.7207 14.4094 9.87956 14.4094C9.6354 14.4094 9.39684 14.4195 9.15268 14.4038C8.8514 14.3882 8.55572 14.3254 8.41012 14.0141C8.26452 13.7027 8.36868 13.4227 8.5658 13.1674C9.36548 12.1504 10.1696 11.1267 10.9749 10.1098C11.022 10.047 11.0679 9.98543 11.1149 9.92831C11.0634 9.83983 10.9906 9.88127 10.9279 9.87679C10.3668 9.87119 9.80116 9.87679 9.24116 9.87119C9.11124 9.87119 8.98132 9.85551 8.857 9.82975C8.56132 9.76255 8.37988 9.46687 8.44708 9.17567C8.49412 8.97855 8.6498 8.81727 8.84692 8.77023C8.97124 8.73887 9.10116 8.72319 9.23108 8.72319C10.1551 8.71759 11.0847 8.71759 12.0087 8.72319C12.1744 8.71759 12.3357 8.73887 12.497 8.78031C12.8498 8.90015 13.001 9.22719 12.8599 9.56991C12.7356 9.86559 12.5384 10.1198 12.3402 10.3741C11.6604 11.241 10.9805 12.1022 10.2996 12.959C10.2413 13.0285 10.1898 13.0957 10.1069 13.2099Z" fill="#6610F2"/>
<path id="Vector_5" d="M16.1292 10.4794C16.2535 10.3181 16.3834 10.1681 16.5962 10.1266C17.0061 10.0437 17.3903 10.3081 17.3959 10.7236C17.4116 11.7618 17.406 12.8001 17.3959 13.8383C17.3959 14.1082 17.2189 14.3468 16.9647 14.4252C16.7049 14.5237 16.4092 14.4465 16.2378 14.2225C16.1493 14.1138 16.1135 14.0925 15.9892 14.1911C15.5165 14.5753 14.9823 14.6425 14.4055 14.4554C13.4815 14.1541 13.1029 13.4329 12.9988 12.5559C12.8901 11.6061 13.206 10.7964 14.0583 10.298C14.7639 9.87798 15.4796 9.91382 16.1292 10.4794ZM14.2913 12.3745C14.3013 12.6029 14.3741 12.8213 14.5097 13.0028C14.7897 13.3769 15.325 13.4541 15.7036 13.1741C15.7663 13.1271 15.8234 13.07 15.8749 13.0028C16.1661 12.6085 16.1661 11.9589 15.8749 11.5647C15.7293 11.362 15.5009 11.2433 15.2567 11.2377C14.6855 11.2018 14.2857 11.6431 14.2913 12.3745ZM19.7266 12.4058C19.6852 11.0719 20.5621 10.0751 21.8087 10.0381C23.1325 9.9967 24.098 10.8849 24.1394 12.1818C24.1809 13.4956 23.3767 14.4241 22.1357 14.5495C20.7805 14.685 19.7053 13.7039 19.7266 12.4058ZM21.0292 12.2815C21.0191 12.5413 21.0964 12.7956 21.2521 13.0084C21.5377 13.3825 22.0719 13.4553 22.446 13.1641C22.5031 13.1226 22.5501 13.0711 22.5961 13.0185C22.8973 12.6242 22.8973 11.9589 22.6017 11.5647C22.4561 11.3676 22.2276 11.2433 21.9834 11.2377C21.4245 11.2063 21.0292 11.6319 21.0292 12.2815ZM19.2697 11.3732C19.2697 12.1773 19.2753 12.9826 19.2697 13.7868C19.2753 14.1553 18.9841 14.4621 18.6156 14.4722C18.5529 14.4722 18.4857 14.4666 18.4229 14.4509C18.1631 14.3837 17.966 14.1082 17.966 13.7812V9.65398C17.966 9.40982 17.9604 9.17126 17.966 8.9271C17.9716 8.52726 18.2258 8.26742 18.61 8.26742C19.0042 8.26182 19.2697 8.52166 19.2697 8.93718C19.2753 9.74806 19.2697 10.5634 19.2697 11.3732Z" fill="#6610F2"/>
<path id="Vector_6" d="M14.2912 12.3744C14.2856 11.642 14.6854 11.2007 15.251 11.232C15.4952 11.2421 15.7237 11.362 15.8693 11.5647C16.1605 11.9544 16.1605 12.6085 15.8693 13.0028C15.5893 13.3768 15.0539 13.4541 14.6754 13.1741C14.6126 13.1271 14.5555 13.07 14.504 13.0028C14.3741 12.8213 14.3013 12.6029 14.2912 12.3744ZM21.0291 12.2815C21.0291 11.6375 21.4234 11.2074 21.9845 11.2376C22.2286 11.2432 22.4571 11.3676 22.6027 11.5647C22.8984 11.9589 22.8984 12.6287 22.5971 13.0184C22.3059 13.3869 21.7661 13.4496 21.3976 13.1584C21.3405 13.117 21.2934 13.0655 21.252 13.0084C21.0974 12.7956 21.0246 12.5413 21.0291 12.2815Z" fill="#FDFEFE"/>
<path id="Vector_7" d="M5.48125 2.23608H22.5142C24.3779 2.23608 25.8888 3.74696 25.8888 5.61064V21.3399C25.8888 23.2036 24.3779 24.7145 22.5142 24.7145H5.48125C3.61757 24.7145 2.10669 23.2036 2.10669 21.3399V5.61064C2.10669 3.74696 3.61757 2.23608 5.48125 2.23608Z" stroke="#6610F2" stroke-width="0.121697" stroke-miterlimit="54.3289"/>
</g>
</svg>
